<?xml version="1.0" encoding="utf-8"?>
<!-- Generator: Adobe Illustrator 17.0.0, SVG Export Plug-In . SVG Version: 6.00 Build 0)  -->
<!DOCTYPE svg PUBLIC "-//W3C//DTD SVG 1.1//EN" "http://www.w3.org/Graphics/SVG/1.1/DTD/svg11.dtd">
<svg version="1.1" id="Layer_1" xmlns="http://www.w3.org/2000/svg" xmlns:xlink="http://www.w3.org/1999/xlink" x="0px" y="0px"
	 width="214.888px" height="21.019px" viewBox="0 0 214.888 21.019" enable-background="new 0 0 214.888 21.019"
	 xml:space="preserve">
<g>
	<g>
		<g>
			<path fill="#0BB7C4" d="M13.232,12.687c-0.224-0.222-0.638-0.226-0.879-0.015c-1.068,0.864-2.243,1.303-3.491,1.303
				c-2.856,0-5.094-2.31-5.094-5.259c0-2.976,2.227-5.307,5.07-5.307c1.259,0,2.537,0.49,3.498,1.335
				c0.272,0.271,0.671,0.258,0.898-0.003l0.147-0.152l1.254-1.295l0.042-0.044c0.135-0.135,0.207-0.31,0.202-0.491
				c-0.006-0.182-0.089-0.354-0.234-0.483c-1.741-1.562-3.554-2.258-5.877-2.258C3.933,0.019,0,3.952,0,8.786
				c0,4.808,3.933,8.72,8.768,8.72c2.274,0,4.317-0.816,5.909-2.361c0.138-0.137,0.216-0.335,0.209-0.529
				c-0.005-0.168-0.075-0.319-0.182-0.412L13.232,12.687z"/>
			<path fill="#0BB7C4" d="M28.888,1.019v9.616c0,1.949-1.131,3.364-3.012,3.364c-1.867,0-2.988-1.425-2.988-3.388V1.019L21.892,0
				h-2l-1.004,1.019v9.758c0,3.774,3.174,6.73,6.988,6.73c3.827,0,7.012-2.956,7.012-6.73V1.019L31.892,0h-2L28.888,1.019z"/>
			<polygon fill="#0BB7C4" points="61.888,1.019 60.893,0 50.892,0 49.888,1.06 49.888,3.019 50.892,4 53.888,4 53.888,16.019 
				54.893,17 56.914,17 57.888,16.019 57.888,4 60.893,4 61.888,3.019 			"/>
			<path fill="#0BB7C4" d="M89.939,0h-2.046l-1,1.009l-4.406,11.507L77.893,1.007l-1-1.007h-2l-1,1l7,16c0,0,1.279,0,1.464,0h1.536
				l7-16.025L89.939,0z"/>
			<path fill="#0BB7C4" d="M189.893,0h-2.015l-0.985,1.009l-1.938,9.995L180.893,0h-1l-4,11.009l-2.097-10.399
				C173.72,0.342,172.898,0,172.898,0h-2.005l-1,1.018l4,15.982c0,0,1.278,0,1.569,0h1.431l3.605-10.407L183.893,17h3l4-16
				L189.893,0z"/>
			<polygon fill="#0BB7C4" points="197.893,0 195.893,0 194.888,1.019 194.888,16.019 195.893,17 197.893,17 198.888,16.019 
				198.888,1.019 			"/>
			<polygon fill="#0BB7C4" points="214.888,1.035 213.893,0 203.893,0 202.888,1.074 202.888,3.019 203.893,4 206.888,4 
				206.888,16.019 207.893,17 209.893,17 210.888,16.019 210.888,4 213.893,4 214.888,3.019 			"/>
			<path fill="#0BB7C4" d="M101.893,17h4l-7-17h-2l-7,17h4l1-3h6L101.893,17z M95.893,11l2-7l2,7H95.893z"/>
			<polygon fill="#0BB7C4" points="118.888,0.965 117.893,0 107.893,0 106.888,1.028 106.888,3.019 107.893,4 110.888,4 
				110.888,16.019 111.893,17 113.961,17 114.888,16.019 114.888,4 117.893,4 118.888,3.019 			"/>
			<path fill="#0BB7C4" d="M144.188,0h-5.295l-1.004,1.019v15L138.893,17h5.295c4.703,0,8.705-3,8.705-8.133
				C152.893,3.067,148.891,0,144.188,0z M144.893,13h-3.004V4h2.015c2.965,0,4.989,1,4.989,5c0,0.362,0.031-0.305,0,0
				C148.663,11.241,147.502,13,144.893,13z"/>
			<polygon fill="#0BB7C4" points="133.888,14.019 132.893,13 126.888,13 126.888,10 131.893,10 132.888,9.019 132.888,8.019 
				131.893,7 126.888,7 126.888,4 132.893,4 133.888,3.019 133.888,1.019 132.893,0 123.893,0 122.888,1.019 122.888,16.019 
				123.893,17 132.893,17 133.888,16.019 			"/>
			<polygon fill="#0BB7C4" points="69.893,0 67.893,0 66.888,1.019 66.888,16.019 67.893,17 69.893,17 70.888,16.019 70.888,1.019 
							"/>
			<polygon fill="#0BB7C4" points="48.888,14.019 47.893,13 41.888,13 41.888,1.019 40.893,0 38.893,0 37.888,1.019 37.888,16.019 
				38.893,17 47.893,17 48.888,16.019 			"/>
		</g>
	</g>
	<path fill="#0BB7C4" d="M85.893,21.019"/>
	
		<rect x="160.893" y="7.019" transform="matrix(0.7071 0.7071 -0.7071 0.7071 53.5872 -112.3339)" fill="#0BB7C4" width="3" height="3"/>
</g>
</svg>
