<?xml version="1.0" encoding="utf-8"?>
<!-- Generator: Adobe Illustrator 17.0.0, SVG Export Plug-In . SVG Version: 6.00 Build 0)  -->
<!DOCTYPE svg PUBLIC "-//W3C//DTD SVG 1.1//EN" "http://www.w3.org/Graphics/SVG/1.1/DTD/svg11.dtd">
<svg version="1.1" id="Layer_1" xmlns="http://www.w3.org/2000/svg" xmlns:xlink="http://www.w3.org/1999/xlink" x="0px" y="0px"
	 width="78.912px" height="78.911px" viewBox="111.582 -14.151 78.912 78.911"
	 enable-background="new 111.582 -14.151 78.912 78.911" xml:space="preserve">
<g>
	<g>
		<path fill="#00A1E8" d="M151.751,17.981c0-5.074-3.074-12.965-9.006-12.965c-1.864,0-3.863,0.739-5.009,2.15
			c-1.218,1.48-1.573,3.556-1.573,5.39c0,4.72,2.787,12.542,8.941,12.542c1.787,0,3.714-1.021,4.861-2.15
			C151.609,21.325,151.751,19.251,151.751,17.981z"/>
		<path fill="#00A1E8" d="M147.879,36.338c-0.568-0.072-0.927-0.072-1.64-0.072c-0.645,0-4.508,0.142-7.512,1.13
			c-1.573,0.563-6.151,2.252-6.151,7.256c0,5.004,4.937,8.6,12.587,8.6c6.867,0,10.516-3.247,10.516-7.61
			C155.68,42.042,153.321,40.145,147.879,36.338z"/>
		<g>
			<g>
				<path fill="#00A1E8" d="M151.038-14.151c-21.791,0-39.456,17.665-39.456,39.455c0,21.79,17.665,39.456,39.456,39.456
					c21.789,0,39.456-17.666,39.456-39.456C190.494,3.513,172.827-14.151,151.038-14.151z M141.464,56.259
					c-10.369,0-15.171-4.912-15.171-10.128c0-2.539,1.286-6.128,5.508-8.598c4.43-2.677,10.443-3.028,13.661-3.242
					c-1.006-1.269-2.148-2.606-2.148-4.789c0-1.198,0.359-1.904,0.715-2.748c-0.79,0.069-1.573,0.139-2.292,0.139
					c-7.575,0-11.869-5.568-11.869-11.061c0-3.241,1.01-7.07,4.082-9.676c4.077-3.311,9.286-3.711,13.151-3.711l14.911-0.136
					L157.381,5h-4.236c1.641,2,4.903,4.066,4.903,9.424c0,5.212-3.004,7.753-6.009,10.074c-0.928,0.915-2.002,1.94-2.002,3.491
					c0,1.547,1.074,2.411,1.859,3.048l2.577,1.977c3.148,2.609,6.007,5.011,6.007,9.874
					C160.479,49.511,153.764,56.259,141.464,56.259z M173,30v7h-4v-7h-7v-4h7v-7h4v7h7v4H173z"/>
			</g>
		</g>
	</g>
</g>
</svg>
