<?xml version="1.0" encoding="utf-8"?>
<!-- Generator: Adobe Illustrator 17.0.0, SVG Export Plug-In . SVG Version: 6.00 Build 0)  -->
<!DOCTYPE svg PUBLIC "-//W3C//DTD SVG 1.1//EN" "http://www.w3.org/Graphics/SVG/1.1/DTD/svg11.dtd">
<svg version="1.1" id="Layer_1" xmlns="http://www.w3.org/2000/svg" xmlns:xlink="http://www.w3.org/1999/xlink" x="0px" y="0px"
	 width="77.654px" height="76.104px" viewBox="0 0 77.654 76.104" enable-background="new 0 0 77.654 76.104" xml:space="preserve">
<path fill="#2A9FD9" d="M38.7,0C17.328,0-0.111,17.325-0.111,38.697c0,18.721,14.738,33.821,30.843,37.407V51.244h-4.392V39.531
	h4.392c0,0,0-6.417,0-11.303c0-7.59,5.99-14.128,16.816-14.128c4.374,0,8.074,0.088,8.074,0.088v9.237c0,0-1.713,0-5.313,0
	c-3.902,0-3.472,3.136-3.472,6.168c0,0.299,0,9.937,0,9.937h9.921l-1.29,11.713h-8.631v24.859
	c17.569-3.586,30.759-18.686,30.759-37.407C77.596,17.325,60.071,0,38.7,0z"/>
</svg>
