<?xml version="1.0" encoding="utf-8"?>
<!-- Generator: Adobe Illustrator 17.0.0, SVG Export Plug-In . SVG Version: 6.00 Build 0)  -->
<!DOCTYPE svg PUBLIC "-//W3C//DTD SVG 1.1//EN" "http://www.w3.org/Graphics/SVG/1.1/DTD/svg11.dtd">
<svg version="1.1" id="Layer_1" xmlns="http://www.w3.org/2000/svg" xmlns:xlink="http://www.w3.org/1999/xlink" x="0px" y="0px"
	 width="79px" height="79px" viewBox="-0.044 -0.044 79 79" enable-background="new -0.044 -0.044 79 79" xml:space="preserve">
<g>
	<g>
		<g>
			<path fill="#00A1E8" d="M38.143,17.956c-0.904-0.006-0.994,0.706-1.002,2.137l-0.04,6.506c-0.009,1.431,0.072,2.147,0.976,2.153
				c0.903,0.005,0.992-0.71,1.001-2.141l0.04-6.506C39.126,18.675,39.046,17.962,38.143,17.956z"/>
		</g>
		<path fill="#00A1E8" d="M39.275,0.305C17.737,0.174,0.17,17.528,0.039,39.067c-0.131,21.538,17.223,39.106,38.762,39.237
			c21.536,0.131,39.106-17.224,39.237-38.762C78.168,18.003,60.812,0.436,39.275,0.305z M44.012,27.884l0.077-12.574l2.965,0.018
			l-0.071,11.73c-0.004,0.658,0.236,1.001,0.269,1.092c0.059,0.435,0.408,0.659,0.785,0.661c0.56,0.003,0.915-0.429,1.909-1.301
			l0.074-12.164l2.965,0.018L52.888,31.18l-2.965-0.018l0.01-1.693c-0.996,1.274-2.201,1.888-3.223,1.882
			c-0.903-0.005-2.394-0.381-2.669-1.167C43.89,29.716,44.006,28.975,44.012,27.884z M34.172,20.637
			c0.01-1.653,0.277-2.859,0.877-3.638c0.782-1.051,1.865-1.574,3.261-1.565c1.404,0.009,2.321,0.543,3.09,1.604
			c0.582,0.785,0.689,1.995,0.679,3.647l-0.033,5.417c-0.01,1.643-0.137,2.86-0.728,3.633c-0.782,1.049-1.793,1.572-3.197,1.564
			c-1.396-0.008-2.421-0.544-3.19-1.603c-0.591-0.78-0.802-1.999-0.792-3.642L34.172,20.637z M26.697,10.263l2.157,8.162
			l2.168-8.136l3.142,0.019l-3.958,12.324l-0.051,8.409l-2.965-0.018l0.051-8.409c0.009-1.49-0.879-3.677-1.857-6.577
			c-0.644-1.929-1.313-3.867-1.956-5.794L26.697,10.263z M60.799,60.838c-0.575,2.437-2.583,4.224-4.986,4.478
			c-5.694,0.601-11.453,0.569-17.185,0.531c-5.734-0.031-11.492-0.07-17.178-0.74c-2.401-0.283-4.384-2.094-4.93-4.538
			c-0.778-3.48-0.755-7.273-0.733-10.851c0.022-3.579,0.054-7.371,0.875-10.843c0.575-2.435,2.581-4.222,4.985-4.476
			c5.693-0.602,11.452-0.569,17.185-0.532c5.733,0.033,11.491,0.07,17.178,0.742c2.4,0.283,4.385,2.094,4.931,4.536
			c0.778,3.482,0.751,7.273,0.729,10.853C61.648,53.574,61.62,57.368,60.799,60.838z"/>
		<path fill-rule="evenodd" clip-rule="evenodd" fill="#00A1E8" d="M28.92,42.077l0.018-2.892l-9.667-0.059l-0.018,2.892l3.262,0.02
			l-0.107,17.647l3.084,0.019l0.107-17.647L28.92,42.077z M34.416,59.758l0.01-1.67c-1.109,1.258-2.16,1.867-3.179,1.861
			c-0.894-0.005-1.507-0.372-1.78-1.15c-0.15-0.464-0.237-1.195-0.23-2.276l0.074-12.101l2.771,0.017l-0.069,11.267
			c-0.004,0.649-0.006,0.988,0.02,1.077c0.064,0.431,0.274,0.65,0.645,0.653c0.556,0.003,1.141-0.422,1.761-1.287l0.071-11.695
			l2.775,0.017l-0.093,15.303L34.416,59.758z M44.979,55.448c-0.008,1.382-0.419,2.061-1.219,2.056
			c-0.456-0.003-0.917-0.224-1.377-0.69l0.057-9.328c0.466-0.453,0.93-0.668,1.385-0.665c0.8,0.005,1.202,0.716,1.194,2.096
			L44.979,55.448z M47.752,55.247l0.037-6.095c0.009-1.448-0.08-2.46-0.26-3.077c-0.364-1.149-1.101-1.735-2.207-1.741
			c-1.019-0.006-1.973,0.546-2.874,1.643l0.041-6.709l-2.773-0.017L39.591,59.79l2.773,0.017l0.009-1.485
			c0.919,1.152,1.868,1.706,2.854,1.712c1.105,0.007,1.85-0.57,2.228-1.707C47.643,57.681,47.744,56.662,47.752,55.247z
			 M55.475,50.431l-2.772-0.017l0.009-1.415c0.009-1.415,0.476-2.121,1.403-2.115c0.918,0.006,1.378,0.717,1.369,2.132
			L55.475,50.431z M58.219,55.007l0.002-0.405l-2.83-0.017c-0.007,1.112-0.045,1.728-0.071,1.878
			c-0.163,0.74-0.564,1.109-1.246,1.104c-0.952-0.006-1.411-0.715-1.402-2.132l0.017-2.712l5.544,0.034l0.019-3.17
			c0.01-1.635-0.261-2.832-0.836-3.61c-0.77-1.053-1.871-1.581-3.262-1.589c-1.415-0.009-2.523,0.506-3.33,1.549
			c-0.594,0.771-0.869,1.964-0.879,3.599l-0.033,5.361c-0.01,1.626,0.285,2.836,0.869,3.604c0.795,1.049,1.895,1.579,3.347,1.588
			c1.448,0.009,2.588-0.533,3.363-1.638c0.339-0.49,0.56-1.045,0.658-1.658C58.176,56.515,58.214,55.899,58.219,55.007z"/>
	</g>
</g>
</svg>
