<?xml version="1.0" encoding="utf-8"?>
<!-- Generator: Adobe Illustrator 17.0.0, SVG Export Plug-In . SVG Version: 6.00 Build 0)  -->
<!DOCTYPE svg PUBLIC "-//W3C//DTD SVG 1.1//EN" "http://www.w3.org/Graphics/SVG/1.1/DTD/svg11.dtd">
<svg version="1.1" id="Layer_1" xmlns="http://www.w3.org/2000/svg" xmlns:xlink="http://www.w3.org/1999/xlink" x="0px" y="0px"
	 width="77.394px" height="77.394px" viewBox="0 0 77.394 77.394" enable-background="new 0 0 77.394 77.394" xml:space="preserve">
<path fill="#2A9FD9" d="M38.697,0C17.325,0,0,17.325,0,38.697s17.325,38.697,38.697,38.697s38.697-17.325,38.697-38.697
	S60.068,0,38.697,0z M59.335,29.668c0.022,0.456,0,0.83,0,1.29c0,13.993-10.191,30.957-29.668,30.957
	c-5.978,0-12.083-3.441-16.769-6.449c0.828,0.099,11.609,0,15.479-3.87c-4.629-0.084-8.01-2.927-9.358-7.134
	c0,0,3.611,0.685,4.901-0.605c-4.842-0.974-8.327-4.831-8.327-9.96c0-0.046,0-0.089,0-0.134c0,0.79,2.719,1.008,4.457,1.064
	c-2.839-1.898-4.221-5.361-4.221-9.029c0-1.944,0.206-3.597,1.114-5.16c5.226,6.407,13.043,11.169,21.84,11.609
	c-0.178-0.774-0.4-1.816-0.4-2.647c0-5.848,4.739-10.587,10.584-10.587c3.043,0,5.796,1.286,7.727,3.344
	c2.416-0.47,3.935-0.43,6.515-3.009c0,2.58-2.266,4.986-4.448,6.296c0,0,3.833-0.29,5.734-1.137
	C63.073,26.634,61.408,28.177,59.335,29.668z"/>
</svg>
