<?xml version="1.0" encoding="utf-8"?>
<!-- Generator: Adobe Illustrator 17.0.0, SVG Export Plug-In . SVG Version: 6.00 Build 0)  -->
<!DOCTYPE svg PUBLIC "-//W3C//DTD SVG 1.1//EN" "http://www.w3.org/Graphics/SVG/1.1/DTD/svg11.dtd">
<svg version="1.1" id="Layer_1" xmlns="http://www.w3.org/2000/svg" xmlns:xlink="http://www.w3.org/1999/xlink" x="0px" y="0px"
	 width="77.394px" height="77.394px" viewBox="-107.786 36.849 77.394 77.394"
	 enable-background="new -107.786 36.849 77.394 77.394" xml:space="preserve">
<g>
	<g>
		<path fill="#00A1E8" d="M-69.089,36.849c-21.371,0-38.697,17.325-38.697,38.697s17.325,38.697,38.697,38.697
			s38.697-17.325,38.697-38.697S-47.717,36.849-69.089,36.849z"/>
		<g>
			<path fill="#FFFFFF" d="M-51.673,95.552c0,1.657-1.343,3-3,3h-28c-1.657,0-3-1.343-3-3v-35c0-1.657,1.343-3,3-3h28
				c1.657,0,3,1.343,3,3V95.552z"/>
		</g>
		<g>
			<path fill="#FFFFFF" d="M-63.102,53.052c0,1.2-1.35,2.5-3,2.5h-6c-1.65,0-3-1.3-3-2.5s1.35-2.5,3-2.5h6
				C-64.452,50.552-63.102,51.852-63.102,53.052z"/>
		</g>
		<g>
			<path fill="#FFFFFF" d="M-65.284,57.052c0,1.5-1.35,2.5-3,2.5h-1.636c-1.65,0-3-1-3-2.5s1.35-2.5,3-2.5h1.636
				C-66.634,54.552-65.284,55.552-65.284,57.052z"/>
		</g>
		<g>
			
				<rect x="-78.087" y="71.991" transform="matrix(0.7071 0.7071 -0.7071 0.7071 31.6113 77.3812)" opacity="0.2" fill="#00A1E8" width="0.971" height="9.715"/>
			
				<rect x="-78.087" y="71.991" transform="matrix(-0.7071 0.7071 -0.7071 -0.7071 -78.134 186.0619)" opacity="0.2" fill="#00A1E8" width="0.971" height="9.715"/>
		</g>
		<g>
			
				<rect x="-69.087" y="71.991" transform="matrix(0.7071 0.7071 -0.7071 0.7071 34.2474 71.0173)" opacity="0.2" fill="#00A1E8" width="0.971" height="9.715"/>
			
				<rect x="-69.087" y="71.991" transform="matrix(-0.7071 0.7071 -0.7071 -0.7071 -62.7701 179.698)" opacity="0.2" fill="#00A1E8" width="0.971" height="9.715"/>
		</g>
		<g>
			
				<rect x="-60.087" y="71.991" transform="matrix(0.7071 0.7071 -0.7071 0.7071 36.8834 64.6533)" opacity="0.2" fill="#00A1E8" width="0.971" height="9.715"/>
			
				<rect x="-60.087" y="71.991" transform="matrix(-0.7071 0.7071 -0.7071 -0.7071 -47.4061 173.334)" opacity="0.2" fill="#00A1E8" width="0.971" height="9.715"/>
		</g>
	</g>
</g>
</svg>
