<?xml version="1.0" encoding="utf-8"?>
<!-- Generator: Adobe Illustrator 17.0.0, SVG Export Plug-In . SVG Version: 6.00 Build 0)  -->
<!DOCTYPE svg PUBLIC "-//W3C//DTD SVG 1.1//EN" "http://www.w3.org/Graphics/SVG/1.1/DTD/svg11.dtd">
<svg version="1.1" id="Layer_1" xmlns="http://www.w3.org/2000/svg" xmlns:xlink="http://www.w3.org/1999/xlink" x="0px" y="0px"
	 width="322.454px" height="273.86px" viewBox="0 0 322.454 273.86" enable-background="new 0 0 322.454 273.86"
	 xml:space="preserve">
<g>
	<path fill="#FFFFFF" d="M100.455,27.387l10.203-22.366c0.1-0.2,0.399-0.366,0.565-0.366h0.332c0.167,0,0.466,0.166,0.565,0.366
		l10.136,22.366c0.199,0.432-0.067,0.864-0.565,0.864h-2.094c-0.399,0-0.632-0.199-0.765-0.498l-2.061-4.553h-10.867
		c-0.665,1.529-1.363,3.024-2.027,4.553c-0.1,0.232-0.365,0.498-0.764,0.498h-2.094C100.521,28.25,100.255,27.819,100.455,27.387z
		 M115.51,20.341l-4.088-9.106h-0.166l-4.055,9.106H115.51z"/>
	<path fill="#FFFFFF" d="M132.893,5.619c0-0.333,0.266-0.631,0.631-0.631h7.444c4.021,0,6.913,2.659,6.913,6.148
		c0,2.559-1.895,4.387-3.456,5.284c1.761,0.731,4.154,2.36,4.154,5.417c0,3.723-3.057,6.414-7.245,6.414h-7.81
		c-0.366,0-0.631-0.299-0.631-0.631V5.619z M141.301,25.193c2.027,0,3.589-1.562,3.589-3.623c0-2.027-1.927-3.489-4.087-3.489
		h-4.553v7.112H141.301z M140.769,15.09c2.127,0,3.423-1.562,3.423-3.556c0-2.027-1.296-3.423-3.423-3.423h-4.487v6.979H140.769z"/>
	<path fill="#FFFFFF" d="M153.565,5.619c0-0.333,0.266-0.631,0.631-0.631h2.193c0.333,0,0.631,0.299,0.631,0.631V25.16h9.007
		c0.365,0,0.631,0.299,0.631,0.631v1.828c0,0.333-0.266,0.631-0.631,0.631h-11.832c-0.366,0-0.631-0.299-0.631-0.631V5.619z"/>
	<path fill="#FFFFFF" d="M180.153,4.655c6.647,0,11.965,5.351,11.965,11.998c0,6.646-5.317,11.931-11.965,11.931
		c-6.646,0-11.931-5.284-11.931-11.931C168.223,10.005,173.507,4.655,180.153,4.655z M180.153,25.26
		c4.753,0,8.641-3.855,8.641-8.607c0-4.719-3.888-8.674-8.641-8.674c-4.719,0-8.607,3.955-8.607,8.674
		C171.546,21.405,175.435,25.26,180.153,25.26z"/>
	<path fill="#FFFFFF" d="M207.142,4.655c3.19,0,5.815,1.163,8.075,3.091c0.267,0.266,0.3,0.665,0.033,0.931
		c-0.498,0.532-0.997,1.03-1.495,1.562c-0.266,0.299-0.531,0.266-0.864-0.033c-1.562-1.362-3.622-2.26-5.649-2.26
		c-4.719,0-8.342,3.988-8.342,8.641c0,4.62,3.623,8.608,8.342,8.608c2.758,0,4.652-0.997,4.985-1.13v-3.722h-3.257
		c-0.366,0-0.632-0.266-0.632-0.599v-1.927c0-0.366,0.266-0.631,0.632-0.631h6.048c0.333,0,0.599,0.299,0.599,0.631
		c0,2.659,0.033,5.384,0.033,8.042c0,0.166-0.133,0.432-0.266,0.532c0,0-3.424,2.193-8.242,2.193
		c-6.613,0-11.964-5.284-11.964-11.931C195.178,10.005,200.528,4.655,207.142,4.655z"/>
	<path fill="#FFFFFF" d="M69.994,61.502c0-0.333,0.266-0.631,0.631-0.631h2.193c0.333,0,0.631,0.299,0.631,0.631v19.542h9.006
		c0.366,0,0.631,0.299,0.631,0.631v1.828c0,0.333-0.266,0.631-0.631,0.631H70.625c-0.366,0-0.631-0.299-0.631-0.631V61.502z"/>
	<path fill="#FFFFFF" d="M86.579,61.502c0-0.333,0.299-0.631,0.631-0.631h2.194c0.332,0,0.631,0.299,0.631,0.631v22
		c0,0.333-0.299,0.631-0.631,0.631H87.21c-0.332,0-0.631-0.299-0.631-0.631V61.502z"/>
	<path fill="#FFFFFF" d="M96.483,61.668c0-0.432,0.333-0.797,0.797-0.797h1.928c0.432,0,0.798,0.366,0.798,0.797v9.206l9.372-9.671
		c0.133-0.167,0.366-0.333,0.631-0.333h2.493c0.598,0,0.931,0.698,0.465,1.196l-9.604,9.771l10.169,11.199
		c0.266,0.333,0.1,1.097-0.598,1.097h-2.659c-0.333,0-0.532-0.133-0.598-0.232l-9.671-10.9v10.335c0,0.432-0.366,0.797-0.798,0.797
		H97.28c-0.465,0-0.797-0.365-0.797-0.797V61.668z"/>
	<path fill="#FFFFFF" d="M117.455,61.502c0-0.333,0.266-0.631,0.631-0.631h13.293c0.365,0,0.631,0.299,0.631,0.631v1.861
		c0,0.332-0.266,0.631-0.631,0.631h-10.502v6.78h8.874c0.333,0,0.631,0.299,0.631,0.631v1.861c0,0.366-0.299,0.631-0.631,0.631
		h-8.874v7.146h10.502c0.365,0,0.631,0.299,0.631,0.631v1.828c0,0.333-0.266,0.631-0.631,0.631h-13.293
		c-0.366,0-0.631-0.299-0.631-0.631V61.502z"/>
	<path fill="#FFFFFF" d="M154.578,60.539c6.647,0,11.964,5.351,11.964,11.998c0,6.646-5.317,11.931-11.964,11.931
		c-6.646,0-11.931-5.284-11.931-11.931C142.647,65.889,147.932,60.539,154.578,60.539z M154.578,81.144
		c4.752,0,8.641-3.855,8.641-8.607c0-4.719-3.888-8.674-8.641-8.674c-4.719,0-8.607,3.955-8.607,8.674
		C145.971,77.289,149.859,81.144,154.578,81.144z"/>
	<path fill="#FFFFFF" d="M174.155,63.995h-5.417c-0.366,0-0.632-0.299-0.632-0.631v-1.861c0-0.333,0.266-0.631,0.632-0.631h14.29
		c0.365,0,0.632,0.299,0.632,0.631v1.861c0,0.332-0.267,0.631-0.632,0.631h-5.417v19.508c0,0.333-0.299,0.631-0.632,0.631h-2.193
		c-0.332,0-0.631-0.299-0.631-0.631V63.995z"/>
	<path fill="#FFFFFF" d="M187.25,61.502c0-0.333,0.299-0.631,0.632-0.631h2.193c0.365,0,0.631,0.299,0.631,0.631v9.272h12.164
		v-9.272c0-0.333,0.266-0.631,0.631-0.631h2.193c0.333,0,0.632,0.299,0.632,0.631v22c0,0.333-0.299,0.631-0.632,0.631h-2.193
		c-0.365,0-0.631-0.299-0.631-0.631v-9.604h-12.164v9.604c0,0.333-0.266,0.631-0.631,0.631h-2.193c-0.333,0-0.632-0.299-0.632-0.631
		V61.502z"/>
	<path fill="#FFFFFF" d="M212.775,61.502c0-0.333,0.266-0.631,0.632-0.631H226.7c0.365,0,0.632,0.299,0.632,0.631v1.861
		c0,0.332-0.267,0.631-0.632,0.631h-10.502v6.78h8.874c0.332,0,0.631,0.299,0.631,0.631v1.861c0,0.366-0.299,0.631-0.631,0.631
		h-8.874v7.146H226.7c0.365,0,0.632,0.299,0.632,0.631v1.828c0,0.333-0.267,0.631-0.632,0.631h-13.293
		c-0.366,0-0.632-0.299-0.632-0.631V61.502z"/>
	<path fill="#FFFFFF" d="M232.352,61.502c0-0.333,0.266-0.631,0.631-0.631h9.04c3.988,0,7.245,3.157,7.245,7.112
		c0,3.058-2.027,5.583-4.919,6.747l4.553,8.441c0.233,0.432,0,0.963-0.564,0.963h-2.593c-0.266,0-0.465-0.166-0.531-0.299
		l-4.42-8.807h-5.019v8.474c0,0.333-0.299,0.631-0.632,0.631h-2.16c-0.365,0-0.631-0.299-0.631-0.631V61.502z M241.757,72.17
		c2.16,0,4.054-1.828,4.054-4.121c0-2.16-1.894-3.955-4.054-3.955h-5.916v8.076H241.757z"/>
	<path fill="#FFFFFF" d="M16.383,116.422c3.357,0,5.783,1.13,8.042,3.091c0.299,0.266,0.299,0.665,0.033,0.931l-1.462,1.495
		c-0.233,0.299-0.532,0.299-0.831,0c-1.562-1.362-3.689-2.227-5.75-2.227c-4.752,0-8.341,3.988-8.341,8.641
		c0,4.653,3.622,8.607,8.375,8.607c2.426,0,4.121-0.963,5.716-2.193c0.299-0.232,0.598-0.199,0.798-0.033l1.529,1.496
		c0.266,0.232,0.199,0.664-0.034,0.896c-2.26,2.194-5.118,3.225-8.076,3.225c-6.646,0-11.997-5.285-11.997-11.931
		C4.386,121.773,9.737,116.422,16.383,116.422z"/>
	<path fill="#FFFFFF" d="M39.35,116.422c6.647,0,11.964,5.351,11.964,11.998c0,6.646-5.317,11.931-11.964,11.931
		c-6.646,0-11.931-5.285-11.931-11.931C27.419,121.773,32.704,116.422,39.35,116.422z M39.35,137.027
		c4.752,0,8.641-3.854,8.641-8.607c0-4.719-3.888-8.674-8.641-8.674c-4.719,0-8.607,3.955-8.607,8.674
		C30.743,133.172,34.631,137.027,39.35,137.027z"/>
	<path fill="#FFFFFF" d="M58.594,116.921c0.067-0.266,0.333-0.499,0.598-0.499h0.532c0.199,0,0.498,0.166,0.564,0.366l6.946,16.982
		h0.133l6.913-16.982c0.066-0.2,0.333-0.366,0.565-0.366h0.532c0.266,0,0.532,0.232,0.598,0.499l4.088,22.333
		c0.1,0.466-0.133,0.765-0.599,0.765h-2.16c-0.299,0-0.564-0.232-0.631-0.465l-2.459-14.855c-0.033,0-0.1,0-0.1,0l-5.982,15.287
		c-0.066,0.199-0.266,0.366-0.565,0.366h-0.598c-0.266,0-0.499-0.167-0.565-0.366l-6.015-15.287c-0.033,0-0.1,0-0.133,0
		l-2.393,14.855c-0.033,0.232-0.333,0.465-0.598,0.465h-2.16c-0.465,0-0.698-0.299-0.631-0.765L58.594,116.921z"/>
	<path fill="#FFFFFF" d="M84.951,117.386c0-0.333,0.266-0.631,0.631-0.631h7.577c4.088,0,7.444,3.323,7.444,7.344
		c0,4.121-3.356,7.478-7.411,7.478h-4.818v7.811c0,0.332-0.299,0.631-0.632,0.631h-2.16c-0.365,0-0.631-0.299-0.631-0.631V117.386z
		 M92.96,128.32c2.293,0,4.221-1.861,4.221-4.254c0-2.26-1.928-3.988-4.221-3.988h-4.586v8.242H92.96z"/>
	<path fill="#FFFFFF" d="M100.439,139.154l10.203-22.366c0.1-0.2,0.399-0.366,0.565-0.366h0.332c0.166,0,0.465,0.166,0.565,0.366
		l10.136,22.366c0.199,0.433-0.066,0.864-0.565,0.864h-2.094c-0.399,0-0.631-0.199-0.764-0.498l-2.061-4.553H105.89
		c-0.665,1.529-1.363,3.024-2.027,4.553c-0.1,0.232-0.366,0.498-0.765,0.498h-2.094C100.505,140.018,100.24,139.586,100.439,139.154
		z M115.494,132.109l-4.088-9.106h-0.166l-4.055,9.106H115.494z"/>
	<path fill="#FFFFFF" d="M125.565,117.021c0-0.333,0.299-0.598,0.631-0.598h0.831l14.423,16.684h0.033v-15.72
		c0-0.333,0.266-0.631,0.631-0.631h2.127c0.333,0,0.632,0.299,0.632,0.631v22.366c0,0.332-0.299,0.599-0.632,0.599h-0.864
		l-14.423-17.149h-0.033v16.185c0,0.332-0.266,0.631-0.632,0.631h-2.093c-0.333,0-0.631-0.299-0.631-0.631V117.021z"/>
	<path fill="#FFFFFF" d="M151.323,117.386c0-0.333,0.299-0.631,0.631-0.631h2.193c0.333,0,0.631,0.299,0.631,0.631v22.001
		c0,0.332-0.299,0.631-0.631,0.631h-2.193c-0.333,0-0.631-0.299-0.631-0.631V117.386z"/>
	<path fill="#FFFFFF" d="M161.228,117.386c0-0.333,0.266-0.631,0.631-0.631h13.293c0.365,0,0.631,0.299,0.631,0.631v1.861
		c0,0.332-0.266,0.631-0.631,0.631H164.65v6.78h8.873c0.333,0,0.632,0.299,0.632,0.631v1.861c0,0.366-0.299,0.631-0.632,0.631
		h-8.873v7.145h10.502c0.365,0,0.631,0.3,0.631,0.632v1.828c0,0.332-0.266,0.631-0.631,0.631h-13.293
		c-0.366,0-0.631-0.299-0.631-0.631V117.386z"/>
	<path fill="#FFFFFF" d="M179.308,136.662c0.299-0.432,0.565-0.931,0.864-1.362c0.299-0.432,0.765-0.565,1.13-0.266
		c0.199,0.167,2.758,2.293,5.317,2.293c2.293,0,3.755-1.396,3.755-3.091c0-1.994-1.728-3.257-5.018-4.62
		c-3.39-1.429-6.049-3.19-6.049-7.045c0-2.592,1.994-6.148,7.278-6.148c3.323,0,5.815,1.729,6.148,1.961
		c0.266,0.166,0.531,0.631,0.199,1.13c-0.266,0.399-0.565,0.864-0.831,1.263c-0.266,0.432-0.698,0.632-1.163,0.333
		c-0.232-0.133-2.559-1.662-4.486-1.662c-2.792,0-3.756,1.761-3.756,2.991c0,1.894,1.463,3.057,4.221,4.187
		c3.855,1.562,7.146,3.39,7.146,7.444c0,3.457-3.091,6.282-7.411,6.282c-4.055,0-6.613-2.127-7.146-2.626
		C179.208,137.459,178.976,137.227,179.308,136.662z"/>
	<path fill="#FFFFFF" d="M196.956,125.329c-0.199-0.2-0.133-0.532,0.133-0.797c0.332-0.266,2.16-1.729,2.16-4.121
		c-0.066,0.033-0.365,0.1-0.698,0.1c-1.13,0-2.061-0.897-2.061-2.027c0-1.163,0.931-2.061,2.127-2.061
		c1.13,0,2.493,0.698,2.493,3.257c0,3.024-1.928,5.218-2.892,6.082c-0.299,0.266-0.565,0.266-0.798,0.033L196.956,125.329z"/>
	<path fill="#FFFFFF" d="M212.543,117.386c0-0.333,0.266-0.631,0.632-0.631h7.444c4.021,0,6.912,2.659,6.912,6.148
		c0,2.559-1.895,4.387-3.456,5.284c1.762,0.731,4.154,2.36,4.154,5.417c0,3.723-3.058,6.414-7.245,6.414h-7.81
		c-0.366,0-0.632-0.299-0.632-0.631V117.386z M220.951,136.96c2.027,0,3.589-1.562,3.589-3.622c0-2.027-1.928-3.489-4.088-3.489
		h-4.553v7.111H220.951z M220.419,126.858c2.127,0,3.424-1.562,3.424-3.556c0-2.027-1.297-3.423-3.424-3.423h-4.486v6.979H220.419z"
		/>
	<path fill="#FFFFFF" d="M233.216,117.386c0-0.333,0.266-0.631,0.632-0.631h2.193c0.332,0,0.631,0.299,0.631,0.631v19.541h9.007
		c0.365,0,0.631,0.3,0.631,0.632v1.828c0,0.332-0.266,0.631-0.631,0.631h-11.831c-0.366,0-0.632-0.299-0.632-0.631V117.386z"/>
	<path fill="#FFFFFF" d="M259.805,116.422c6.646,0,11.964,5.351,11.964,11.998c0,6.646-5.317,11.931-11.964,11.931
		c-6.647,0-11.932-5.285-11.932-11.931C247.873,121.773,253.157,116.422,259.805,116.422z M259.805,137.027
		c4.752,0,8.641-3.854,8.641-8.607c0-4.719-3.889-8.674-8.641-8.674c-4.72,0-8.607,3.955-8.607,8.674
		C251.197,133.172,255.085,137.027,259.805,137.027z"/>
	<path fill="#FFFFFF" d="M286.792,116.422c3.19,0,5.815,1.163,8.076,3.091c0.266,0.266,0.299,0.665,0.033,0.931
		c-0.499,0.532-0.997,1.03-1.496,1.562c-0.266,0.299-0.531,0.266-0.864-0.033c-1.562-1.362-3.622-2.26-5.649-2.26
		c-4.719,0-8.342,3.988-8.342,8.641c0,4.62,3.623,8.607,8.342,8.607c2.759,0,4.652-0.996,4.985-1.13v-3.722h-3.257
		c-0.366,0-0.632-0.266-0.632-0.599v-1.927c0-0.366,0.266-0.631,0.632-0.631h6.048c0.333,0,0.599,0.299,0.599,0.631
		c0,2.659,0.033,5.384,0.033,8.042c0,0.166-0.133,0.432-0.266,0.532c0,0-3.424,2.193-8.242,2.193
		c-6.613,0-11.964-5.285-11.964-11.931C274.828,121.773,280.179,116.422,286.792,116.422z"/>
	<path fill="#FFFFFF" d="M299.023,136.662c0.299-0.432,0.565-0.931,0.864-1.362c0.299-0.432,0.764-0.565,1.13-0.266
		c0.199,0.167,2.759,2.293,5.317,2.293c2.293,0,3.755-1.396,3.755-3.091c0-1.994-1.728-3.257-5.018-4.62
		c-3.39-1.429-6.049-3.19-6.049-7.045c0-2.592,1.994-6.148,7.278-6.148c3.323,0,5.815,1.729,6.148,1.961
		c0.266,0.166,0.531,0.631,0.199,1.13c-0.266,0.399-0.565,0.864-0.831,1.263c-0.266,0.432-0.698,0.632-1.163,0.333
		c-0.232-0.133-2.559-1.662-4.486-1.662c-2.792,0-3.756,1.761-3.756,2.991c0,1.894,1.463,3.057,4.221,4.187
		c3.855,1.562,7.146,3.39,7.146,7.444c0,3.457-3.091,6.282-7.411,6.282c-4.055,0-6.613-2.127-7.146-2.626
		C298.924,137.459,298.691,137.227,299.023,136.662z"/>
	<path fill="#FFFFFF" d="M45.283,173.27c0-0.333,0.266-0.632,0.631-0.632h13.293c0.366,0,0.631,0.299,0.631,0.632v1.861
		c0,0.332-0.266,0.631-0.631,0.631H48.706v6.78h8.873c0.333,0,0.631,0.299,0.631,0.631v1.861c0,0.365-0.299,0.631-0.631,0.631
		h-8.873v7.146h10.501c0.366,0,0.631,0.3,0.631,0.632v1.828c0,0.332-0.266,0.631-0.631,0.631H45.914
		c-0.365,0-0.631-0.299-0.631-0.631V173.27z"/>
	<path fill="#FFFFFF" d="M69.645,183.971l-6.581-10.402c-0.266-0.432,0-0.931,0.565-0.931h2.825c0.232,0,0.465,0.133,0.565,0.299
		l4.686,7.943h0.033l4.752-7.943c0.066-0.133,0.266-0.299,0.532-0.299h2.825c0.565,0,0.831,0.499,0.565,0.931l-6.58,10.402l6.812,11
		c0.266,0.466,0,0.931-0.565,0.931h-2.559c-0.266,0-0.498-0.166-0.565-0.299l-5.217-8.508h-0.067l-5.151,8.508
		c-0.1,0.133-0.299,0.299-0.565,0.299h-2.559c-0.598,0-0.864-0.498-0.598-0.931L69.645,183.971z"/>
	<path fill="#FFFFFF" d="M95.07,172.306c3.356,0,5.783,1.13,8.042,3.091c0.299,0.266,0.299,0.665,0.033,0.931l-1.462,1.495
		c-0.232,0.299-0.532,0.299-0.831,0c-1.562-1.362-3.689-2.227-5.75-2.227c-4.752,0-8.342,3.988-8.342,8.641
		c0,4.653,3.623,8.607,8.375,8.607c2.426,0,4.121-0.964,5.716-2.193c0.299-0.232,0.598-0.199,0.797-0.033l1.529,1.495
		c0.266,0.233,0.199,0.665-0.033,0.897c-2.26,2.194-5.118,3.224-8.076,3.224c-6.647,0-11.998-5.283-11.998-11.931
		C83.072,177.657,88.423,172.306,95.07,172.306z"/>
	<path fill="#FFFFFF" d="M107.9,173.27c0-0.333,0.266-0.632,0.631-0.632h13.293c0.366,0,0.631,0.299,0.631,0.632v1.861
		c0,0.332-0.266,0.631-0.631,0.631h-10.502v6.78h8.874c0.332,0,0.631,0.299,0.631,0.631v1.861c0,0.365-0.299,0.631-0.631,0.631
		h-8.874v7.146h10.502c0.366,0,0.631,0.3,0.631,0.632v1.828c0,0.332-0.266,0.631-0.631,0.631h-13.293
		c-0.366,0-0.631-0.299-0.631-0.631V173.27z"/>
	<path fill="#FFFFFF" d="M127.476,173.27c0-0.333,0.266-0.632,0.632-0.632h7.577c4.088,0,7.444,3.323,7.444,7.345
		c0,4.121-3.356,7.478-7.411,7.478h-4.819v7.811c0,0.332-0.299,0.631-0.631,0.631h-2.16c-0.366,0-0.632-0.299-0.632-0.631V173.27z
		 M135.485,184.204c2.293,0,4.221-1.861,4.221-4.254c0-2.26-1.927-3.988-4.221-3.988h-4.586v8.242H135.485z"/>
	<path fill="#FFFFFF" d="M150.408,175.762h-5.417c-0.365,0-0.631-0.299-0.631-0.631v-1.861c0-0.333,0.266-0.632,0.631-0.632h14.291
		c0.366,0,0.631,0.299,0.631,0.632v1.861c0,0.332-0.266,0.631-0.631,0.631h-5.417v19.509c0,0.332-0.299,0.631-0.631,0.631h-2.193
		c-0.333,0-0.632-0.299-0.632-0.631V175.762z"/>
	<path fill="#FFFFFF" d="M168.688,173.436c-0.133-0.466,0.133-0.798,0.598-0.798h2.227c0.266,0,0.532,0.232,0.599,0.466
		l4.021,15.254h0.133l5.417-15.687c0.066-0.199,0.299-0.365,0.564-0.365h0.599c0.266,0,0.498,0.166,0.564,0.365l5.484,15.687h0.133
		l3.954-15.254c0.066-0.233,0.333-0.466,0.599-0.466h2.227c0.466,0,0.731,0.332,0.599,0.798l-6.281,22.333
		c-0.066,0.266-0.333,0.465-0.599,0.465h-0.531c-0.233,0-0.499-0.166-0.565-0.365l-5.849-16.518h-0.167l-5.749,16.518
		c-0.066,0.199-0.332,0.365-0.564,0.365h-0.532c-0.266,0-0.531-0.199-0.598-0.465L168.688,173.436z"/>
	<path fill="#FFFFFF" d="M200.628,173.27c0-0.333,0.266-0.632,0.632-0.632h13.293c0.366,0,0.632,0.299,0.632,0.632v1.861
		c0,0.332-0.266,0.631-0.632,0.631h-10.501v6.78h8.873c0.332,0,0.631,0.299,0.631,0.631v1.861c0,0.365-0.299,0.631-0.631,0.631
		h-8.873v7.146h10.501c0.366,0,0.632,0.3,0.632,0.632v1.828c0,0.332-0.266,0.631-0.632,0.631H201.26
		c-0.366,0-0.632-0.299-0.632-0.631V173.27z"/>
	<path fill="#FFFFFF" d="M227.516,173.27c0-0.333,0.266-0.632,0.599-0.632h7.644c6.414,0,11.665,5.218,11.665,11.599
		c0,6.447-5.251,11.665-11.665,11.665h-7.644c-0.333,0-0.599-0.299-0.599-0.631V173.27z M235.292,192.745
		c4.886,0,8.441-3.589,8.441-8.508c0-4.886-3.556-8.441-8.441-8.441h-4.387v16.949H235.292z"/>
	<path fill="#FFFFFF" d="M262.446,172.306c6.646,0,11.964,5.351,11.964,11.997c0,6.647-5.317,11.931-11.964,11.931
		s-11.931-5.283-11.931-11.931C250.516,177.657,255.8,172.306,262.446,172.306z M262.446,192.911c4.752,0,8.641-3.854,8.641-8.607
		c0-4.719-3.889-8.674-8.641-8.674c-4.719,0-8.607,3.955-8.607,8.674C253.839,189.056,257.728,192.911,262.446,192.911z"/>
	<path fill="#FFFFFF" d="M90.833,231.646h-5.417c-0.366,0-0.632-0.299-0.632-0.631v-1.861c0-0.332,0.266-0.632,0.632-0.632h14.29
		c0.366,0,0.632,0.3,0.632,0.632v1.861c0,0.332-0.266,0.631-0.632,0.631h-5.417v19.508c0,0.333-0.299,0.632-0.631,0.632h-2.193
		c-0.333,0-0.631-0.299-0.631-0.632V231.646z"/>
	<path fill="#FFFFFF" d="M103.928,229.154c0-0.332,0.299-0.632,0.632-0.632h2.193c0.365,0,0.631,0.3,0.631,0.632v9.271h12.164
		v-9.271c0-0.332,0.266-0.632,0.631-0.632h2.193c0.333,0,0.631,0.3,0.631,0.632v22c0,0.333-0.299,0.632-0.631,0.632h-2.193
		c-0.366,0-0.631-0.299-0.631-0.632v-9.604h-12.164v9.604c0,0.333-0.266,0.632-0.631,0.632h-2.193c-0.333,0-0.632-0.299-0.632-0.632
		V229.154z"/>
	<path fill="#FFFFFF" d="M129.453,229.154c0-0.332,0.299-0.632,0.632-0.632h2.193c0.332,0,0.631,0.3,0.631,0.632v22
		c0,0.333-0.299,0.632-0.631,0.632h-2.193c-0.333,0-0.632-0.299-0.632-0.632V229.154z"/>
	<path fill="#FFFFFF" d="M137.862,248.429c0.299-0.432,0.565-0.931,0.864-1.362c0.299-0.433,0.764-0.565,1.13-0.267
		c0.199,0.167,2.758,2.294,5.317,2.294c2.293,0,3.755-1.396,3.755-3.091c0-1.994-1.729-3.257-5.019-4.62
		c-3.39-1.429-6.048-3.19-6.048-7.045c0-2.593,1.994-6.148,7.278-6.148c3.323,0,5.816,1.728,6.148,1.961
		c0.266,0.166,0.532,0.631,0.2,1.13c-0.266,0.398-0.565,0.864-0.831,1.263c-0.266,0.433-0.698,0.632-1.163,0.332
		c-0.233-0.133-2.559-1.661-4.487-1.661c-2.792,0-3.755,1.762-3.755,2.991c0,1.894,1.462,3.058,4.221,4.187
		c3.855,1.562,7.146,3.391,7.146,7.445c0,3.456-3.091,6.281-7.411,6.281c-4.055,0-6.614-2.127-7.146-2.626
		C137.762,249.227,137.529,248.994,137.862,248.429z"/>
	<path fill="#FFFFFF" d="M174.752,228.19c6.647,0,11.965,5.351,11.965,11.997s-5.317,11.932-11.965,11.932
		c-6.646,0-11.931-5.285-11.931-11.932S168.105,228.19,174.752,228.19z M174.752,248.794c4.753,0,8.642-3.854,8.642-8.607
		c0-4.719-3.889-8.674-8.642-8.674c-4.719,0-8.607,3.955-8.607,8.674C166.145,244.94,170.033,248.794,174.752,248.794z"/>
	<path fill="#FFFFFF" d="M191.471,228.789c0-0.333,0.299-0.599,0.632-0.599h0.83l14.424,16.684h0.033v-15.72
		c0-0.332,0.266-0.632,0.632-0.632h2.127c0.332,0,0.631,0.3,0.631,0.632v22.366c0,0.332-0.299,0.599-0.631,0.599h-0.864
		l-14.424-17.149h-0.033v16.185c0,0.333-0.266,0.632-0.631,0.632h-2.094c-0.333,0-0.632-0.299-0.632-0.632V228.789z"/>
	<path fill="#FFFFFF" d="M217.229,229.154c0-0.332,0.267-0.632,0.632-0.632h13.293c0.366,0,0.632,0.3,0.632,0.632v1.861
		c0,0.332-0.266,0.631-0.632,0.631h-10.501v6.779h8.873c0.332,0,0.632,0.3,0.632,0.632v1.861c0,0.365-0.3,0.632-0.632,0.632h-8.873
		v7.145h10.501c0.366,0,0.632,0.299,0.632,0.632v1.827c0,0.333-0.266,0.632-0.632,0.632H217.86c-0.365,0-0.632-0.299-0.632-0.632
		V229.154z"/>
</g>
</svg>
