<?xml version="1.0" encoding="utf-8"?>
<!-- Generator: Adobe Illustrator 17.1.0, SVG Export Plug-In . SVG Version: 6.00 Build 0)  -->
<!DOCTYPE svg PUBLIC "-//W3C//DTD SVG 1.1//EN" "http://www.w3.org/Graphics/SVG/1.1/DTD/svg11.dtd">
<svg version="1.1" xmlns="http://www.w3.org/2000/svg" xmlns:xlink="http://www.w3.org/1999/xlink" x="0px" y="0px"
	 viewBox="0 0 447 199.82" enable-background="new 0 0 447 199.82" xml:space="preserve">
<g id="Layer_2">
</g>
<g id="Layer_1">
	<g>
		<path fill="#D47631" d="M447,197.82c0,1.1-0.9,2-2,2H2c-1.1,0-2-0.9-2-2c0-1.1,0.9-2,2-2h443C446.1,195.82,447,196.72,447,197.82z
			"/>
		<g>
			<g>
				<g>
					<path fill="#D47631" d="M309.03,141.82l0.15,2l0.15,2l3.72,50l0.22,3H319v-57H309.03z M315,168.15l-1.66-22.33l-0.15-2H315
						V168.15z"/>
				</g>
				<g>
					<path fill="#D47631" d="M135,141.82v57h5.77l0.22-3l3.71-50l0.15-2l0.15-2H135z M140.7,145.82l-1.7,22.84v-24.84h1.85
						L140.7,145.82z"/>
				</g>
				<g>
					<path fill="#FFEDBF" d="M129,135.82v8h68v-8H129z M193,141.82h-62v-4h62V141.82z"/>
					<path fill="#FFEDBF" d="M250,135.82v8h73v-8H250z M321,141.82h-67v-4h67V141.82z"/>
					<path fill="#D47631" d="M250,133.82v4h71v4h-71v4h75v-12H250z M127,133.82v12h70v-4h-66v-4h66v-4H127z"/>
				</g>
			</g>
			<g>
				<path fill="#F0F2CB" d="M222,174.82v14h5v-14H222z M225,186.82h-1v-8h1V186.82z"/>
				<path fill="#D47631" d="M225,174.82v12h-1v-12h-4v16h9v-16H225z"/>
			</g>
			<g>
				<path fill="none" d="M270,68.82h-91c-2.21,0-4,1.79-4,4v48c0,2.21,1.79,4,4,4h14v-4h-12.28c-0.36-0.31-0.68-0.65-0.97-1.02
					V73.84c0.29-0.37,0.61-0.71,0.97-1.02h87.56l0.85,0.87v46.26c-0.26,0.31-0.54,0.6-0.85,0.87c-1.41,1.24-3.26,2-5.28,2h-9v2h16
					c2.21,0,4-1.79,4-4v-48C274,70.61,272.21,68.82,270,68.82z M269.13,73.69l-0.85-0.87 M269.13,73.69l-0.85-0.87 M269.13,73.69
					l-0.85-0.87 M269.13,73.69l-0.85-0.87 M269.13,73.69l-0.85-0.87 M269.13,73.69l-0.85-0.87 M269.13,73.69l-0.85-0.87
					 M269.13,73.69l-0.85-0.87 M269.13,73.69l-0.85-0.87 M269.13,73.69l-0.85-0.87 M269.13,73.69l-0.85-0.87 M269.13,73.69
					l-0.85-0.87 M269.13,73.69l-0.85-0.87 M269.13,73.69l-0.85-0.87 M269.13,73.69l-0.85-0.87 M269.13,73.69l-0.85-0.87
					 M269.13,73.69l-0.85-0.87 M269.13,73.69l-0.85-0.87 M269.13,73.69l-0.85-0.87 M269.13,73.69l-0.85-0.87 M269.13,73.69
					l-0.85-0.87 M269.13,73.69l-0.85-0.87 M269.13,73.69l-0.85-0.87 M269.13,73.69l-0.85-0.87 M242,89.82h-3.94
					c-1.88-6.54-7.91-11.33-15.06-11.33s-13.18,4.79-15.06,11.33H205c-2.37,0-4.58,0.69-6.44,1.88h49.88
					C246.58,90.51,244.37,89.82,242,89.82z M242,89.82h-3.94c-1.88-6.54-7.91-11.33-15.06-11.33s-13.18,4.79-15.06,11.33H205
					c-2.37,0-4.58,0.69-6.44,1.88h49.88C246.58,90.51,244.37,89.82,242,89.82z M269.13,73.69v46.26c1.16-1.39,1.87-3.18,1.87-5.13
					v-36C271,76.87,270.29,75.08,269.13,73.69z M268.28,120.82h0.85v-0.87C268.87,120.26,268.59,120.55,268.28,120.82z M263,70.82
					h-77c-2.02,0-3.87,0.76-5.28,2h87.56C266.87,71.58,265.02,70.82,263,70.82z M180.72,120.82c1.41,1.24,3.26,2,5.28,2h7v-2H180.72
					z M179.75,72.82v1.02c0.29-0.37,0.61-0.71,0.97-1.02H179.75z M179.75,119.8v1.02h0.97C180.36,120.51,180.04,120.17,179.75,119.8
					z M178,78.82v36c0,1.88,0.66,3.61,1.75,4.98V73.84C178.66,75.21,178,76.94,178,78.82z M242,89.82h-3.94
					c-1.88-6.54-7.91-11.33-15.06-11.33s-13.18,4.79-15.06,11.33H205c-2.37,0-4.58,0.69-6.44,1.88h49.88
					C246.58,90.51,244.37,89.82,242,89.82z M269.13,73.69v46.26c1.16-1.39,1.87-3.18,1.87-5.13v-36
					C271,76.87,270.29,75.08,269.13,73.69z M268.28,120.82h0.85v-0.87C268.87,120.26,268.59,120.55,268.28,120.82z M263,70.82h-77
					c-2.02,0-3.87,0.76-5.28,2h87.56C266.87,71.58,265.02,70.82,263,70.82z M180.72,120.82c1.41,1.24,3.26,2,5.28,2h7v-2H180.72z
					 M179.75,72.82v1.02c0.29-0.37,0.61-0.71,0.97-1.02H179.75z M179.75,119.8v1.02h0.97C180.36,120.51,180.04,120.17,179.75,119.8z
					 M178,78.82v36c0,1.88,0.66,3.61,1.75,4.98V73.84C178.66,75.21,178,76.94,178,78.82z M242,89.82h-3.94
					c-1.88-6.54-7.91-11.33-15.06-11.33s-13.18,4.79-15.06,11.33H205c-2.37,0-4.58,0.69-6.44,1.88h49.88
					C246.58,90.51,244.37,89.82,242,89.82z M269.13,73.69v46.26c1.16-1.39,1.87-3.18,1.87-5.13v-36
					C271,76.87,270.29,75.08,269.13,73.69z M268.28,120.82h0.85v-0.87C268.87,120.26,268.59,120.55,268.28,120.82z M263,70.82h-77
					c-2.02,0-3.87,0.76-5.28,2h87.56C266.87,71.58,265.02,70.82,263,70.82z M180.72,120.82c1.41,1.24,3.26,2,5.28,2h7v-2H180.72z
					 M179.75,72.82v1.02c0.29-0.37,0.61-0.71,0.97-1.02H179.75z M179.75,119.8v1.02h0.97C180.36,120.51,180.04,120.17,179.75,119.8z
					 M178,78.82v36c0,1.88,0.66,3.61,1.75,4.98V73.84C178.66,75.21,178,76.94,178,78.82z M242,89.82h-3.94
					c-1.88-6.54-7.91-11.33-15.06-11.33s-13.18,4.79-15.06,11.33H205c-2.37,0-4.58,0.69-6.44,1.88h49.88
					C246.58,90.51,244.37,89.82,242,89.82z M269.13,73.69v46.26c1.16-1.39,1.87-3.18,1.87-5.13v-36
					C271,76.87,270.29,75.08,269.13,73.69z M268.28,120.82h0.85v-0.87C268.87,120.26,268.59,120.55,268.28,120.82z M263,70.82h-77
					c-2.02,0-3.87,0.76-5.28,2h87.56C266.87,71.58,265.02,70.82,263,70.82z M180.72,120.82c1.41,1.24,3.26,2,5.28,2h7v-2H180.72z
					 M179.75,72.82v1.02c0.29-0.37,0.61-0.71,0.97-1.02H179.75z M179.75,119.8v1.02h0.97C180.36,120.51,180.04,120.17,179.75,119.8z
					 M178,78.82v36c0,1.88,0.66,3.61,1.75,4.98V73.84C178.66,75.21,178,76.94,178,78.82z M242,89.82h-3.94
					c-1.88-6.54-7.91-11.33-15.06-11.33s-13.18,4.79-15.06,11.33H205c-2.37,0-4.58,0.69-6.44,1.88h49.88
					C246.58,90.51,244.37,89.82,242,89.82z M269.13,73.69v46.26c1.16-1.39,1.87-3.18,1.87-5.13v-36
					C271,76.87,270.29,75.08,269.13,73.69z M268.28,120.82h0.85v-0.87C268.87,120.26,268.59,120.55,268.28,120.82z M263,70.82h-77
					c-2.02,0-3.87,0.76-5.28,2h87.56C266.87,71.58,265.02,70.82,263,70.82z M180.72,120.82c1.41,1.24,3.26,2,5.28,2h7v-2H180.72z
					 M179.75,72.82v1.02c0.29-0.37,0.61-0.71,0.97-1.02H179.75z M179.75,119.8v1.02h0.97C180.36,120.51,180.04,120.17,179.75,119.8z
					 M178,78.82v36c0,1.88,0.66,3.61,1.75,4.98V73.84C178.66,75.21,178,76.94,178,78.82z M242,89.82h-3.94
					c-1.88-6.54-7.91-11.33-15.06-11.33s-13.18,4.79-15.06,11.33H205c-2.37,0-4.58,0.69-6.44,1.88h49.88
					C246.58,90.51,244.37,89.82,242,89.82z M269.13,73.69v46.26c1.16-1.39,1.87-3.18,1.87-5.13v-36
					C271,76.87,270.29,75.08,269.13,73.69z M268.28,120.82h0.85v-0.87C268.87,120.26,268.59,120.55,268.28,120.82z M263,70.82h-77
					c-2.02,0-3.87,0.76-5.28,2h87.56C266.87,71.58,265.02,70.82,263,70.82z M180.72,120.82c1.41,1.24,3.26,2,5.28,2h7v-2H180.72z
					 M179.75,72.82v1.02c0.29-0.37,0.61-0.71,0.97-1.02H179.75z M179.75,119.8v1.02h0.97C180.36,120.51,180.04,120.17,179.75,119.8z
					 M178,78.82v36c0,1.88,0.66,3.61,1.75,4.98V73.84C178.66,75.21,178,76.94,178,78.82z M242,89.82h-3.94
					c-1.88-6.54-7.91-11.33-15.06-11.33s-13.18,4.79-15.06,11.33H205c-2.37,0-4.58,0.69-6.44,1.88h49.88
					C246.58,90.51,244.37,89.82,242,89.82z M269.13,73.69v46.26c1.16-1.39,1.87-3.18,1.87-5.13v-36
					C271,76.87,270.29,75.08,269.13,73.69z M268.28,120.82h0.85v-0.87C268.87,120.26,268.59,120.55,268.28,120.82z M263,70.82h-77
					c-2.02,0-3.87,0.76-5.28,2h87.56C266.87,71.58,265.02,70.82,263,70.82z M180.72,120.82c1.41,1.24,3.26,2,5.28,2h7v-2H180.72z
					 M179.75,72.82v1.02c0.29-0.37,0.61-0.71,0.97-1.02H179.75z M179.75,119.8v1.02h0.97C180.36,120.51,180.04,120.17,179.75,119.8z
					 M178,78.82v36c0,1.88,0.66,3.61,1.75,4.98V73.84C178.66,75.21,178,76.94,178,78.82z M242,89.82h-3.94
					c-1.88-6.54-7.91-11.33-15.06-11.33s-13.18,4.79-15.06,11.33H205c-2.37,0-4.58,0.69-6.44,1.88h49.88
					C246.58,90.51,244.37,89.82,242,89.82z M269.13,73.69v46.26c1.16-1.39,1.87-3.18,1.87-5.13v-36
					C271,76.87,270.29,75.08,269.13,73.69z M268.28,120.82h0.85v-0.87C268.87,120.26,268.59,120.55,268.28,120.82z M263,70.82h-77
					c-2.02,0-3.87,0.76-5.28,2h87.56C266.87,71.58,265.02,70.82,263,70.82z M180.72,120.82c1.41,1.24,3.26,2,5.28,2h7v-2H180.72z
					 M179.75,72.82v1.02c0.29-0.37,0.61-0.71,0.97-1.02H179.75z M179.75,119.8v1.02h0.97C180.36,120.51,180.04,120.17,179.75,119.8z
					 M178,78.82v36c0,1.88,0.66,3.61,1.75,4.98V73.84C178.66,75.21,178,76.94,178,78.82z M242,89.82h-3.94
					c-1.88-6.54-7.91-11.33-15.06-11.33s-13.18,4.79-15.06,11.33H205c-2.37,0-4.58,0.69-6.44,1.88h49.88
					C246.58,90.51,244.37,89.82,242,89.82z M269.13,73.69v46.26c1.16-1.39,1.87-3.18,1.87-5.13v-36
					C271,76.87,270.29,75.08,269.13,73.69z M268.28,120.82h0.85v-0.87C268.87,120.26,268.59,120.55,268.28,120.82z M263,70.82h-77
					c-2.02,0-3.87,0.76-5.28,2h87.56C266.87,71.58,265.02,70.82,263,70.82z M180.72,120.82c1.41,1.24,3.26,2,5.28,2h7v-2H180.72z
					 M179.75,72.82v1.02c0.29-0.37,0.61-0.71,0.97-1.02H179.75z M179.75,119.8v1.02h0.97C180.36,120.51,180.04,120.17,179.75,119.8z
					 M178,78.82v36c0,1.88,0.66,3.61,1.75,4.98V73.84C178.66,75.21,178,76.94,178,78.82z M242,89.82h-3.94
					c-1.88-6.54-7.91-11.33-15.06-11.33s-13.18,4.79-15.06,11.33H205c-2.37,0-4.58,0.69-6.44,1.88h49.88
					C246.58,90.51,244.37,89.82,242,89.82z M269.13,73.69v46.26c1.16-1.39,1.87-3.18,1.87-5.13v-36
					C271,76.87,270.29,75.08,269.13,73.69z M268.28,120.82h0.85v-0.87C268.87,120.26,268.59,120.55,268.28,120.82z M263,70.82h-77
					c-2.02,0-3.87,0.76-5.28,2h87.56C266.87,71.58,265.02,70.82,263,70.82z M180.72,120.82c1.41,1.24,3.26,2,5.28,2h7v-2H180.72z
					 M179.75,72.82v1.02c0.29-0.37,0.61-0.71,0.97-1.02H179.75z M179.75,119.8v1.02h0.97C180.36,120.51,180.04,120.17,179.75,119.8z
					 M178,78.82v36c0,1.88,0.66,3.61,1.75,4.98V73.84C178.66,75.21,178,76.94,178,78.82z M242,89.82h-3.94
					c-1.88-6.54-7.91-11.33-15.06-11.33s-13.18,4.79-15.06,11.33H205c-2.37,0-4.58,0.69-6.44,1.88h49.88
					C246.58,90.51,244.37,89.82,242,89.82z M269.13,73.69v46.26c1.16-1.39,1.87-3.18,1.87-5.13v-36
					C271,76.87,270.29,75.08,269.13,73.69z M268.28,120.82h0.85v-0.87C268.87,120.26,268.59,120.55,268.28,120.82z M263,70.82h-77
					c-2.02,0-3.87,0.76-5.28,2h87.56C266.87,71.58,265.02,70.82,263,70.82z M180.72,120.82c1.41,1.24,3.26,2,5.28,2h7v-2H180.72z
					 M179.75,72.82v1.02c0.29-0.37,0.61-0.71,0.97-1.02H179.75z M179.75,119.8v1.02h0.97C180.36,120.51,180.04,120.17,179.75,119.8z
					 M178,78.82v36c0,1.88,0.66,3.61,1.75,4.98V73.84C178.66,75.21,178,76.94,178,78.82z M242,89.82h-3.94
					c-1.88-6.54-7.91-11.33-15.06-11.33s-13.18,4.79-15.06,11.33H205c-2.37,0-4.58,0.69-6.44,1.88h49.88
					C246.58,90.51,244.37,89.82,242,89.82z M269.13,73.69v46.26c1.16-1.39,1.87-3.18,1.87-5.13v-36
					C271,76.87,270.29,75.08,269.13,73.69z M268.28,120.82h0.85v-0.87C268.87,120.26,268.59,120.55,268.28,120.82z M263,70.82h-77
					c-2.02,0-3.87,0.76-5.28,2h87.56C266.87,71.58,265.02,70.82,263,70.82z M180.72,120.82c1.41,1.24,3.26,2,5.28,2h7v-2H180.72z
					 M179.75,72.82v1.02c0.29-0.37,0.61-0.71,0.97-1.02H179.75z M179.75,119.8v1.02h0.97C180.36,120.51,180.04,120.17,179.75,119.8z
					 M178,78.82v36c0,1.88,0.66,3.61,1.75,4.98V73.84C178.66,75.21,178,76.94,178,78.82z M242,89.82h-3.94
					c-1.88-6.54-7.91-11.33-15.06-11.33s-13.18,4.79-15.06,11.33H205c-2.37,0-4.58,0.69-6.44,1.88h49.88
					C246.58,90.51,244.37,89.82,242,89.82z M242,89.82h-3.94c-1.88-6.54-7.91-11.33-15.06-11.33s-13.18,4.79-15.06,11.33H205
					c-2.37,0-4.58,0.69-6.44,1.88h49.88C246.58,90.51,244.37,89.82,242,89.82z M242,89.82h-3.94c-1.88-6.54-7.91-11.33-15.06-11.33
					s-13.18,4.79-15.06,11.33H205c-2.37,0-4.58,0.69-6.44,1.88h49.88C246.58,90.51,244.37,89.82,242,89.82z M242,89.82h-3.94
					c-1.88-6.54-7.91-11.33-15.06-11.33s-13.18,4.79-15.06,11.33H205c-2.37,0-4.58,0.69-6.44,1.88h49.88
					C246.58,90.51,244.37,89.82,242,89.82z M242,89.82h-3.94c-1.88-6.54-7.91-11.33-15.06-11.33s-13.18,4.79-15.06,11.33H205
					c-2.37,0-4.58,0.69-6.44,1.88h49.88C246.58,90.51,244.37,89.82,242,89.82z M242,89.82h-3.94c-1.88-6.54-7.91-11.33-15.06-11.33
					s-13.18,4.79-15.06,11.33H205c-2.37,0-4.58,0.69-6.44,1.88h49.88C246.58,90.51,244.37,89.82,242,89.82z M242,89.82h-3.94
					c-1.88-6.54-7.91-11.33-15.06-11.33s-13.18,4.79-15.06,11.33H205c-2.37,0-4.58,0.69-6.44,1.88h49.88
					C246.58,90.51,244.37,89.82,242,89.82z M173.5,66.82v60H197v-25c0-4.41,3.59-8,8-8h37c4.41,0,8,3.59,8,8v25h26.5v-60H173.5z
					 M248.44,91.7c-1.86-1.19-4.07-1.88-6.44-1.88h-3.94c-1.88-6.54-7.91-11.33-15.06-11.33s-13.18,4.79-15.06,11.33H205
					c-2.37,0-4.58,0.69-6.44,1.88c-1.18,0.75-2.22,1.7-3.06,2.8c-1.57,2.03-2.5,4.57-2.5,7.32v17h-7c-2.21,0-4-1.79-4-4v-36
					c0-2.21,1.79-4,4-4h77c2.21,0,4,1.79,4,4v36c0,2.21-1.79,4-4,4h-9v-17c0-2.11-0.54-4.09-1.5-5.81
					C251.53,94.26,250.13,92.78,248.44,91.7z M242,89.82h-3.94c-1.88-6.54-7.91-11.33-15.06-11.33s-13.18,4.79-15.06,11.33H205
					c-2.37,0-4.58,0.69-6.44,1.88h49.88C246.58,90.51,244.37,89.82,242,89.82z M242,89.82h-3.94c-1.88-6.54-7.91-11.33-15.06-11.33
					s-13.18,4.79-15.06,11.33H205c-2.37,0-4.58,0.69-6.44,1.88h49.88C246.58,90.51,244.37,89.82,242,89.82z M242,89.82h-3.94
					c-1.88-6.54-7.91-11.33-15.06-11.33s-13.18,4.79-15.06,11.33H205c-2.37,0-4.58,0.69-6.44,1.88h49.88
					C246.58,90.51,244.37,89.82,242,89.82z M242,89.82h-3.94c-1.88-6.54-7.91-11.33-15.06-11.33s-13.18,4.79-15.06,11.33H205
					c-2.37,0-4.58,0.69-6.44,1.88h49.88C246.58,90.51,244.37,89.82,242,89.82z M242,89.82h-3.94c-1.88-6.54-7.91-11.33-15.06-11.33
					s-13.18,4.79-15.06,11.33H205c-2.37,0-4.58,0.69-6.44,1.88h49.88C246.58,90.51,244.37,89.82,242,89.82z M242,89.82h-3.94
					c-1.88-6.54-7.91-11.33-15.06-11.33s-13.18,4.79-15.06,11.33H205c-2.37,0-4.58,0.69-6.44,1.88h49.88
					C246.58,90.51,244.37,89.82,242,89.82z M178,78.82v36c0,1.88,0.66,3.61,1.75,4.98V73.84C178.66,75.21,178,76.94,178,78.82z
					 M179.75,119.8v1.02h0.97C180.36,120.51,180.04,120.17,179.75,119.8z M179.75,72.82v1.02c0.29-0.37,0.61-0.71,0.97-1.02H179.75z
					 M180.72,120.82c1.41,1.24,3.26,2,5.28,2h7v-2H180.72z M263,70.82h-77c-2.02,0-3.87,0.76-5.28,2h87.56
					C266.87,71.58,265.02,70.82,263,70.82z M268.28,120.82h0.85v-0.87C268.87,120.26,268.59,120.55,268.28,120.82z M269.13,73.69
					v46.26c1.16-1.39,1.87-3.18,1.87-5.13v-36C271,76.87,270.29,75.08,269.13,73.69z M242,89.82h-3.94
					c-1.88-6.54-7.91-11.33-15.06-11.33s-13.18,4.79-15.06,11.33H205c-2.37,0-4.58,0.69-6.44,1.88h49.88
					C246.58,90.51,244.37,89.82,242,89.82z M178,78.82v36c0,1.88,0.66,3.61,1.75,4.98V73.84C178.66,75.21,178,76.94,178,78.82z
					 M179.75,119.8v1.02h0.97C180.36,120.51,180.04,120.17,179.75,119.8z M179.75,72.82v1.02c0.29-0.37,0.61-0.71,0.97-1.02H179.75z
					 M180.72,120.82c1.41,1.24,3.26,2,5.28,2h7v-2H180.72z M263,70.82h-77c-2.02,0-3.87,0.76-5.28,2h87.56
					C266.87,71.58,265.02,70.82,263,70.82z M268.28,120.82h0.85v-0.87C268.87,120.26,268.59,120.55,268.28,120.82z M269.13,73.69
					v46.26c1.16-1.39,1.87-3.18,1.87-5.13v-36C271,76.87,270.29,75.08,269.13,73.69z M242,89.82h-3.94
					c-1.88-6.54-7.91-11.33-15.06-11.33s-13.18,4.79-15.06,11.33H205c-2.37,0-4.58,0.69-6.44,1.88h49.88
					C246.58,90.51,244.37,89.82,242,89.82z M178,78.82v36c0,1.88,0.66,3.61,1.75,4.98V73.84C178.66,75.21,178,76.94,178,78.82z
					 M179.75,119.8v1.02h0.97C180.36,120.51,180.04,120.17,179.75,119.8z M179.75,72.82v1.02c0.29-0.37,0.61-0.71,0.97-1.02H179.75z
					 M180.72,120.82c1.41,1.24,3.26,2,5.28,2h7v-2H180.72z M263,70.82h-77c-2.02,0-3.87,0.76-5.28,2h87.56
					C266.87,71.58,265.02,70.82,263,70.82z M268.28,120.82h0.85v-0.87C268.87,120.26,268.59,120.55,268.28,120.82z M269.13,73.69
					v46.26c1.16-1.39,1.87-3.18,1.87-5.13v-36C271,76.87,270.29,75.08,269.13,73.69z M242,89.82h-3.94
					c-1.88-6.54-7.91-11.33-15.06-11.33s-13.18,4.79-15.06,11.33H205c-2.37,0-4.58,0.69-6.44,1.88h49.88
					C246.58,90.51,244.37,89.82,242,89.82z M178,78.82v36c0,1.88,0.66,3.61,1.75,4.98V73.84C178.66,75.21,178,76.94,178,78.82z
					 M179.75,119.8v1.02h0.97C180.36,120.51,180.04,120.17,179.75,119.8z M179.75,72.82v1.02c0.29-0.37,0.61-0.71,0.97-1.02H179.75z
					 M180.72,120.82c1.41,1.24,3.26,2,5.28,2h7v-2H180.72z M263,70.82h-77c-2.02,0-3.87,0.76-5.28,2h87.56
					C266.87,71.58,265.02,70.82,263,70.82z M268.28,120.82h0.85v-0.87C268.87,120.26,268.59,120.55,268.28,120.82z M269.13,73.69
					v46.26c1.16-1.39,1.87-3.18,1.87-5.13v-36C271,76.87,270.29,75.08,269.13,73.69z M242,89.82h-3.94
					c-1.88-6.54-7.91-11.33-15.06-11.33s-13.18,4.79-15.06,11.33H205c-2.37,0-4.58,0.69-6.44,1.88h49.88
					C246.58,90.51,244.37,89.82,242,89.82z M178,78.82v36c0,1.88,0.66,3.61,1.75,4.98V73.84C178.66,75.21,178,76.94,178,78.82z
					 M179.75,119.8v1.02h0.97C180.36,120.51,180.04,120.17,179.75,119.8z M179.75,72.82v1.02c0.29-0.37,0.61-0.71,0.97-1.02H179.75z
					 M180.72,120.82c1.41,1.24,3.26,2,5.28,2h7v-2H180.72z M263,70.82h-77c-2.02,0-3.87,0.76-5.28,2h87.56
					C266.87,71.58,265.02,70.82,263,70.82z M268.28,120.82h0.85v-0.87C268.87,120.26,268.59,120.55,268.28,120.82z M269.13,73.69
					v46.26c1.16-1.39,1.87-3.18,1.87-5.13v-36C271,76.87,270.29,75.08,269.13,73.69z M242,89.82h-3.94
					c-1.88-6.54-7.91-11.33-15.06-11.33s-13.18,4.79-15.06,11.33H205c-2.37,0-4.58,0.69-6.44,1.88h49.88
					C246.58,90.51,244.37,89.82,242,89.82z M178,78.82v36c0,1.88,0.66,3.61,1.75,4.98V73.84C178.66,75.21,178,76.94,178,78.82z
					 M179.75,119.8v1.02h0.97C180.36,120.51,180.04,120.17,179.75,119.8z M179.75,72.82v1.02c0.29-0.37,0.61-0.71,0.97-1.02H179.75z
					 M180.72,120.82c1.41,1.24,3.26,2,5.28,2h7v-2H180.72z M263,70.82h-77c-2.02,0-3.87,0.76-5.28,2h87.56
					C266.87,71.58,265.02,70.82,263,70.82z M268.28,120.82h0.85v-0.87C268.87,120.26,268.59,120.55,268.28,120.82z M269.13,73.69
					v46.26c1.16-1.39,1.87-3.18,1.87-5.13v-36C271,76.87,270.29,75.08,269.13,73.69z M242,89.82h-3.94
					c-1.88-6.54-7.91-11.33-15.06-11.33s-13.18,4.79-15.06,11.33H205c-2.37,0-4.58,0.69-6.44,1.88h49.88
					C246.58,90.51,244.37,89.82,242,89.82z M178,78.82v36c0,1.88,0.66,3.61,1.75,4.98V73.84C178.66,75.21,178,76.94,178,78.82z
					 M179.75,119.8v1.02h0.97C180.36,120.51,180.04,120.17,179.75,119.8z M179.75,72.82v1.02c0.29-0.37,0.61-0.71,0.97-1.02H179.75z
					 M180.72,120.82c1.41,1.24,3.26,2,5.28,2h7v-2H180.72z M263,70.82h-77c-2.02,0-3.87,0.76-5.28,2h87.56
					C266.87,71.58,265.02,70.82,263,70.82z M268.28,120.82h0.85v-0.87C268.87,120.26,268.59,120.55,268.28,120.82z M269.13,73.69
					v46.26c1.16-1.39,1.87-3.18,1.87-5.13v-36C271,76.87,270.29,75.08,269.13,73.69z M242,89.82h-3.94
					c-1.88-6.54-7.91-11.33-15.06-11.33s-13.18,4.79-15.06,11.33H205c-2.37,0-4.58,0.69-6.44,1.88h49.88
					C246.58,90.51,244.37,89.82,242,89.82z M178,78.82v36c0,1.88,0.66,3.61,1.75,4.98V73.84C178.66,75.21,178,76.94,178,78.82z
					 M179.75,119.8v1.02h0.97C180.36,120.51,180.04,120.17,179.75,119.8z M179.75,72.82v1.02c0.29-0.37,0.61-0.71,0.97-1.02H179.75z
					 M180.72,120.82c1.41,1.24,3.26,2,5.28,2h7v-2H180.72z M263,70.82h-77c-2.02,0-3.87,0.76-5.28,2h87.56
					C266.87,71.58,265.02,70.82,263,70.82z M268.28,120.82h0.85v-0.87C268.87,120.26,268.59,120.55,268.28,120.82z M269.13,73.69
					v46.26c1.16-1.39,1.87-3.18,1.87-5.13v-36C271,76.87,270.29,75.08,269.13,73.69z M242,89.82h-3.94
					c-1.88-6.54-7.91-11.33-15.06-11.33s-13.18,4.79-15.06,11.33H205c-2.37,0-4.58,0.69-6.44,1.88h49.88
					C246.58,90.51,244.37,89.82,242,89.82z M178,78.82v36c0,1.88,0.66,3.61,1.75,4.98V73.84C178.66,75.21,178,76.94,178,78.82z
					 M179.75,119.8v1.02h0.97C180.36,120.51,180.04,120.17,179.75,119.8z M179.75,72.82v1.02c0.29-0.37,0.61-0.71,0.97-1.02H179.75z
					 M180.72,120.82c1.41,1.24,3.26,2,5.28,2h7v-2H180.72z M263,70.82h-77c-2.02,0-3.87,0.76-5.28,2h87.56
					C266.87,71.58,265.02,70.82,263,70.82z M268.28,120.82h0.85v-0.87C268.87,120.26,268.59,120.55,268.28,120.82z M269.13,73.69
					v46.26c1.16-1.39,1.87-3.18,1.87-5.13v-36C271,76.87,270.29,75.08,269.13,73.69z M242,89.82h-3.94
					c-1.88-6.54-7.91-11.33-15.06-11.33s-13.18,4.79-15.06,11.33H205c-2.37,0-4.58,0.69-6.44,1.88h49.88
					C246.58,90.51,244.37,89.82,242,89.82z M178,78.82v36c0,1.88,0.66,3.61,1.75,4.98V73.84C178.66,75.21,178,76.94,178,78.82z
					 M179.75,119.8v1.02h0.97C180.36,120.51,180.04,120.17,179.75,119.8z M179.75,72.82v1.02c0.29-0.37,0.61-0.71,0.97-1.02H179.75z
					 M180.72,120.82c1.41,1.24,3.26,2,5.28,2h7v-2H180.72z M263,70.82h-77c-2.02,0-3.87,0.76-5.28,2h87.56
					C266.87,71.58,265.02,70.82,263,70.82z M268.28,120.82h0.85v-0.87C268.87,120.26,268.59,120.55,268.28,120.82z M269.13,73.69
					v46.26c1.16-1.39,1.87-3.18,1.87-5.13v-36C271,76.87,270.29,75.08,269.13,73.69z M242,89.82h-3.94
					c-1.88-6.54-7.91-11.33-15.06-11.33s-13.18,4.79-15.06,11.33H205c-2.37,0-4.58,0.69-6.44,1.88h49.88
					C246.58,90.51,244.37,89.82,242,89.82z M178,78.82v36c0,1.88,0.66,3.61,1.75,4.98V73.84C178.66,75.21,178,76.94,178,78.82z
					 M179.75,119.8v1.02h0.97C180.36,120.51,180.04,120.17,179.75,119.8z M179.75,72.82v1.02c0.29-0.37,0.61-0.71,0.97-1.02H179.75z
					 M180.72,120.82c1.41,1.24,3.26,2,5.28,2h7v-2H180.72z M263,70.82h-77c-2.02,0-3.87,0.76-5.28,2h87.56
					C266.87,71.58,265.02,70.82,263,70.82z M268.28,120.82h0.85v-0.87C268.87,120.26,268.59,120.55,268.28,120.82z M269.13,73.69
					v46.26c1.16-1.39,1.87-3.18,1.87-5.13v-36C271,76.87,270.29,75.08,269.13,73.69z M242,89.82h-3.94
					c-1.88-6.54-7.91-11.33-15.06-11.33s-13.18,4.79-15.06,11.33H205c-2.37,0-4.58,0.69-6.44,1.88h49.88
					C246.58,90.51,244.37,89.82,242,89.82z M178,78.82v36c0,1.88,0.66,3.61,1.75,4.98V73.84C178.66,75.21,178,76.94,178,78.82z
					 M179.75,119.8v1.02h0.97C180.36,120.51,180.04,120.17,179.75,119.8z M179.75,72.82v1.02c0.29-0.37,0.61-0.71,0.97-1.02H179.75z
					 M180.72,120.82c1.41,1.24,3.26,2,5.28,2h7v-2H180.72z M263,70.82h-77c-2.02,0-3.87,0.76-5.28,2h87.56
					C266.87,71.58,265.02,70.82,263,70.82z M268.28,120.82h0.85v-0.87C268.87,120.26,268.59,120.55,268.28,120.82z M269.13,73.69
					v46.26c1.16-1.39,1.87-3.18,1.87-5.13v-36C271,76.87,270.29,75.08,269.13,73.69z M242,89.82h-3.94
					c-1.88-6.54-7.91-11.33-15.06-11.33s-13.18,4.79-15.06,11.33H205c-2.37,0-4.58,0.69-6.44,1.88h49.88
					C246.58,90.51,244.37,89.82,242,89.82z M242,89.82h-3.94c-1.88-6.54-7.91-11.33-15.06-11.33s-13.18,4.79-15.06,11.33H205
					c-2.37,0-4.58,0.69-6.44,1.88h49.88C246.58,90.51,244.37,89.82,242,89.82z M242,89.82h-3.94c-1.88-6.54-7.91-11.33-15.06-11.33
					s-13.18,4.79-15.06,11.33H205c-2.37,0-4.58,0.69-6.44,1.88h49.88C246.58,90.51,244.37,89.82,242,89.82z"/>
				<path fill="#D47631" d="M276.5,68.17c-0.35-0.5-0.76-0.95-1.22-1.35c-1.41-1.24-3.26-2-5.28-2h-91c-2.02,0-3.87,0.76-5.28,2
					c-0.08,0.07-0.15,0.14-0.22,0.21c-1.54,1.45-2.5,3.51-2.5,5.79v48c0,2.28,0.96,4.34,2.5,5.79c0.07,0.07,0.14,0.14,0.22,0.21
					c1.41,1.24,3.26,2,5.28,2h18v-4h-18c-2.21,0-4-1.79-4-4v-48c0-2.21,1.79-4,4-4h91c2.21,0,4,1.79,4,4v48c0,2.21-1.79,4-4,4h-20v4
					h20c2.02,0,3.87-0.76,5.28-2c0.46-0.4,0.87-0.85,1.22-1.35c0.94-1.31,1.5-2.92,1.5-4.65v-48C278,71.09,277.44,69.48,276.5,68.17
					z"/>
			</g>
			<g>
				<path fill="#D47631" d="M269.13,73.69l-0.85-0.87c-1.41-1.24-3.26-2-5.28-2h-77c-2.02,0-3.87,0.76-5.28,2
					c-0.36,0.31-0.68,0.65-0.97,1.02c-1.09,1.37-1.75,3.1-1.75,4.98v36c0,1.88,0.66,3.61,1.75,4.98c0.29,0.37,0.61,0.71,0.97,1.02
					c1.41,1.24,3.26,2,5.28,2h11v-4h-11c-2.21,0-4-1.79-4-4v-36c0-2.21,1.79-4,4-4h77c2.21,0,4,1.79,4,4v36c0,2.21-1.79,4-4,4h-13v4
					h13c2.02,0,3.87-0.76,5.28-2c0.31-0.27,0.59-0.56,0.85-0.87c1.16-1.39,1.87-3.18,1.87-5.13v-36
					C271,76.87,270.29,75.08,269.13,73.69z"/>
			</g>
			<path fill="#D47631" d="M238.66,93.82h-31.32c0.01-0.72,0.07-1.43,0.18-2.12c0.1-0.64,0.24-1.27,0.42-1.88
				c1.88-6.54,7.91-11.33,15.06-11.33s13.18,4.79,15.06,11.33c0.18,0.61,0.32,1.24,0.42,1.88C238.59,92.39,238.65,93.1,238.66,93.82
				z"/>
			<g>
				<path fill="#D47631" d="M248.44,91.7h-49.88c-1.18,0.75-2.22,1.7-3.06,2.8v24.32h1.5v-17c0-4.41,3.59-8,8-8h37
					c4.41,0,8,3.59,8,8v17h2.5V96.01C251.53,94.26,250.13,92.78,248.44,91.7z M248.44,91.7h-49.88c-1.18,0.75-2.22,1.7-3.06,2.8
					v24.32h1.5v-17c0-4.41,3.59-8,8-8h37c4.41,0,8,3.59,8,8v17h2.5V96.01C251.53,94.26,250.13,92.78,248.44,91.7z M248.44,91.7
					h-49.88c-1.18,0.75-2.22,1.7-3.06,2.8v24.32h1.5v-17c0-4.41,3.59-8,8-8h37c4.41,0,8,3.59,8,8v17h2.5V96.01
					C251.53,94.26,250.13,92.78,248.44,91.7z M248.44,91.7h-49.88c-1.18,0.75-2.22,1.7-3.06,2.8v24.32h1.5v-17c0-4.41,3.59-8,8-8h37
					c4.41,0,8,3.59,8,8v17h2.5V96.01C251.53,94.26,250.13,92.78,248.44,91.7z M248.44,91.7h-49.88c-1.18,0.75-2.22,1.7-3.06,2.8
					v24.32h1.5v-17c0-4.41,3.59-8,8-8h37c4.41,0,8,3.59,8,8v17h2.5V96.01C251.53,94.26,250.13,92.78,248.44,91.7z M248.44,91.7
					h-49.88c-1.18,0.75-2.22,1.7-3.06,2.8v24.32h1.5v-17c0-4.41,3.59-8,8-8h37c4.41,0,8,3.59,8,8v17h2.5V96.01
					C251.53,94.26,250.13,92.78,248.44,91.7z M248.44,91.7h-49.88c-1.18,0.75-2.22,1.7-3.06,2.8v24.32h1.5v-17c0-4.41,3.59-8,8-8h37
					c4.41,0,8,3.59,8,8v17h2.5V96.01C251.53,94.26,250.13,92.78,248.44,91.7z M248.44,91.7h-49.88c-1.18,0.75-2.22,1.7-3.06,2.8
					v24.32h1.5v-17c0-4.41,3.59-8,8-8h37c4.41,0,8,3.59,8,8v17h2.5V96.01C251.53,94.26,250.13,92.78,248.44,91.7z M248.44,91.7
					h-49.88c-1.18,0.75-2.22,1.7-3.06,2.8v24.32h1.5v-17c0-4.41,3.59-8,8-8h37c4.41,0,8,3.59,8,8v17h2.5V96.01
					C251.53,94.26,250.13,92.78,248.44,91.7z M248.44,91.7h-49.88c-1.18,0.75-2.22,1.7-3.06,2.8v24.32h1.5v-17c0-4.41,3.59-8,8-8h37
					c4.41,0,8,3.59,8,8v17h2.5V96.01C251.53,94.26,250.13,92.78,248.44,91.7z M248.44,91.7h-49.88c-1.18,0.75-2.22,1.7-3.06,2.8
					v24.32h1.5v-17c0-4.41,3.59-8,8-8h37c4.41,0,8,3.59,8,8v17h2.5V96.01C251.53,94.26,250.13,92.78,248.44,91.7z M248.44,91.7
					h-49.88c-1.18,0.75-2.22,1.7-3.06,2.8v24.32h1.5v-17c0-4.41,3.59-8,8-8h37c4.41,0,8,3.59,8,8v17h2.5V96.01
					C251.53,94.26,250.13,92.78,248.44,91.7z M248.44,91.7h-49.88c-1.18,0.75-2.22,1.7-3.06,2.8v24.32h1.5v-17c0-4.41,3.59-8,8-8h37
					c4.41,0,8,3.59,8,8v17h2.5V96.01C251.53,94.26,250.13,92.78,248.44,91.7z M248.44,91.7h-49.88c-1.18,0.75-2.22,1.7-3.06,2.8
					v24.32h1.5v-17c0-4.41,3.59-8,8-8h37c4.41,0,8,3.59,8,8v17h2.5V96.01C251.53,94.26,250.13,92.78,248.44,91.7z M248.44,91.7
					h-49.88c-1.18,0.75-2.22,1.7-3.06,2.8v24.32h1.5v-17c0-4.41,3.59-8,8-8h37c4.41,0,8,3.59,8,8v17h2.5V96.01
					C251.53,94.26,250.13,92.78,248.44,91.7z M248.44,91.7h-49.88c-1.18,0.75-2.22,1.7-3.06,2.8v24.32h1.5v-17c0-4.41,3.59-8,8-8h37
					c4.41,0,8,3.59,8,8v17h2.5V96.01C251.53,94.26,250.13,92.78,248.44,91.7z M248.44,91.7h-49.88c-1.18,0.75-2.22,1.7-3.06,2.8
					v24.32h1.5v-17c0-4.41,3.59-8,8-8h37c4.41,0,8,3.59,8,8v17h2.5V96.01C251.53,94.26,250.13,92.78,248.44,91.7z M248.44,91.7
					h-49.88c-1.18,0.75-2.22,1.7-3.06,2.8v24.32h1.5v-17c0-4.41,3.59-8,8-8h37c4.41,0,8,3.59,8,8v17h2.5V96.01
					C251.53,94.26,250.13,92.78,248.44,91.7z M248.44,91.7h-49.88c-1.18,0.75-2.22,1.7-3.06,2.8v24.32h1.5v-17c0-4.41,3.59-8,8-8h37
					c4.41,0,8,3.59,8,8v17h2.5V96.01C251.53,94.26,250.13,92.78,248.44,91.7z M248.44,91.7h-49.88c-1.18,0.75-2.22,1.7-3.06,2.8
					v24.32h1.5v-17c0-4.41,3.59-8,8-8h37c4.41,0,8,3.59,8,8v17h2.5V96.01C251.53,94.26,250.13,92.78,248.44,91.7z M248.44,91.7
					h-49.88c-1.18,0.75-2.22,1.7-3.06,2.8v24.32h1.5v-17c0-4.41,3.59-8,8-8h37c4.41,0,8,3.59,8,8v17h2.5V96.01
					C251.53,94.26,250.13,92.78,248.44,91.7z M252.5,96.01c-0.97-1.75-2.37-3.23-4.06-4.31c-1.86-1.19-4.07-1.88-6.44-1.88h-37
					c-2.37,0-4.58,0.69-6.44,1.88c-1.18,0.75-2.22,1.7-3.06,2.8c-1.57,2.03-2.5,4.57-2.5,7.32v23h4v-23c0-4.41,3.59-8,8-8h37
					c4.41,0,8,3.59,8,8v23h4v-23C254,99.71,253.46,97.73,252.5,96.01z M224,178.82h1v-4h-1V178.82z M193,141.82h4v-4h-4V141.82z
					 M252.5,96.01c-0.97-1.75-2.37-3.23-4.06-4.31c-1.86-1.19-4.07-1.88-6.44-1.88h-37c-2.37,0-4.58,0.69-6.44,1.88
					c-1.18,0.75-2.22,1.7-3.06,2.8c-1.57,2.03-2.5,4.57-2.5,7.32v65c0,2.75,0.93,5.29,2.5,7.32c0.69,0.91,1.52,1.71,2.45,2.38
					c1.98,1.45,4.42,2.3,7.05,2.3h37c2.63,0,5.07-0.85,7.05-2.3c1.42-1.02,2.6-2.35,3.45-3.89c0.96-1.72,1.5-3.7,1.5-5.81v-65
					C254,99.71,253.46,97.73,252.5,96.01z M250,166.82c0,4.41-3.59,8-8,8h-37c-4.41,0-8-3.59-8-8v-65c0-4.41,3.59-8,8-8h37
					c4.41,0,8,3.59,8,8V166.82z M248.44,91.7h-49.88c-1.18,0.75-2.22,1.7-3.06,2.8v24.32h1.5v-17c0-4.41,3.59-8,8-8h37
					c4.41,0,8,3.59,8,8v17h2.5V96.01C251.53,94.26,250.13,92.78,248.44,91.7z M248.44,91.7h-49.88c-1.18,0.75-2.22,1.7-3.06,2.8
					v24.32h1.5v-17c0-4.41,3.59-8,8-8h37c4.41,0,8,3.59,8,8v17h2.5V96.01C251.53,94.26,250.13,92.78,248.44,91.7z M248.44,91.7
					h-49.88c-1.18,0.75-2.22,1.7-3.06,2.8v24.32h1.5v-17c0-4.41,3.59-8,8-8h37c4.41,0,8,3.59,8,8v17h2.5V96.01
					C251.53,94.26,250.13,92.78,248.44,91.7z M248.44,91.7h-49.88c-1.18,0.75-2.22,1.7-3.06,2.8v24.32h1.5v-17c0-4.41,3.59-8,8-8h37
					c4.41,0,8,3.59,8,8v17h2.5V96.01C251.53,94.26,250.13,92.78,248.44,91.7z M248.44,91.7h-49.88c-1.18,0.75-2.22,1.7-3.06,2.8
					v24.32h1.5v-17c0-4.41,3.59-8,8-8h37c4.41,0,8,3.59,8,8v17h2.5V96.01C251.53,94.26,250.13,92.78,248.44,91.7z M248.44,91.7
					h-49.88c-1.18,0.75-2.22,1.7-3.06,2.8v24.32h1.5v-17c0-4.41,3.59-8,8-8h37c4.41,0,8,3.59,8,8v17h2.5V96.01
					C251.53,94.26,250.13,92.78,248.44,91.7z M248.44,91.7h-49.88c-1.18,0.75-2.22,1.7-3.06,2.8v24.32h1.5v-17c0-4.41,3.59-8,8-8h37
					c4.41,0,8,3.59,8,8v17h2.5V96.01C251.53,94.26,250.13,92.78,248.44,91.7z M248.44,91.7h-49.88c-1.18,0.75-2.22,1.7-3.06,2.8
					v24.32h1.5v-17c0-4.41,3.59-8,8-8h37c4.41,0,8,3.59,8,8v17h2.5V96.01C251.53,94.26,250.13,92.78,248.44,91.7z M248.44,91.7
					h-49.88c-1.18,0.75-2.22,1.7-3.06,2.8v24.32h1.5v-17c0-4.41,3.59-8,8-8h37c4.41,0,8,3.59,8,8v17h2.5V96.01
					C251.53,94.26,250.13,92.78,248.44,91.7z M248.44,91.7h-49.88c-1.18,0.75-2.22,1.7-3.06,2.8v24.32h1.5v-17c0-4.41,3.59-8,8-8h37
					c4.41,0,8,3.59,8,8v17h2.5V96.01C251.53,94.26,250.13,92.78,248.44,91.7z M248.44,91.7h-49.88c-1.18,0.75-2.22,1.7-3.06,2.8
					v24.32h1.5v-17c0-4.41,3.59-8,8-8h37c4.41,0,8,3.59,8,8v17h2.5V96.01C251.53,94.26,250.13,92.78,248.44,91.7z M248.44,91.7
					h-49.88c-1.18,0.75-2.22,1.7-3.06,2.8v24.32h1.5v-17c0-4.41,3.59-8,8-8h37c4.41,0,8,3.59,8,8v17h2.5V96.01
					C251.53,94.26,250.13,92.78,248.44,91.7z M248.44,91.7h-49.88c-1.18,0.75-2.22,1.7-3.06,2.8v24.32h1.5v-17c0-4.41,3.59-8,8-8h37
					c4.41,0,8,3.59,8,8v17h2.5V96.01C251.53,94.26,250.13,92.78,248.44,91.7z M248.44,91.7h-49.88c-1.18,0.75-2.22,1.7-3.06,2.8
					v24.32h1.5v-17c0-4.41,3.59-8,8-8h37c4.41,0,8,3.59,8,8v17h2.5V96.01C251.53,94.26,250.13,92.78,248.44,91.7z M248.44,91.7
					h-49.88c-1.18,0.75-2.22,1.7-3.06,2.8v24.32h1.5v-17c0-4.41,3.59-8,8-8h37c4.41,0,8,3.59,8,8v17h2.5V96.01
					C251.53,94.26,250.13,92.78,248.44,91.7z M248.44,91.7h-49.88c-1.18,0.75-2.22,1.7-3.06,2.8v24.32h1.5v-17c0-4.41,3.59-8,8-8h37
					c4.41,0,8,3.59,8,8v17h2.5V96.01C251.53,94.26,250.13,92.78,248.44,91.7z M248.44,91.7h-49.88c-1.18,0.75-2.22,1.7-3.06,2.8
					v24.32h1.5v-17c0-4.41,3.59-8,8-8h37c4.41,0,8,3.59,8,8v17h2.5V96.01C251.53,94.26,250.13,92.78,248.44,91.7z M248.44,91.7
					h-49.88c-1.18,0.75-2.22,1.7-3.06,2.8v24.32h1.5v-17c0-4.41,3.59-8,8-8h37c4.41,0,8,3.59,8,8v17h2.5V96.01
					C251.53,94.26,250.13,92.78,248.44,91.7z M248.44,91.7h-49.88c-1.18,0.75-2.22,1.7-3.06,2.8v24.32h1.5v-17c0-4.41,3.59-8,8-8h37
					c4.41,0,8,3.59,8,8v17h2.5V96.01C251.53,94.26,250.13,92.78,248.44,91.7z M248.44,91.7h-49.88c-1.18,0.75-2.22,1.7-3.06,2.8
					v24.32h1.5v-17c0-4.41,3.59-8,8-8h37c4.41,0,8,3.59,8,8v17h2.5V96.01C251.53,94.26,250.13,92.78,248.44,91.7z M248.44,91.7
					h-49.88c-1.18,0.75-2.22,1.7-3.06,2.8v24.32h1.5v-17c0-4.41,3.59-8,8-8h37c4.41,0,8,3.59,8,8v17h2.5V96.01
					C251.53,94.26,250.13,92.78,248.44,91.7z M248.44,91.7h-49.88c-1.18,0.75-2.22,1.7-3.06,2.8v24.32h1.5v-17c0-4.41,3.59-8,8-8h37
					c4.41,0,8,3.59,8,8v17h2.5V96.01C251.53,94.26,250.13,92.78,248.44,91.7z"/>
			</g>
			<polygon fill="#D47631" points="256.04,195.82 253.96,199.24 248.36,195.82 243.44,192.82 207.56,192.82 202.64,195.82 
				197.04,199.24 194.96,195.82 206.44,188.82 244.56,188.82 			"/>
			<g>
				<path fill="#F0F2CB" d="M133,126.82v7h34v-7H133z M165,131.82h-30v-3h30V131.82z"/>
				<path fill="#D47631" d="M167,124.82h-34c-1.1,0-2,0.9-2,2v7c0,1.1,0.9,2,2,2h34c1.1,0,2-0.9,2-2v-7
					C169,125.72,168.1,124.82,167,124.82z M165,128.82v3h-30v-3H165z"/>
			</g>
			<g>
				<path fill="#F0F2CB" d="M135,119.82v7h29v-7H135z M137,124.82v-3h25v3H137z"/>
				<path fill="#D47631" d="M164,117.82h-29c-1.1,0-2,0.9-2,2v7c0,1.1,0.9,2,2,2h29c1.1,0,2-0.9,2-2v-7
					C166,118.72,165.1,117.82,164,117.82z M137,124.82v-3h25v3H137z"/>
			</g>
			<g>
				<path fill="#F0F2CB" d="M138,112.82v7h23v-7H138z M140,117.82v-3h19v3H140z"/>
				<path fill="#D47631" d="M161,110.82h-23c-1.1,0-2,0.9-2,2v7c0,1.1,0.9,2,2,2h23c1.1,0,2-0.9,2-2v-7
					C163,111.72,162.1,110.82,161,110.82z M159,117.82h-19v-3h19V117.82z"/>
			</g>
			<g>
				<path fill="#D47631" d="M134,24.82c0,1.1-0.9,2-2,2h-3c-1.1,0-2-0.9-2-2c0-1.1,0.9-2,2-2h3C133.1,22.82,134,23.72,134,24.82z"/>
				<path fill="#D47631" d="M155,24.82c0,1.1-0.9,2-2,2h-14c-1.1,0-2-0.9-2-2c0-1.1,0.9-2,2-2h14C154.1,22.82,155,23.72,155,24.82z"
					/>
				<path fill="#D47631" d="M134,31.82c0,1.1-0.9,2-2,2h-3c-1.1,0-2-0.9-2-2c0-1.1,0.9-2,2-2h3C133.1,29.82,134,30.72,134,31.82z"/>
				<path fill="#D47631" d="M155,31.82c0,1.1-0.9,2-2,2h-14c-1.1,0-2-0.9-2-2c0-1.1,0.9-2,2-2h14C154.1,29.82,155,30.72,155,31.82z"
					/>
				<path fill="#D47631" d="M134,38.82c0,1.1-0.9,2-2,2h-3c-1.1,0-2-0.9-2-2c0-1.1,0.9-2,2-2h3C133.1,36.82,134,37.72,134,38.82z"/>
				<path fill="#D47631" d="M155,38.82c0,1.1-0.9,2-2,2h-14c-1.1,0-2-0.9-2-2c0-1.1,0.9-2,2-2h14C154.1,36.82,155,37.72,155,38.82z"
					/>
				<path fill="#D47631" d="M134,45.82c0,1.1-0.9,2-2,2h-3c-1.1,0-2-0.9-2-2c0-1.1,0.9-2,2-2h3C133.1,43.82,134,44.72,134,45.82z"/>
				<path fill="#D47631" d="M155,45.82c0,1.1-0.9,2-2,2h-14c-1.1,0-2-0.9-2-2c0-1.1,0.9-2,2-2h14C154.1,43.82,155,44.72,155,45.82z"
					/>
				<path fill="#D47631" d="M160,12.82h-37c-1.1,0-2,0.9-2,2v42c0,1.1,0.9,2,2,2h37c1.1,0,2-0.9,2-2v-42
					C162,13.72,161.1,12.82,160,12.82z M158,54.82h-33v-38h33V54.82z"/>
			</g>
			<path fill="#D47631" d="M323,17.82h-45c-1.1,0-2,0.9-2,2v36c0,1.1,0.9,2,2,2h2.47l-0.43,6.75c-0.05,0.81,0.39,1.57,1.12,1.92
				c0.28,0.14,0.58,0.2,0.87,0.2c0.49,0,0.97-0.17,1.34-0.51l9.3-8.36H323c1.1,0,2-0.9,2-2v-36C325,18.72,324.1,17.82,323,17.82z
				 M321,53.82h-29.1c-0.5,0-0.97,0.18-1.34,0.51l-6.22,5.6l0.25-3.98c0.04-0.55-0.16-1.1-0.53-1.5c-0.38-0.4-0.91-0.63-1.46-0.63
				H280v-32h41V53.82z"/>
			<path fill="#D47631" d="M169,67.154c-0.512,0-1.024-0.195-1.414-0.586l-5-5c-0.781-0.781-0.781-2.047,0-2.828
				c0.78-0.781,2.048-0.781,2.828,0l5,5c0.781,0.781,0.781,2.047,0,2.828C170.024,66.959,169.512,67.154,169,67.154z"/>
			<path fill="#D47631" d="M222.233,61.82c-0.01,0-0.021,0-0.031,0c-1.104,0-1.986-1.081-1.969-2.186l0.161-10.526
				c0.018-1.104,0.9-2.003,2.031-2.008c1.104,0.017,1.986,0.907,1.969,2.011l-0.16,10.594
				C224.216,60.799,223.323,61.82,222.233,61.82z"/>
			<g>
				<path fill="#D47631" d="M223.37,0c-8.01,0-14.52,6.42-14.52,14.31c0,5.02,2.83,9.88,7.15,12.46v3.05c0,1.1,0.9,2,2,2h10
					c1.1,0,2-0.9,2-2V27c3.92-2.24,7.73-6.88,7.73-12.69C237.73,6.42,231.29,0,223.37,0z M227.18,23.95
					c-0.72,0.32-1.18,1.04-1.18,1.83v2.04h-6v-2.25c0-0.77-0.44-1.47-1.14-1.8c-3.59-1.72-6.01-5.52-6.01-9.46
					c0-5.68,4.72-10.31,10.52-10.31c5.71,0,10.36,4.63,10.36,10.31C233.73,18.72,230.44,22.49,227.18,23.95z"/>
				<path fill="#D47631" d="M230,28.09c-0.29-0.17-0.64-0.27-1-0.27h-12c-0.36,0-0.71,0.1-1,0.27c-0.6,0.35-1,0.99-1,1.73v6
					c0,1.1,0.9,2,2,2h12c1.1,0,2-0.9,2-2v-6C231,29.08,230.6,28.44,230,28.09z M219,33.82v-2h8v2H219z"/>
				<path fill="#D47631" d="M229,33.82h-12c-1.1,0-2,0.9-2,2v6c0,1.1,0.9,2,2,2h12c1.1,0,2-0.9,2-2v-6
					C231,34.72,230.1,33.82,229,33.82z M227,39.82h-8v-2h8V39.82z"/>
				<path fill="#D47631" d="M225,18.82v10c0,1.1-0.9,2-2,2s-2-0.9-2-2v-10c0-1.1,0.9-2,2-2S225,17.72,225,18.82z"/>
				<path fill="#D47631" d="M228.81,16.21L225,19.7l-0.65,0.6c-0.38,0.35-0.87,0.52-1.35,0.52c-0.51,0-1.02-0.19-1.41-0.58
					L221,19.66l-3.54-3.5c-0.78-0.78-0.79-2.05-0.01-2.83c0.78-0.79,2.04-0.79,2.83-0.02l2.77,2.75l3.06-2.8
					c0.81-0.75,2.08-0.69,2.83,0.12C229.68,14.2,229.63,15.46,228.81,16.21z"/>
			</g>
			<path fill="#D47631" d="M318,29.82c0,1.1-0.9,2-2,2h-30c-1.1,0-2-0.9-2-2c0-1.1,0.9-2,2-2h30C317.1,27.82,318,28.72,318,29.82z"
				/>
			<path fill="#D47631" d="M318,36.82c0,1.1-0.9,2-2,2h-30c-1.1,0-2-0.9-2-2c0-1.1,0.9-2,2-2h30C317.1,34.82,318,35.72,318,36.82z"
				/>
			<path fill="#D47631" d="M318,43.82c0,1.1-0.9,2-2,2h-30c-1.1,0-2-0.9-2-2c0-1.1,0.9-2,2-2h30C317.1,41.82,318,42.72,318,43.82z"
				/>
		</g>
	</g>
</g>
</svg>
