<?xml version="1.0" encoding="utf-8"?>
<!-- Generator: Adobe Illustrator 17.1.0, SVG Export Plug-In . SVG Version: 6.00 Build 0)  -->
<!DOCTYPE svg PUBLIC "-//W3C//DTD SVG 1.1//EN" "http://www.w3.org/Graphics/SVG/1.1/DTD/svg11.dtd">
<svg version="1.1" id="Layer_2" xmlns="http://www.w3.org/2000/svg" xmlns:xlink="http://www.w3.org/1999/xlink" x="0px" y="0px"
	 viewBox="0 0 447 191" enable-background="new 0 0 447 191" xml:space="preserve">
<g>
	<g>
		<g>
			<line fill="none" x1="2" y1="189" x2="445" y2="189"/>
			<path fill="#006A73" d="M447,189c0,1.1-0.9,2-2,2H2c-1.1,0-2-0.9-2-2c0-1.1,0.9-2,2-2h443C446.1,187,447,187.9,447,189z"/>
		</g>
	</g>
	<g>
		<g>
			<g>
				<rect x="172" y="169" fill="#63CCFF" width="15" height="3"/>
				<path fill="#63CCFF" d="M175.56,161h2.5l6.94-9.36v-3.37L175.56,161z M175.56,161h2.5l6.94-9.36v-3.37L175.56,161z M175.56,161
					h2.5l6.94-9.36v-3.37L175.56,161z M175.56,161h2.5l6.94-9.36v-3.37L175.56,161z M175.56,161h2.5l6.94-9.36v-3.37L175.56,161z
					 M175.56,161h2.5l6.94-9.36v-3.37L175.56,161z M175.56,161h2.5l6.94-9.36v-3.37L175.56,161z M172,124v41h15v-41H172z M174,128
					h3.79l-3.79,5.1V128z M185,161h-4.46l4.46-6.01V161z M185,148.27L175.56,161H174v-6.18l11-14.83V148.27z M185,133.27l-11,14.83
					v-8.28l8.77-11.82H185V133.27z M175.56,161h2.5l6.94-9.36v-3.37L175.56,161z M175.56,161h2.5l6.94-9.36v-3.37L175.56,161z
					 M175.56,161h2.5l6.94-9.36v-3.37L175.56,161z M175.56,161h2.5l6.94-9.36v-3.37L175.56,161z M175.56,161h2.5l6.94-9.36v-3.37
					L175.56,161z M175.56,161h2.5l6.94-9.36v-3.37L175.56,161z M175.56,161h2.5l6.94-9.36v-3.37L175.56,161z"/>
				<path fill="#006A73" d="M185,163v2h2v-2H185z M185,128v26.99l2-2.7V128H185z M185,163v2h2v-2H185z M185,128v26.99l2-2.7V128H185
					z M185,163v2h2v-2H185z M185,128v26.99l2-2.7V128H185z M185,163v2h2v-2H185z M185,128v26.99l2-2.7V128H185z M185,163v2h2v-2H185
					z M185,128v26.99l2-2.7V128H185z M185,163v2h2v-2H185z M185,128v26.99l2-2.7V128H185z M185,169v1h-11v-1h-4v3
					c0,0.36,0.1,0.71,0.27,1h18.46c0.17-0.29,0.27-0.64,0.27-1v-3H185z M170,124v41h4v-39h11v39h4v-41H170z M185,128v26.99l2-2.7
					V128H185z M185,163v2h2v-2H185z M185,128v26.99l2-2.7V128H185z M185,163v2h2v-2H185z M185,128v26.99l2-2.7V128H185z M185,163v2
					h2v-2H185z M185,128v26.99l2-2.7V128H185z M185,163v2h2v-2H185z M185,128v26.99l2-2.7V128H185z M185,163v2h2v-2H185z"/>
			</g>
			<g>
				<path fill="#63CCFF" d="M168,163v8h23v-8H168z M170,169v-4h19v4H170z"/>
				<path fill="#006A73" d="M191,161h-23c-1.1,0-2,0.9-2,2v8c0,1.1,0.9,2,2,2h23c1.1,0,2-0.9,2-2v-8C193,161.9,192.1,161,191,161z
					 M170,169v-4h19v4H170z"/>
			</g>
			<g>
				<path fill="#63CCFF" d="M168,119v7h23v-7H168z M189,124h-19v-3h19V124z"/>
				<path fill="#006A73" d="M192.73,118c-0.35-0.6-0.99-1-1.73-1h-23c-0.74,0-1.38,0.4-1.73,1c-0.17,0.29-0.27,0.64-0.27,1v7
					c0,1.1,0.9,2,2,2h23c1.1,0,2-0.9,2-2v-7C193,118.64,192.9,118.29,192.73,118z M189,124h-19v-3h19V124z"/>
			</g>
			<g>
				<line fill="none" x1="186.649" y1="134.415" x2="171.469" y2="154.874"/>
				<polygon fill="#006A73" points="188.532,135.435 188.004,136.145 186.004,138.845 175.004,153.675 174.074,154.925 
					173.004,154.125 172.474,153.725 171.004,152.635 170.864,152.535 171.004,152.345 173.004,149.655 175.004,146.955 
					186.004,132.125 186.044,132.075 187.654,133.275 188.004,133.535 				"/>
			</g>
			<g>
				<line fill="none" x1="186.649" y1="149.415" x2="176.467" y2="163.138"/>
				<polygon fill="#006A73" points="188.25,150.61 187,152.29 185,154.99 180.54,161 179.06,163 178.07,164.33 176.47,163.14 
					176.28,163 174.86,161.95 175.56,161 185,148.27 185.04,148.22 186.65,149.42 187,149.68 				"/>
			</g>
			<g>
				<line fill="none" x1="181.465" y1="126.401" x2="171.469" y2="139.874"/>
				<polygon fill="#006A73" points="183.07,127.59 182.77,128 174,139.82 173.07,141.07 172,140.27 171.47,139.87 170,138.78 
					170.864,137.86 170,138.49 172,135.8 174,133.1 177.79,128 179.27,126 179.86,125.21 180.93,126 181.47,126.4 				"/>
			</g>
		</g>
		<g>
			<g>
				<path fill="#006A73" d="M261,135.8l-2,2.69V161h2v2h2v-29.9L261,135.8z M261,135.8l-2,2.69V161h2v2h2v-29.9L261,135.8z
					 M261,135.8l-2,2.69V161h2v2h2v-29.9L261,135.8z M261,135.8l-2,2.69V161h2v2h2v-29.9L261,135.8z M261,135.8l-2,2.69V161h2v2h2
					v-29.9L261,135.8z M261,135.8l-2,2.69V161h2v2h2v-29.9L261,135.8z M261,139.16V163h2v-26.54L261,139.16z M261,139.16V163h2
					v-26.54L261,139.16z M261,139.16V163h2v-26.54L261,139.16z M261,139.16V163h2v-26.54L261,139.16z M261,139.16V163h2v-26.54
					L261,139.16z M261,139.16V163h2v-26.54L261,139.16z M261,139.16V163h2v-26.54L261,139.16z M261,150.8v4.47l1.08,0.8l0.92-1.24
					v-6.73L261,150.8z M259,124v41h4v-39h11v39h4v-41H259z M261,150.8v4.47l1.08,0.8l0.92-1.24v-6.73L261,150.8z M261,150.8V163h2
					v-14.9L261,150.8z M261,139.16V163h2v-26.54L261,139.16z M261,139.16V163h2v-26.54L261,139.16z M261,139.16V163h2v-26.54
					L261,139.16z M261,139.16V163h2v-26.54L261,139.16z M261,139.16V163h2v-26.54L261,139.16z M261,139.16V163h2v-26.54L261,139.16z
					 M261,139.16V163h2v-26.54L261,139.16z M261,135.8l-2,2.69V161h2v2h2v-29.9L261,135.8z M261,135.8l-2,2.69V161h2v2h2v-29.9
					L261,135.8z M261,135.8l-2,2.69V161h2v2h2v-29.9L261,135.8z M261,135.8l-2,2.69V161h2v2h2v-29.9L261,135.8z M261,135.8
					l-1.39,1.869L259,160.529l2,0.471v2h2v-29.9L261,135.8z"/>
			</g>
			<g>
				<path fill="#63CCFF" d="M257,163v8h23v-8H257z M259,169v-4h19v4H259z"/>
				<path fill="#006A73" d="M280,161h-23c-1.1,0-2,0.9-2,2v8c0,1.1,0.9,2,2,2h23c1.1,0,2-0.9,2-2v-8C282,161.9,281.1,161,280,161z
					 M259,169v-4h19v4H259z"/>
			</g>
			<g>
				<path fill="#63CCFF" d="M218,163v8h13v-8H218z M229,169h-9v-2.66c1.14,0.19,2.31,0.29,3.5,0.29c1.9,0,3.74-0.25,5.5-0.72V169z"
					/>
				<path fill="#006A73" d="M232.84,162.22c-0.3-0.71-1.02-1.22-1.84-1.22h-0.17c-2.23,1.05-4.71,1.63-7.33,1.63
					c-2.34,0-4.57-0.46-6.6-1.3c-0.54,0.36-0.9,0.97-0.9,1.67v8c0,1.1,0.9,2,2,2h13c1.1,0,2-0.9,2-2v-8
					C233,162.72,232.94,162.46,232.84,162.22z M229,169h-9v-4h9V169z"/>
			</g>
			<g>
				<path fill="#63CCFF" d="M257,119v7h23v-7H257z M278,124h-19v-3h19V124z"/>
				<path fill="#006A73" d="M281.73,118c-0.35-0.6-0.99-1-1.73-1h-23c-0.74,0-1.38,0.4-1.73,1c-0.17,0.29-0.27,0.64-0.27,1v7
					c0,1.1,0.9,2,2,2h23c1.1,0,2-0.9,2-2v-7C282,118.64,281.9,118.29,281.73,118z M278,124h-19v-3h19V124z"/>
			</g>
			<g>
				<line fill="none" x1="275.649" y1="134.415" x2="260.469" y2="154.874"/>
				<polygon fill="#006A73" points="277.25,135.61 276,137.3 274,139.99 263,154.83 262.08,156.07 261,155.27 260.47,154.87 
					259.802,153.6 259.802,153.6 259.61,152.669 261,150.8 263,148.1 274,133.27 274.04,133.22 275.65,134.42 276,134.68 				"/>
			</g>
			<g>
				<line fill="none" x1="275.649" y1="149.415" x2="265.467" y2="163.138"/>
				<polygon fill="#006A73" points="277.25,150.61 276,152.29 274,154.99 269.54,161 268.06,163 267.07,164.33 265.47,163.14 
					265.28,163 263.86,161.95 264.56,161 274,148.27 274.04,148.22 275.65,149.42 276,149.68 				"/>
			</g>
			<g>
				<line fill="none" x1="270.465" y1="126.401" x2="260.469" y2="139.874"/>
				<polygon fill="#006A73" points="272.07,127.59 271.77,128 263,139.83 262.08,141.07 261,140.27 260.47,139.87 259.61,137.669 
					259.61,137.669 259,138.49 261,135.8 263,133.1 266.79,128 268.27,126 268.86,125.21 269.93,126 270.47,126.4 				"/>
			</g>
		</g>
		<g>
			<path fill="#63CCFF" d="M247,180c0,1.1-0.9,2-2,2h-41c-1.1,0-2-0.9-2-2c0-1.1,0.9-2,2-2h41C246.1,178,247,178.9,247,180z"/>
			<path fill="#63CCFF" d="M149,171v18h150v-18H149z M151,187v-14h146v14H151z"/>
			<path fill="#006A73" d="M255,171v-2h-66v3c0,0.36-0.1,0.71-0.27,1H257C255.9,173,255,172.1,255,171z M255,171v-2h-66v3
				c0,0.36-0.1,0.71-0.27,1H257C255.9,173,255,172.1,255,171z M255,171v-2h-66v3c0,0.36-0.1,0.71-0.27,1H257
				C255.9,173,255,172.1,255,171z M255,171v-2h-66v3c0,0.36-0.1,0.71-0.27,1H257C255.9,173,255,172.1,255,171z M255,171v-2h-66v3
				c0,0.36-0.1,0.71-0.27,1H257C255.9,173,255,172.1,255,171z M255,171v-2h-66v3c0,0.36-0.1,0.71-0.27,1H257
				C255.9,173,255,172.1,255,171z M255,171h-66v1c0,0.36-0.1,0.71-0.27,1H257C255.9,173,255,172.1,255,171z M299,169H149
				c-1.1,0-2,0.9-2,2v18c0,1.1,0.9,2,2,2h150c1.1,0,2-0.9,2-2v-18C301,169.9,300.1,169,299,169z M297,187H151v-14h146V187z M255,171
				h-66v1c0,0.36-0.1,0.71-0.27,1H257C255.9,173,255,172.1,255,171z M255,171v-2h-66v3c0,0.36-0.1,0.71-0.27,1H257
				C255.9,173,255,172.1,255,171z M255,171v-2h-66v3c0,0.36-0.1,0.71-0.27,1H257C255.9,173,255,172.1,255,171z M255,171v-2h-66v3
				c0,0.36-0.1,0.71-0.27,1H257C255.9,173,255,172.1,255,171z M255,171v-2h-66v3c0,0.36-0.1,0.71-0.27,1H257
				C255.9,173,255,172.1,255,171z M255,171v-2h-66v3c0,0.36-0.1,0.71-0.27,1H257C255.9,173,255,172.1,255,171z"/>
		</g>
		<g>
			<path fill="#006A73" d="M285,109H164c-1.1,0-2,0.9-2,2v7c0,1.1,0.9,2,2,2h121c1.1,0,2-0.9,2-2v-7C287,109.9,286.1,109,285,109z
				 M283,116H166v-3h117V116z"/>
		</g>
		<path fill="#006A73" d="M247,180c0,1.1-0.9,2-2,2h-41c-1.1,0-2-0.9-2-2c0-1.1,0.9-2,2-2h41C246.1,178,247,178.9,247,180z"/>
		<g>
			<path fill="#63CCFF" d="M216.92,156.87c-0.09,0.15-0.25,0.24-0.42,0.24c-0.09,0-0.18-0.03-0.26-0.08
				c-4.1-2.54-6.55-6.93-6.55-11.73s2.45-9.19,6.55-11.73c0.23-0.15,0.54-0.08,0.68,0.16c0.15,0.23,0.08,0.54-0.16,0.69
				c-0.26,0.16-0.51,0.33-0.76,0.51c-3.34,2.41-5.31,6.22-5.31,10.37c0,4.14,1.97,7.96,5.31,10.37c0.25,0.18,0.5,0.35,0.76,0.51
				C217,156.33,217.07,156.63,216.92,156.87z"/>
			<path fill="#63CCFF" d="M226.74,153.29c0,0.2-0.14,0.31-0.41,0.31h-5.45c-0.23,0-0.37-0.04-0.42-0.11
				c-0.05-0.07-0.08-0.25-0.08-0.52c0-0.4,0.02-0.64,0.07-0.74c0.04-0.1,0.2-0.19,0.49-0.27c0.44-0.14,0.67-0.33,0.67-0.59v-11.85
				c-0.72,0.25-1.32,0.37-1.82,0.37c-0.25,0-0.37-0.14-0.37-0.41v-0.47c0-0.18,0.03-0.32,0.11-0.41c0.07-0.09,0.24-0.19,0.53-0.3
				c0.38-0.16,0.9-0.48,1.56-0.97c0.66-0.48,1.3-1.13,1.92-1.94c0.49-0.62,0.77-0.96,0.86-1.01c0.09-0.05,0.24-0.08,0.45-0.08h0.99
				v17.2c0,0.18,0.13,0.33,0.4,0.47c0.23,0.11,0.37,0.23,0.43,0.35C226.72,152.44,226.74,152.77,226.74,153.29z"/>
			<path fill="#63CCFF" d="M237.31,145.3c0,4.8-2.45,9.19-6.55,11.73c-0.08,0.05-0.17,0.08-0.26,0.08c-0.17,0-0.33-0.09-0.42-0.24
				c-0.05-0.09-0.08-0.17-0.08-0.26v-0.01c0-0.16,0.09-0.32,0.24-0.42c3.34-2.07,5.5-5.47,5.97-9.28c0.03-0.26,0.05-0.51,0.07-0.77
				c0.02-0.28,0.03-0.55,0.03-0.83c0-0.28-0.01-0.56-0.03-0.83c-0.02-0.26-0.04-0.52-0.07-0.77c-0.47-3.82-2.63-7.21-5.97-9.28
				c-0.15-0.1-0.24-0.26-0.24-0.43c0-0.09,0.03-0.18,0.08-0.26c0.14-0.24,0.45-0.31,0.68-0.16
				C234.86,136.11,237.31,140.5,237.31,145.3z"/>
			<path fill="#63CCFF" d="M223.5,125.96c-10.68,0-19.33,8.66-19.33,19.34c0,8.02,4.88,14.89,11.83,17.82
				c0.65,0.28,1.32,0.51,2,0.71c1.74,0.52,3.59,0.8,5.5,0.8c2.66,0,5.19-0.54,7.5-1.51c0.63-0.26,1.25-0.56,1.84-0.9
				c5.96-3.28,9.99-9.63,9.99-16.92C242.83,134.62,234.18,125.96,223.5,125.96z M230.83,161c-2.23,1.05-4.71,1.63-7.33,1.63
				c-2.34,0-4.57-0.46-6.6-1.3c-6.29-2.61-10.73-8.81-10.73-16.03c0-9.56,7.77-17.34,17.33-17.34s17.33,7.78,17.33,17.34
				C240.83,152.24,236.73,158.24,230.83,161z"/>
			<path fill="#006A73" d="M223.5,123.96c-11.76,0-21.33,9.58-21.33,21.34c0,9.12,5.76,16.93,13.83,19.96
				c0.65,0.26,1.32,0.47,2,0.65c0.65,0.18,1.32,0.32,2,0.43c1.14,0.19,2.31,0.29,3.5,0.29c1.9,0,3.74-0.25,5.5-0.72
				c0.68-0.18,1.35-0.39,2-0.65c0.68-0.25,1.35-0.54,2-0.87c7.01-3.5,11.83-10.74,11.83-19.09
				C244.83,133.54,235.26,123.96,223.5,123.96z M230.83,161c-2.23,1.05-4.71,1.63-7.33,1.63c-2.34,0-4.57-0.46-6.6-1.3
				c-6.29-2.61-10.73-8.81-10.73-16.03c0-9.56,7.77-17.34,17.33-17.34s17.33,7.78,17.33,17.34
				C240.83,152.24,236.73,158.24,230.83,161z"/>
		</g>
		<g>
			<g>
				<path fill="#006A73" d="M215,64v41h4V66h11v39h4V64H215z M232,62h-15c-0.74,0-1.38,0.4-1.73,1h18.46
					C233.38,62.4,232.74,62,232,62z"/>
			</g>
			<g>
				<path fill="#63CCFF" d="M213,103v8h23v-8H213z M215,109v-4h19v4H215z"/>
				<path fill="#006A73" d="M236,101h-23c-1.1,0-2,0.9-2,2v8c0,1.1,0.9,2,2,2h23c1.1,0,2-0.9,2-2v-8C238,101.9,237.1,101,236,101z
					 M215,109v-4h19v4H215z"/>
			</g>
			<g>
				<path fill="#006A73" d="M280,101h-23c-1.1,0-2,0.9-2,2v8c0,1.1,0.9,2,2,2h23c1.1,0,2-0.9,2-2v-8C282,101.9,281.1,101,280,101z
					 M259,109v-4h19v4H259z"/>
			</g>
			<g>
				<path fill="#006A73" d="M190,101h-23c-1.1,0-2,0.9-2,2v8c0,1.1,0.9,2,2,2h23c1.1,0,2-0.9,2-2v-8C192,101.9,191.1,101,190,101z
					 M169,109v-4h19v4H169z"/>
			</g>
			<g>
				<path fill="#63CCFF" d="M213,59v7h23v-7H213z M234,64h-19v-1h19V64z"/>
				<path fill="#006A73" d="M236,57h-23c-0.46,0-0.88,0.15-1.22,0.42c-0.21,0.16-0.38,0.35-0.51,0.58h26.46
					C237.38,57.4,236.74,57,236,57z M211,59v7c0,1.1,0.9,2,2,2h23c1.1,0,2-0.9,2-2v-7H211z M234,61v3h-19v-3H234z"/>
			</g>
			<g>
				<path fill="#63CCFF" d="M207,56v5h35v-5H207z M240,59h-31v-1h31V59z"/>
				<path fill="#006A73" d="M242,54h-35c-1.1,0-2,0.9-2,2v5c0,1.1,0.9,2,2,2h35c1.1,0,2-0.9,2-2v-5C244,54.9,243.1,54,242,54z
					 M240,59h-31v-1h31V59z"/>
			</g>
			<g>
				<line fill="none" x1="231.649" y1="89.415" x2="221.467" y2="103.138"/>
				
					<rect x="224.558" y="87.732" transform="matrix(0.8032 0.5958 -0.5958 0.8032 101.9506 -116.0221)" fill="#006A73" width="4" height="17.087"/>
			</g>
			<g>
				<line fill="none" x1="231.528" y1="74.415" x2="216.287" y2="94.957"/>
				<polygon fill="#006A73" points="217.893,96.149 215.467,92.706 230.292,72.686 233.135,75.607 				"/>
			</g>
			<g>
				<line fill="none" x1="227.076" y1="65.415" x2="216.287" y2="79.957"/>
				<polygon fill="#006A73" points="217.893,81.149 215.115,78.181 225.47,64.223 228.683,66.607 				"/>
			</g>
		</g>
		<g>
			<g>
				<path fill="#006A73" d="M274.66,82.52c-0.28-0.47-0.62-1.06-0.66-1.21v-5.6c0.92-1.15,1-2.54,1-3.53v-0.27
					c0-3.15-2.82-5.81-6.11-5.81c-3.18,0-5.73,2.55-5.73,5.81c0,1.52,0.67,3,1.84,4.12v4.94c-0.02,0.43-0.76,1.71-1.3,2.64
					c-1.41,2.43-3.34,5.76-3.34,9.79c0,2.57,0.35,5.4,1.53,7.6c0.39,0.75,0.89,1.43,1.5,2c1.24,1.17,2.96,1.9,5.33,1.9
					c2.14,0,3.96-0.67,5.39-1.9c0.65-0.55,1.21-1.22,1.69-2c1.19-1.93,1.84-4.5,1.84-7.6C277.64,87.64,275.77,84.44,274.66,82.52z
					 M267.16,85.61c1.03-1.77,1.84-3.17,1.84-4.63v-5.89c0-0.67-0.32-1.28-0.86-1.66c-0.45-0.3-0.95-0.88-0.95-1.52
					c0-1.03,0.74-1.81,1.7-1.81c1.06,0,2.11,0.88,2.11,1.81v0.3c0,0.35-0.04,0.89-0.1,1.01c-0.53,0.38-0.9,0.99-0.9,1.64v6.45
					c0,1.17,0.56,2.12,1.2,3.22c0.57,0.98,1.26,2.16,1.76,3.81c0.09,0.29,0.17,0.6,0.24,0.93c0.08,0.33,0.15,0.68,0.2,1.05
					c0.11,0.62,0.18,1.31,0.21,2.05c0.02,0.33,0.03,0.67,0.03,1.03c0,0.2,0,0.41-0.01,0.63c-0.01,0.39-0.04,0.81-0.1,1.23
					c-0.03,0.35-0.09,0.71-0.16,1.07c-0.16,0.81-0.42,1.61-0.81,2.31c-0.72,1.3-1.91,2.26-3.84,2.26c-1.35,0-2.71-0.35-3.55-2.21
					c-0.25-0.57-0.46-1.28-0.59-2.17c-0.05-0.3-0.1-0.63-0.13-0.98c-0.03-0.36-0.06-0.74-0.07-1.14c-0.01-0.32-0.02-0.65-0.02-1
					c0-0.29,0.02-0.58,0.05-0.86c0.06-0.67,0.2-1.33,0.4-1.96c0.1-0.36,0.22-0.72,0.36-1.06c0.11-0.28,0.22-0.55,0.35-0.82
					C266.02,87.58,266.62,86.55,267.16,85.61z"/>
			</g>
			<g>
				<path fill="#63CCFF" d="M262.11,95.612c2.47,1.441,9.675,2.47,13.38-0.412L262.11,95.612z"/>
				<path fill="#006A73" d="M268.904,99.042c-3.206,0-6.256-0.801-7.803-1.703l2.016-3.455c2.06,1.202,8.323,1.933,11.145-0.262
					l2.455,3.158C274.582,98.439,271.685,99.042,268.904,99.042z"/>
			</g>
			<g>
				<path fill="#63CCFF" d="M262.11,89.612c2.47,1.441,9.675,2.47,13.38-0.412L262.11,89.612z"/>
				<path fill="#006A73" d="M268.902,93.042c-3.205,0-6.254-0.8-7.801-1.702l2.016-3.455c2.06,1.202,8.323,1.932,11.145-0.263
					l2.455,3.157C274.582,92.439,271.684,93.042,268.902,93.042z"/>
			</g>
		</g>
		<g>
			<g>
				<path fill="#006A73" d="M183.66,82.52c-0.28-0.47-0.62-1.06-0.66-1.21v-5.6c0.92-1.15,0.91-2.54,0.9-3.53v-0.27
					c0-3.15-2.77-5.81-6.06-5.81c-3.18,0-5.68,2.55-5.68,5.81c0,1.52,0.67,3,1.84,4.12v4.94c-0.02,0.43-0.76,1.71-1.3,2.64
					c-1.41,2.43-3.34,5.76-3.34,9.79c0,2.57,0.35,5.4,1.53,7.6c0.39,0.75,0.89,1.43,1.5,2c1.24,1.17,2.96,1.9,5.33,1.9
					c2.14,0,3.96-0.67,5.39-1.9c0.65-0.55,1.21-1.22,1.69-2c1.19-1.93,1.84-4.5,1.84-7.6C186.64,87.64,184.77,84.44,183.66,82.52z
					 M176.16,85.61c1.03-1.77,1.84-3.17,1.84-4.63v-5.89c0-0.67-0.33-1.28-0.87-1.66c-0.45-0.3-0.97-0.88-0.97-1.52
					c0-1.03,0.73-1.81,1.68-1.81c1.06,0,2.06,0.88,2.06,1.81v0.3c0.01,0.35,0.01,0.89-0.05,1.01c-0.53,0.38-0.85,0.99-0.85,1.64
					v6.45c0,1.17,0.56,2.12,1.2,3.22c0.57,0.98,1.26,2.16,1.76,3.81c0.09,0.29,0.17,0.6,0.24,0.93c0.08,0.33,0.15,0.68,0.2,1.05
					c0.11,0.62,0.18,1.31,0.21,2.05c0.02,0.33,0.03,0.67,0.03,1.03c0,0.2,0,0.41-0.01,0.63c-0.01,0.39-0.04,0.81-0.1,1.23
					c-0.03,0.35-0.09,0.71-0.16,1.07c-0.16,0.81-0.42,1.61-0.81,2.31c-0.72,1.3-1.91,2.26-3.84,2.26c-1.35,0-2.71-0.35-3.55-2.21
					c-0.25-0.57-0.46-1.28-0.59-2.17c-0.05-0.3-0.1-0.63-0.13-0.98c-0.03-0.36-0.06-0.74-0.07-1.14c-0.01-0.32-0.02-0.65-0.02-1
					c0-0.29,0.02-0.58,0.05-0.86c0.06-0.67,0.2-1.33,0.4-1.96c0.1-0.36,0.22-0.72,0.36-1.06c0.11-0.28,0.22-0.55,0.35-0.82
					C175.02,87.58,175.62,86.55,176.16,85.61z"/>
			</g>
			<g>
				<path fill="#63CCFF" d="M171.11,95.612c2.47,1.441,9.675,2.47,13.38-0.412L171.11,95.612z"/>
				<path fill="#006A73" d="M177.904,99.042c-3.206,0-6.255-0.801-7.802-1.703l2.016-3.455c2.06,1.201,8.323,1.932,11.145-0.262
					l2.456,3.158C183.582,98.439,180.685,99.042,177.904,99.042z"/>
			</g>
			<g>
				<path fill="#63CCFF" d="M171.11,89.612c2.47,1.441,9.675,2.47,13.38-0.412L171.11,89.612z"/>
				<path fill="#006A73" d="M177.903,93.042c-3.206,0-6.254-0.8-7.801-1.703l2.016-3.455c2.059,1.202,8.325,1.932,11.145-0.263
					l2.456,3.157C183.582,92.439,180.684,93.042,177.903,93.042z"/>
			</g>
		</g>
		<g>
			<path fill="#006A73" d="M226.67,152.32c-0.06-0.12-0.2-0.24-0.43-0.35c-0.27-0.14-0.4-0.29-0.4-0.47v-17.2h-0.99
				c-0.21,0-0.36,0.03-0.45,0.08c-0.09,0.05-0.37,0.39-0.86,1.01c-0.62,0.81-1.26,1.46-1.92,1.94c-0.66,0.49-1.18,0.81-1.56,0.97
				c-0.29,0.11-0.46,0.21-0.53,0.3c-0.08,0.09-0.11,0.23-0.11,0.41v0.47c0,0.27,0.12,0.41,0.37,0.41c0.5,0,1.1-0.12,1.82-0.37v11.85
				c0,0.26-0.23,0.45-0.67,0.59c-0.29,0.08-0.45,0.17-0.49,0.27c-0.05,0.1-0.07,0.34-0.07,0.74c0,0.27,0.03,0.45,0.08,0.52
				c0.05,0.07,0.19,0.11,0.42,0.11h5.45c0.27,0,0.41-0.11,0.41-0.31C226.74,152.77,226.72,152.44,226.67,152.32z"/>
		</g>
		<g>
			<g>
				<path fill="#63CCFF" d="M210.69,145.3c0,4.14,1.97,7.96,5.31,10.37v0.94c-3-2.35-6.31-6.53-6.31-11.31
					c0-4.78,3.31-8.96,6.31-11.31v0.94C212.66,137.34,210.69,141.15,210.69,145.3z"/>
				<path fill="#006A73" d="M216.92,156.87c-0.09,0.15-0.25,0.24-0.42,0.24c-0.09,0-0.18-0.03-0.26-0.08
					c-4.1-2.54-6.55-6.93-6.55-11.73s2.45-9.19,6.55-11.73c0.23-0.15,0.54-0.08,0.68,0.16c0.15,0.23,0.08,0.54-0.16,0.69
					c-0.26,0.16-0.51,0.33-0.76,0.51c-3.34,2.41-5.31,6.22-5.31,10.37c0,4.14,1.97,7.96,5.31,10.37c0.25,0.18,0.5,0.35,0.76,0.51
					C217,156.33,217.07,156.63,216.92,156.87z"/>
			</g>
			<g>
				<path fill="#63CCFF" d="M236.21,146.9c-0.45,4.11-2.66,7.63-6.21,9.71v-0.01c0-0.16,0.09-0.32,0.24-0.42
					C233.58,154.11,235.74,150.71,236.21,146.9z"/>
				<path fill="#63CCFF" d="M230.24,134.42c-0.15-0.1-0.24-0.26-0.24-0.43c3.55,2.08,5.76,5.6,6.21,9.71
					C235.74,139.88,233.58,136.49,230.24,134.42z"/>
				<path fill="#006A73" d="M237.31,145.3c0,4.8-2.45,9.19-6.55,11.73c-0.08,0.05-0.17,0.08-0.26,0.08c-0.17,0-0.33-0.09-0.42-0.24
					c-0.05-0.09-0.08-0.17-0.08-0.26v-0.01c0-0.16,0.09-0.32,0.24-0.42c3.34-2.07,5.5-5.47,5.97-9.28c0.03-0.26,0.05-0.51,0.07-0.77
					c0.02-0.28,0.03-0.55,0.03-0.83c0-0.28-0.01-0.56-0.03-0.83c-0.02-0.26-0.04-0.52-0.07-0.77c-0.47-3.82-2.63-7.21-5.97-9.28
					c-0.15-0.1-0.24-0.26-0.24-0.43c0-0.09,0.03-0.18,0.08-0.26c0.14-0.24,0.45-0.31,0.68-0.16
					C234.86,136.11,237.31,140.5,237.31,145.3z"/>
			</g>
		</g>
		<path fill="#63CCFF" d="M235.365,7.781L235.365,7.781z"/>
		<g>
			<path fill="#63CCFF" d="M243.79,30.37l-1.07,0.8l-0.93-0.9l-7.49-7.26l-0.61-1.63l-1.62-4.3c0.29-0.36,0.54-0.7,0.75-1.01
				l0.84-0.48l1.8-1.03l0.17-0.1l0.08,0.31l0.71,2.67h0.01l0.05,0.21l1.29,4.83l5.31,6.95L243.79,30.37z"/>
			<path fill="#006A73" d="M245.77,30.64c-0.08,0.53-0.36,1.01-0.78,1.33l-0.08,0.06l-0.99,0.74c-0.36,0.27-0.78,0.4-1.2,0.4
				c-0.16,0-0.32-0.02-0.47-0.07c-0.34-0.07-0.66-0.24-0.92-0.49l-0.74-0.72l-7.69-7.44c-0.21-0.2-0.37-0.46-0.48-0.73l-0.25-0.68
				l-0.8-2.13l-0.79-2.1c0.57-0.62,1.06-1.2,1.49-1.73c0.29-0.36,0.54-0.7,0.75-1.01s0.39-0.58,0.52-0.83
				c-0.35-0.37-0.67-0.78-0.98-1.21l1.2-0.68l0.55-0.32l0.53-0.3c0.24-0.14,0.5-0.23,0.77-0.25c0.31-0.04,0.62,0,0.92,0.11
				c0.02,0.01,0.05,0.02,0.07,0.03c0.45,0.19,0.81,0.53,1.01,0.95c0.07,0.12,0.11,0.25,0.15,0.38l0.06,0.24l0.39,1.45l0.52,1.94
				l1.07,4l5.78,7.57c0.1,0.13,0.18,0.27,0.24,0.42C245.77,29.9,245.82,30.27,245.77,30.64z"/>
		</g>
		<g>
			<polygon fill="#63CCFF" points="220.085,29.605 221.2,38.248 210.51,49.206 212.648,50.542 224.674,40.119 223.872,32.101 			"/>
			<path fill="#006A73" d="M225.84,31.78l-1.01-1.44l0.14,0.09C225.45,30.74,225.76,31.23,225.84,31.78z"/>
			<path fill="#006A73" d="M226.61,40.59c-0.09,0.4-0.31,0.76-0.63,1.04l-10.73,9.3l-1.29,1.12c-0.09,0.08-0.19,0.15-0.29,0.21
				c-0.31,0.19-0.66,0.28-1.02,0.28c-0.37,0-0.74-0.1-1.06-0.3l-2.14-1.34c-0.31-0.19-0.56-0.46-0.73-0.78
				c-0.1-0.21-0.17-0.44-0.2-0.68c-0.07-0.6,0.14-1.2,0.56-1.63l1.34-1.38c0.01,0,0.01,0,0.01,0l8.66-8.89l-0.95-7.4l-0.04-0.28
				c-0.1-0.78,0.26-1.54,0.93-1.95c0.2-0.13,0.42-0.21,0.65-0.26c0.51-0.1,1.05-0.01,1.51,0.29l0.58,0.38
				c0.03,0.16,0.08,0.32,0.14,0.46c0.49,1.08,2.24,3.21,4.18,5.38l0.33,3.31l0.24,2.45C226.68,40.15,226.67,40.38,226.61,40.59z"/>
		</g>
		<g>
			<path fill="#63CCFF" d="M235.41,12.48c-0.1-0.39-0.25-0.74-0.45-1.05c-0.43-0.66-1.1-1.12-2.11-1.31h-0.01
				c-0.1-0.02-0.21-0.04-0.33-0.06c-0.59-0.07-1.29-0.06-2.11,0.02c-0.87,0.11-1.89,0.31-3.06,0.63l-11.62,1.54l-5.76,6.89
				L208.41,21v0.01l-0.44,0.52l1.34,1.08l1.44-1.12l1.72-1.34l3.78-2.94l7.75-0.75l-2.85,5.93c0,0-1.51,2.69-1.47,5.26
				c0.01,0.68,0.13,1.34,0.41,1.95c0.58,1.27,2.29,3.39,4.07,5.4c0.77,0.87,1.55,1.73,2.26,2.47c1.43,1.54,2.53,2.65,2.53,2.65
				l-2.87,10.46l-0.54,1.96l-0.18,0.67l-0.01,0.02l-0.14,0.52l0.06-0.01l2.34-0.53l0.18-0.47l0.76-1.93l4.68-12.03l-8.29-11.76
				c0,0,3.46-2.93,6.43-6.11c0.53-0.56,1.04-1.12,1.51-1.68c0.79-0.92,1.47-1.82,1.95-2.63c0.44-0.73,0.73-1.38,0.78-1.92
				c0.02-0.08,0.02-0.15,0.02-0.22C235.63,13.73,235.57,13.06,235.41,12.48z M230.58,18.81c-1.82,2.04-4.31,4.46-6.93,6.69
				c-0.79,0.67-0.94,1.83-0.34,2.68l1.52,2.16l1.01,1.44l5.13,7.28l-0.14,0.37c-0.1-0.27-0.25-0.51-0.46-0.72
				c-1.22-1.22-2.81-2.89-4.28-4.55c-1.94-2.17-3.69-4.3-4.18-5.38c-0.06-0.14-0.11-0.3-0.14-0.46c-0.39-1.67,0.68-4.15,1.13-4.95
				c0.02-0.04,0.04-0.08,0.06-0.12l2.84-5.92c0.32-0.65,0.25-1.42-0.16-2.01c-0.38-0.54-0.99-0.86-1.64-0.86
				c-0.06,0-0.13,0.01-0.19,0.01l-7.75,0.75c-0.09,0.01-0.17,0.03-0.25,0.04l0.95-1.13l10.84-1.44c0.09-0.01,0.17-0.02,0.26-0.05
				c1.31-0.35,2.42-0.55,3.32-0.61c0.33,0.69,0.74,1.37,1.18,2c0.31,0.43,0.63,0.84,0.98,1.21c-0.13,0.25-0.31,0.52-0.52,0.83
				s-0.46,0.65-0.75,1.01C231.64,17.61,231.15,18.19,230.58,18.81z"/>
			<path fill="#006A73" d="M233.34,15.24c-0.13,0.25-0.31,0.52-0.52,0.83l0.84-0.48C233.55,15.48,233.44,15.36,233.34,15.24z
				 M237.62,14.19c0-0.19-0.01-0.37-0.02-0.54c-0.06-0.02-0.12-0.05-0.19-0.08c-0.2-0.42-0.56-0.76-1.01-0.95
				c-0.02-0.01-0.05-0.02-0.07-0.03c-0.39-0.44-0.79-0.99-1.14-1.57c0.25-0.46,0.53-0.97,0.79-1.47c0,0,0,0,0-0.01
				c-0.55-0.55-1.21-0.92-1.91-1.15c-0.62-0.22-1.28-0.32-1.92-0.36h-0.14c-0.13-0.01-0.26-0.01-0.39-0.01
				c-0.5,0-1.03,0.03-1.61,0.11c-0.92,0.11-1.94,0.31-3.07,0.62l-11.48,1.52c-0.5,0.06-0.95,0.31-1.28,0.7l-6.77,8.12l-0.97,1.16
				c-0.33,0.38-0.49,0.87-0.47,1.37c0,0.03,0,0.07,0.01,0.1c0.05,0.54,0.32,1.03,0.74,1.36l0.31,0.25l1.03,0.84
				c0.72,0.58,1.75,0.59,2.48,0.02l0.33-0.25l1.59-1.25l1.58-1.22l2.98-2.32l3.64-0.35l-1.28,2.67c-0.41,0.74-2.65,5.08-1.24,8.67
				c0.04,0.1,0.08,0.19,0.12,0.29c0.42,0.92,1.31,2.18,2.39,3.51c1.19,1.49,2.6,3.08,3.84,4.41c0.83,0.89,1.57,1.67,2.12,2.24
				c0.04,0.04,0.08,0.07,0.11,0.11l-2.97,10.83c-0.01,0.01-0.01,0.02-0.01,0.03l-0.33,1.19l-0.01,0.03l-0.12,0.44
				c-0.06,0.21-0.08,0.41-0.06,0.62c-0.01,0.05,0,0.11,0.02,0.16c0.04,0.42,0.22,0.81,0.52,1.13c0.38,0.4,0.91,0.62,1.45,0.62
				c0.1,0,0.18-0.01,0.28-0.04h0.07c0.03,0,0.05,0,0.08-0.01l2.41-0.53c0.63-0.14,1.15-0.58,1.4-1.17c0.01-0.02,0.02-0.04,0.03-0.06
				l0.19-0.47v-0.01l0.72-1.87l4.7-12.08c0.24-0.63,0.16-1.33-0.23-1.88l-7.24-10.28c1.83-1.6,3.33-3.04,4.55-4.31
				c0.57-0.59,1.07-1.14,1.52-1.66c1.31-1.5,2.2-2.73,2.79-3.73c0.03-0.05,0.06-0.11,0.09-0.16c0.43-0.75,0.7-1.36,0.85-1.85v-0.01
				c0.16-0.52,0.21-0.9,0.21-1.17C237.63,14.37,237.63,14.28,237.62,14.19z M232.07,17.08c-0.43,0.53-0.92,1.11-1.49,1.73
				c-1.82,2.04-4.31,4.46-6.93,6.69c-0.79,0.67-0.94,1.83-0.34,2.68l1.52,2.16l1.01,1.44l5.13,7.28l-0.14,0.37
				c-0.1-0.27-0.25-0.51-0.46-0.72c-1.22-1.22-2.81-2.89-4.28-4.55c-1.94-2.17-3.69-4.3-4.18-5.38c-0.06-0.14-0.11-0.3-0.14-0.46
				c-0.39-1.67,0.68-4.15,1.13-4.95c0.02-0.04,0.04-0.08,0.06-0.12l2.84-5.92c0.32-0.65,0.25-1.42-0.16-2.01
				c-0.38-0.54-0.99-0.86-1.64-0.86c-0.06,0-0.13,0.01-0.19,0.01l-7.75,0.75c-0.09,0.01-0.17,0.03-0.25,0.04l0.95-1.13l10.84-1.44
				c0.09-0.01,0.17-0.02,0.26-0.05c1.31-0.35,2.42-0.55,3.32-0.61c0.15-0.01,0.3-0.01,0.44-0.01c1.19,0,1.76,0.13,1.94,1.33
				c0.05,0.3,0.07,0.66,0.07,1.1c-0.02,0.2-0.12,0.47-0.29,0.79c-0.13,0.25-0.31,0.52-0.52,0.83S232.36,16.72,232.07,17.08z"/>
		</g>
		<g>
			<path fill="#006A73" d="M214,26.5c0,3.038-2.462,5.5-5.5,5.5l0,0c-3.038,0-5.5-2.462-5.5-5.5l0,0c0-3.038,2.462-5.5,5.5-5.5l0,0
				C211.538,21,214,23.462,214,26.5L214,26.5z"/>
			<path fill="#006A73" d="M214.04,21.47c-0.45-0.52-0.98-0.96-1.57-1.32c-0.75-0.48-1.6-0.83-2.51-1.01
				C209.49,19.05,209,19,208.5,19c-0.37,0-0.73,0.03-1.09,0.09c-3.62,0.52-6.41,3.64-6.41,7.41c0,4.14,3.36,7.5,7.5,7.5
				s7.5-3.36,7.5-7.5C216,24.56,215.26,22.8,214.04,21.47z M212,26.5c0,1.93-1.57,3.5-3.5,3.5s-3.5-1.57-3.5-3.5
				c0-1.4,0.83-2.62,2.03-3.17c0.45-0.21,0.95-0.33,1.47-0.33c0.91,0,1.75,0.35,2.37,0.94C211.57,24.57,212,25.49,212,26.5z"/>
		</g>
		<g>
			<path fill="#63CCFF" d="M244.391,33.546c-0.604,0.925-1.492,1.414-1.985,1.093l0,0c-0.493-0.321-0.403-1.332,0.201-2.257l0,0
				c0.604-0.925,1.492-1.414,1.985-1.093l0,0C245.085,31.611,244.995,32.621,244.391,33.546L244.391,33.546z"/>
			<path fill="#006A73" d="M242.76,36.738c-0.521,0-1.021-0.146-1.446-0.424c-1.463-0.955-1.627-3.115-0.381-5.024
				c0.857-1.314,2.094-2.099,3.307-2.099c0.521,0,1.021,0.146,1.446,0.424c1.463,0.955,1.627,3.115,0.381,5.024
				C245.209,35.954,243.973,36.738,242.76,36.738z"/>
		</g>
		<g>
			<polygon fill="#63CCFF" points="210.777,48.404 208.362,50.423 213.182,56 215.682,56 216.122,55.27 213.717,52.372 
				212.781,50.344 			"/>
			<path fill="#006A73" d="M217.98,56c-0.04,0.1-0.09,0.2-0.15,0.3l-0.42,0.7l-0.02,0.03c-0.36,0.6-1.01,0.97-1.71,0.97h-2.5
				c-0.53,0-1.04-0.21-1.4-0.58c-0.04-0.04-0.08-0.07-0.11-0.11L210.54,56l-1.73-2l-1.96-2.27c-0.35-0.4-0.52-0.93-0.48-1.47
				c0.04-0.53,0.3-1.03,0.71-1.37l2.41-2.02c0.27-0.23,0.6-0.38,0.93-0.44c0.01,0,0.01,0,0.01,0c0.61-0.1,1.26,0.08,1.74,0.54
				l0.27,0.26l1.73,1.68c0.06,0.06,0.12,0.12,0.15,0.18c0.12,0.13,0.21,0.27,0.28,0.42l0.65,1.42l0.17,0.37l2.24,2.69l0.01,0.01
				C218.13,54.57,218.24,55.34,217.98,56z"/>
		</g>
		<g>
			<polygon fill="#63CCFF" points="225.473,52.531 224.936,55.688 230.688,55.912 234.185,55.428 234.011,54.52 230.287,53.77 
				228.266,52.778 			"/>
			<path fill="#006A73" d="M230.688,57.913c-0.026,0-0.052,0-0.078-0.001l-5.752-0.225c-0.575-0.022-1.112-0.292-1.475-0.739
				c-0.363-0.447-0.516-1.028-0.419-1.595l0.537-3.156c0.176-1.027,1.115-1.745,2.147-1.657l2.793,0.247
				c0.245,0.021,0.484,0.088,0.705,0.197l1.789,0.878l3.47,0.699c0.796,0.16,1.416,0.785,1.569,1.582l0.175,0.908
				c0.104,0.539-0.019,1.097-0.338,1.543c-0.319,0.446-0.808,0.741-1.352,0.816l-3.498,0.485
				C230.871,57.906,230.779,57.913,230.688,57.913z"/>
		</g>
		<g>
			<path fill="#63CCFF" d="M237.54,2.01C237.46,2,237.38,2,237.3,2h-0.6c-0.18,0-0.36,0.01-0.53,0.03
				c-0.09,0.01-0.17,0.02-0.26,0.04c-0.64,0.09-1.21,0.31-1.71,0.64c-0.08,0.05-0.17,0.1-0.25,0.16c-1.23,0.93-1.94,2.49-1.95,4.28
				c0,0-0.01,0.01,0,0.02v0.59c0,0.09,0,0.18,0.01,0.27c0.04,0.61,0.22,1.3,0.5,2.03c0.37,1,0.94,2.05,1.6,2.97
				c0.42,0.58,0.88,1.1,1.35,1.53c0.05,0.04,0.1,0.09,0.15,0.12c0.03,0.04,0.07,0.06,0.1,0.09c0.57,0.46,1.15,0.78,1.71,0.86v0.01
				c0.2,0.03,0.4,0.03,0.59,0c0.02,0,0.05-0.01,0.07-0.01c2.59-0.51,4.92-5,4.92-7.87V7.17C243,4.37,240.33,2.13,237.54,2.01z
				 M237.71,13.67c-0.03,0-0.07-0.01-0.11-0.02c-0.06-0.02-0.12-0.05-0.19-0.08c-0.2-0.42-0.56-0.76-1.01-0.95
				c-0.02-0.01-0.05-0.02-0.07-0.03c-0.39-0.44-0.79-0.99-1.14-1.57c0.25-0.46,0.53-0.97,0.79-1.47c0,0,0,0,0-0.01
				c0.47-0.89,0.87-1.72,0.96-2.12c1.56,0.86,2.95,1.11,3.99,1.12C240.58,10.79,238.85,13.4,237.71,13.67z"/>
			<path fill="#006A73" d="M237.3,0h-0.6c-3.88,0-6.7,3.01-6.7,7.17v0.59c0,0.12,0,0.24,0.01,0.37c0.04,0.6,0.17,1.26,0.39,1.95
				c0.19,0.64,0.46,1.3,0.78,1.95c0.33,0.69,0.74,1.37,1.18,2c0.31,0.43,0.63,0.84,0.98,1.21c0.1,0.12,0.21,0.24,0.32,0.35
				c0.38,0.38,0.77,0.72,1.17,1.01c0.51,0.37,1.05,0.66,1.59,0.84h0.01c0.05,0.02,0.09,0.04,0.14,0.05
				c0.38,0.12,0.77,0.18,1.16,0.18c0.25,0,0.5-0.03,0.74-0.07c0.02,0,0.04-0.01,0.06-0.02c3.9-0.83,6.47-6.44,6.47-9.82V7.17
				C245,3.35,241.4,0,237.3,0z M237.71,13.67c-0.03,0-0.07-0.01-0.11-0.02c-0.06-0.02-0.12-0.05-0.19-0.08
				c-0.31-0.17-0.69-0.52-1.08-0.98c-0.39-0.44-0.79-0.99-1.14-1.57c-0.53-0.87-0.96-1.81-1.12-2.63C234.02,8.17,234,7.96,234,7.76
				V7.17c0-1.58,0.84-3.17,2.7-3.17h0.6c1.9,0,3.7,1.54,3.7,3.17v0.59c0,0.25-0.02,0.51-0.07,0.78
				C240.58,10.79,238.85,13.4,237.71,13.67z"/>
		</g>
		<path fill="#006A73" d="M242.91,8.24c0,0-0.75,0.31-1.98,0.3c-1.04-0.01-2.43-0.26-3.99-1.12c-0.09,0.4-0.49,1.23-0.96,2.12
			c0,0.01,0,0.01,0,0.01c-0.26,0.5-0.54,1.01-0.79,1.47c-0.08,0.14-0.15,0.28-0.23,0.41c-0.41,0.73-0.72,1.26-0.72,1.26
			s-0.75-1.09-1.39-2.57h-0.01c-0.27-0.64-0.53-1.35-0.69-2.09c-0.07-0.28-0.12-0.57-0.15-0.86c-0.01-0.01,0-0.02,0-0.02
			c-0.16-1.42,0.11-2.82,1.31-3.82c0.21-0.17,0.42-0.33,0.64-0.46c0.08-0.06,0.17-0.11,0.25-0.16c0.55-0.32,1.13-0.53,1.71-0.64
			c0.09-0.02,0.17-0.03,0.26-0.04c0.46-0.07,0.92-0.08,1.37-0.02C240.07,2.3,242.39,4.44,242.91,8.24z"/>
	</g>
</g>
</svg>
