<?xml version="1.0" encoding="utf-8"?>
<!-- Generator: Adobe Illustrator 17.1.0, SVG Export Plug-In . SVG Version: 6.00 Build 0)  -->
<!DOCTYPE svg PUBLIC "-//W3C//DTD SVG 1.1//EN" "http://www.w3.org/Graphics/SVG/1.1/DTD/svg11.dtd">
<svg version="1.1" id="Layer_3" xmlns="http://www.w3.org/2000/svg" xmlns:xlink="http://www.w3.org/1999/xlink" x="0px" y="0px"
	 viewBox="0 0 447 162.036" enable-background="new 0 0 447 162.036" xml:space="preserve">
<g>
	<g>
		<path fill="#006A73" d="M382.927,148.987c-7.984,0-14.479-6.495-14.479-14.479s6.495-14.479,14.479-14.479
			s14.479,6.495,14.479,14.479S390.912,148.987,382.927,148.987z M382.927,124.028c-5.778,0-10.479,4.701-10.479,10.479
			s4.701,10.479,10.479,10.479s10.479-4.701,10.479-10.479S388.706,124.028,382.927,124.028z"/>
	</g>
	<path fill="#006A73" d="M377.448,132.597c0,0-1.412,14.391,5.48,14.391s12.479-5.587,12.479-12.479
		c0-6.892-5.587-12.479-12.479-12.479c-4.461,0-9.023,4.557-9.023,4.557L377.448,132.597z"/>
	<g>
		<path fill="#006A73" d="M396.215,161.454c-1.104,0-2-0.896-2-2c0-6.945-3.798-10.467-11.288-10.467
			c-4.534,0-12.142,1.359-12.142,10.467c0,1.104-0.896,2-2,2s-2-0.896-2-2c0-8.924,6.186-14.467,16.142-14.467
			c9.716,0,15.288,5.272,15.288,14.467C398.215,160.559,397.32,161.454,396.215,161.454z"/>
	</g>
	<g>
		<path fill="#006A73" d="M347.927,148.987c-7.984,0-14.479-6.495-14.479-14.479s6.495-14.479,14.479-14.479
			s14.479,6.495,14.479,14.479S355.912,148.987,347.927,148.987z M347.927,124.028c-5.778,0-10.479,4.701-10.479,10.479
			s4.701,10.479,10.479,10.479s10.479-4.701,10.479-10.479S353.706,124.028,347.927,124.028z"/>
	</g>
	<path fill="#006A73" d="M342.448,132.597c0,0-1.412,14.391,5.48,14.391s12.479-5.587,12.479-12.479
		c0-6.892-5.587-12.479-12.479-12.479c-4.461,0-9.023,4.557-9.023,4.557L342.448,132.597z"/>
	<g>
		<path fill="#006A73" d="M361.215,161.454c-1.104,0-2-0.896-2-2c0-6.945-3.798-10.467-11.288-10.467
			c-4.534,0-12.142,1.359-12.142,10.467c0,1.104-0.896,2-2,2s-2-0.896-2-2c0-8.924,6.186-14.467,16.142-14.467
			c9.716,0,15.288,5.272,15.288,14.467C363.215,160.559,362.32,161.454,361.215,161.454z"/>
	</g>
	<g>
		<path fill="#006A73" d="M312.927,148.987c-7.984,0-14.479-6.495-14.479-14.479s6.495-14.479,14.479-14.479
			s14.479,6.495,14.479,14.479S320.912,148.987,312.927,148.987z M312.927,124.028c-5.778,0-10.479,4.701-10.479,10.479
			s4.701,10.479,10.479,10.479s10.479-4.701,10.479-10.479S318.706,124.028,312.927,124.028z"/>
	</g>
	<path fill="#006A73" d="M307.448,132.597c0,0-1.412,14.391,5.48,14.391s12.479-5.587,12.479-12.479
		c0-6.892-5.587-12.479-12.479-12.479c-4.461,0-9.023,4.557-9.023,4.557L307.448,132.597z"/>
	<g>
		<path fill="#006A73" d="M326.215,161.454c-1.104,0-2-0.896-2-2c0-6.945-3.798-10.467-11.288-10.467
			c-4.534,0-12.142,1.359-12.142,10.467c0,1.104-0.896,2-2,2s-2-0.896-2-2c0-8.924,6.186-14.467,16.142-14.467
			c9.716,0,15.288,5.272,15.288,14.467C328.215,160.559,327.32,161.454,326.215,161.454z"/>
	</g>
	<g>
		<circle fill="#94D0E9" cx="277.928" cy="134.508" r="12.479"/>
		<path fill="#006A73" d="M277.927,148.987c-7.984,0-14.479-6.495-14.479-14.479s6.495-14.479,14.479-14.479
			s14.479,6.495,14.479,14.479S285.912,148.987,277.927,148.987z M277.927,124.028c-5.778,0-10.479,4.701-10.479,10.479
			s4.701,10.479,10.479,10.479s10.479-4.701,10.479-10.479S283.706,124.028,277.927,124.028z"/>
	</g>
	<path fill="#006A73" d="M265.001,133.698c0,0,1.205,13.661,12.926,13.29c6.889-0.218,12.479-5.587,12.479-12.479
		c0-6.892-5.587-12.479-12.479-12.479c-4.461,0-9.023,4.557-9.023,4.557L265.001,133.698z"/>
	<g>
		<path fill="#006A73" d="M291.215,161.454c-1.104,0-2-0.896-2-2c0-6.945-3.798-10.467-11.288-10.467
			c-4.534,0-12.142,1.359-12.142,10.467c0,1.104-0.896,2-2,2s-2-0.896-2-2c0-8.924,6.186-14.467,16.142-14.467
			c9.716,0,15.288,5.272,15.288,14.467C293.215,160.559,292.32,161.454,291.215,161.454z"/>
	</g>
	<g>
		<circle fill="#94D0E9" cx="242.928" cy="134.508" r="12.479"/>
		<path fill="#006A73" d="M242.927,148.987c-7.984,0-14.479-6.495-14.479-14.479s6.495-14.479,14.479-14.479
			s14.479,6.495,14.479,14.479S250.912,148.987,242.927,148.987z M242.927,124.028c-5.778,0-10.479,4.701-10.479,10.479
			s4.701,10.479,10.479,10.479s10.479-4.701,10.479-10.479S248.706,124.028,242.927,124.028z"/>
	</g>
	<path fill="#006A73" d="M229.643,135.305c0,0,6.393,11.683,13.285,11.683s12.479-5.587,12.479-12.479
		c0-6.892-5.587-12.479-12.479-12.479c-4.461,0-9.023,4.557-9.023,4.557L229.643,135.305z"/>
	<g>
		<path fill="#006A73" d="M256.215,161.454c-1.104,0-2-0.896-2-2c0-6.945-3.798-10.467-11.288-10.467
			c-4.534,0-12.142,1.359-12.142,10.467c0,1.104-0.896,2-2,2s-2-0.896-2-2c0-8.924,6.186-14.467,16.142-14.467
			c9.716,0,15.288,5.272,15.288,14.467C258.215,160.559,257.32,161.454,256.215,161.454z"/>
	</g>
	<g>
		<path fill="#006A73" d="M64.073,148.987c-7.984,0-14.479-6.495-14.479-14.479s6.495-14.479,14.479-14.479
			s14.479,6.495,14.479,14.479S72.057,148.987,64.073,148.987z M64.073,124.028c-5.778,0-10.479,4.701-10.479,10.479
			s4.701,10.479,10.479,10.479s10.479-4.701,10.479-10.479S69.852,124.028,64.073,124.028z"/>
	</g>
	<path fill="#006A73" d="M69.553,132.597c0,0,1.412,14.391-5.48,14.391s-12.479-5.587-12.479-12.479
		c0-6.892,5.587-12.479,12.479-12.479c4.461,0,9.023,4.557,9.023,4.557L69.553,132.597z"/>
	<g>
		<path fill="#006A73" d="M78.216,161.454c-1.104,0-2-0.896-2-2c0-9.107-7.608-10.467-12.143-10.467
			c-7.49,0-11.288,3.521-11.288,10.467c0,1.104-0.896,2-2,2s-2-0.896-2-2c0-9.194,5.572-14.467,15.288-14.467
			c9.957,0,16.143,5.543,16.143,14.467C80.216,160.559,79.32,161.454,78.216,161.454z"/>
	</g>
	<g>
		<path fill="#006A73" d="M99.073,148.987c-7.984,0-14.479-6.495-14.479-14.479s6.495-14.479,14.479-14.479
			s14.479,6.495,14.479,14.479S107.057,148.987,99.073,148.987z M99.073,124.028c-5.778,0-10.479,4.701-10.479,10.479
			s4.701,10.479,10.479,10.479s10.479-4.701,10.479-10.479S104.852,124.028,99.073,124.028z"/>
	</g>
	<path fill="#006A73" d="M104.553,132.597c0,0,1.412,14.391-5.48,14.391c-6.892,0-12.479-5.587-12.479-12.479
		c0-6.892,5.587-12.479,12.479-12.479c4.461,0,9.023,4.557,9.023,4.557L104.553,132.597z"/>
	<g>
		<path fill="#006A73" d="M113.216,161.454c-1.104,0-2-0.896-2-2c0-9.107-7.608-10.467-12.143-10.467
			c-7.49,0-11.288,3.521-11.288,10.467c0,1.104-0.896,2-2,2s-2-0.896-2-2c0-9.194,5.572-14.467,15.288-14.467
			c9.957,0,16.143,5.543,16.143,14.467C115.216,160.559,114.32,161.454,113.216,161.454z"/>
	</g>
	<g>
		<path fill="#006A73" d="M134.073,148.987c-7.984,0-14.479-6.495-14.479-14.479s6.495-14.479,14.479-14.479
			s14.479,6.495,14.479,14.479S142.057,148.987,134.073,148.987z M134.073,124.028c-5.778,0-10.479,4.701-10.479,10.479
			s4.701,10.479,10.479,10.479s10.479-4.701,10.479-10.479S139.852,124.028,134.073,124.028z"/>
	</g>
	<path fill="#006A73" d="M139.553,132.597c0,0,1.412,14.391-5.48,14.391c-6.892,0-12.479-5.587-12.479-12.479
		c0-6.892,5.587-12.479,12.479-12.479c4.461,0,9.023,4.557,9.023,4.557L139.553,132.597z"/>
	<g>
		<path fill="#006A73" d="M148.216,161.454c-1.104,0-2-0.896-2-2c0-9.107-7.608-10.467-12.143-10.467
			c-7.49,0-11.288,3.521-11.288,10.467c0,1.104-0.896,2-2,2s-2-0.896-2-2c0-9.194,5.572-14.467,15.288-14.467
			c9.957,0,16.143,5.543,16.143,14.467C150.216,160.559,149.32,161.454,148.216,161.454z"/>
	</g>
	<g>
		<circle fill="#94D0E9" cx="169.073" cy="134.508" r="12.479"/>
		<path fill="#006A73" d="M169.073,148.987c-7.984,0-14.479-6.495-14.479-14.479s6.495-14.479,14.479-14.479
			s14.479,6.495,14.479,14.479S177.057,148.987,169.073,148.987z M169.073,124.028c-5.778,0-10.479,4.701-10.479,10.479
			s4.701,10.479,10.479,10.479s10.479-4.701,10.479-10.479S174.852,124.028,169.073,124.028z"/>
	</g>
	<path fill="#006A73" d="M182.237,137.252c0,0-6.272,9.735-13.164,9.735s-12.479-5.587-12.479-12.479
		c0-6.892,5.587-12.479,12.479-12.479c4.461,0,9.023,4.557,9.023,4.557L182.237,137.252z"/>
	<g>
		<path fill="#006A73" d="M183.216,161.454c-1.104,0-2-0.896-2-2c0-9.107-7.608-10.467-12.143-10.467
			c-7.49,0-11.288,3.521-11.288,10.467c0,1.104-0.896,2-2,2s-2-0.896-2-2c0-9.194,5.572-14.467,15.288-14.467
			c9.957,0,16.143,5.543,16.143,14.467C185.216,160.559,184.32,161.454,183.216,161.454z"/>
	</g>
	<g>
		<circle fill="#94D0E9" cx="204.073" cy="134.508" r="12.479"/>
		<path fill="#006A73" d="M204.073,148.987c-7.984,0-14.479-6.495-14.479-14.479s6.495-14.479,14.479-14.479
			s14.479,6.495,14.479,14.479S212.057,148.987,204.073,148.987z M204.073,124.028c-5.778,0-10.479,4.701-10.479,10.479
			s4.701,10.479,10.479,10.479s10.479-4.701,10.479-10.479S209.852,124.028,204.073,124.028z"/>
	</g>
	<path fill="#006A73" d="M217.58,134.903c0,0-3.616,12.858-13.506,12.084c-6.871-0.537-12.479-5.587-12.479-12.479
		c0-6.892,5.587-12.479,12.479-12.479c4.461,0,9.023,4.557,9.023,4.557L217.58,134.903z"/>
	<g>
		<path fill="#006A73" d="M218.216,161.454c-1.104,0-2-0.896-2-2c0-9.107-7.608-10.467-12.143-10.467
			c-7.49,0-11.288,3.521-11.288,10.467c0,1.104-0.896,2-2,2s-2-0.896-2-2c0-9.194,5.572-14.467,15.288-14.467
			c9.957,0,16.143,5.543,16.143,14.467C220.216,160.559,219.32,161.454,218.216,161.454z"/>
	</g>
	<path fill="#006A73" d="M223.102,108.095c-29.802,0-54.047-24.245-54.047-54.047C169.055,24.246,193.3,0,223.102,0
		s54.048,24.246,54.048,54.047C277.15,83.85,252.904,108.095,223.102,108.095z M223.102,4c-27.596,0-50.047,22.451-50.047,50.047
		s22.451,50.047,50.047,50.047c27.597,0,50.048-22.451,50.048-50.047S250.699,4,223.102,4z"/>
	<path fill="#006A73" d="M199.401,38.296c-6.37,0-11.53,5.16-11.53,11.53s5.16,11.53,11.53,11.53c6.36,0,11.53-5.16,11.53-11.53
		S205.76,38.296,199.401,38.296z M198.69,51.516c-0.93,0-1.69-0.75-1.69-1.69c0-0.93,0.76-1.69,1.69-1.69
		c0.94,0,1.69,0.76,1.69,1.69C200.38,50.766,199.63,51.516,198.69,51.516z"/>
	<path fill="#006A73" d="M246.67,38.296c-6.37,0-11.53,5.16-11.53,11.53s5.16,11.53,11.53,11.53s11.53-5.16,11.53-11.53
		S253.04,38.296,246.67,38.296z M246.67,51.516c-0.94,0-1.69-0.75-1.69-1.69c0-0.93,0.75-1.69,1.69-1.69c0.93,0,1.69,0.76,1.69,1.69
		C248.36,50.766,247.6,51.516,246.67,51.516z"/>
	<path fill="#006A73" d="M222.931,85.53l-1.279-1.222c-6.16-5.884-8.034-14.896-9.687-22.847
		c-2.332-11.216-4.187-18.091-12.568-18.091v-4c12.06,0,14.309,10.816,16.484,21.277c1.471,7.074,2.988,14.369,7.253,19.407
		c4.722-4.873,6.419-12.562,8.064-20.018c2.242-10.16,4.562-20.667,15.47-20.667v4c-7.323,0-9.165,6.661-11.563,17.528
		c-1.853,8.392-3.951,17.902-10.806,23.511L222.931,85.53z"/>
	<path fill="#006A73" d="M223.26,41.68c-1.104,0-2-0.896-2-2c0-12.231-9.951-22.182-22.182-22.182
		c-5.646,0-11.205,2.143-15.252,5.879c-0.81,0.75-2.076,0.7-2.826-0.113c-0.749-0.812-0.699-2.077,0.113-2.826
		c4.777-4.41,11.326-6.94,17.965-6.94c10.883,0,20.237,6.675,24.182,16.145c3.946-9.47,13.299-16.145,24.182-16.145
		c6.926,0,13.463,2.723,18.408,7.668c0.781,0.781,0.781,2.047,0,2.828c-0.781,0.781-2.047,0.781-2.828,0
		c-4.189-4.189-9.723-6.497-15.58-6.497c-12.231,0-22.183,9.951-22.183,22.182C225.259,40.785,224.365,41.68,223.26,41.68z"/>
	<path fill="#D4522D" stroke="#003C40" stroke-width="2.9174" stroke-miterlimit="10" d="M223.117,42.824"/>
	<line fill="#00B7C4" x1="2" y1="160.252" x2="445" y2="159.454"/>
	<path fill="#006A73" d="M2,162.036c-1.103,0-1.999-0.785-2-1.888c-0.002-1.105,0.892-2.156,1.997-2.158l443-0.953
		c0.002,0,0.003,0,0.004,0c1.104,0,1.998,1.102,2,2.206c0.003,1.105-0.892,1.998-1.996,2.001l-443,0.793
		C2.003,162.036,2.001,162.036,2,162.036z"/>
</g>
</svg>
