<?xml version="1.0" encoding="utf-8"?>
<!-- Generator: Adobe Illustrator 17.0.0, SVG Export Plug-In . SVG Version: 6.00 Build 0)  -->
<!DOCTYPE svg PUBLIC "-//W3C//DTD SVG 1.1//EN" "http://www.w3.org/Graphics/SVG/1.1/DTD/svg11.dtd">
<svg version="1.1" id="Layer_1" xmlns="http://www.w3.org/2000/svg" xmlns:xlink="http://www.w3.org/1999/xlink" x="0px" y="0px"
	 width="54px" height="55px" viewBox="0 0 54 55" enable-background="new 0 0 54 55" xml:space="preserve">
<g>
	<path fill-rule="evenodd" clip-rule="evenodd" fill="#00A1E8" d="M26.264,19.334c0.614-0.001,0.671-0.487,0.67-1.459l-0.004-4.421
		c-0.001-0.972-0.058-1.456-0.672-1.456c-0.615,0.001-0.672,0.485-0.671,1.457l0.004,4.421
		C25.592,18.848,25.65,19.335,26.264,19.334z"/>
	<path fill-rule="evenodd" clip-rule="evenodd" fill="#00A1E8" d="M26.944,0C12.309,0.013,0.455,11.887,0.467,26.522
		C0.48,41.158,12.354,53.013,26.99,53c14.634-0.013,26.49-11.888,26.477-26.523C53.455,11.842,41.578-0.012,26.944,0z
		 M32.254,10.085l0.007,7.971c0,0.459,0.001,0.699,0.019,0.762c0.048,0.304,0.201,0.459,0.468,0.458
		c0.401,0,0.821-0.304,1.264-0.919l-0.007-8.274l2.002-0.002l0.009,10.827l-2.002,0.002l-0.001-1.181
		c-0.794,0.895-1.549,1.332-2.284,1.332c-0.645,0.001-1.089-0.256-1.289-0.805c-0.11-0.328-0.177-0.844-0.178-1.609l-0.007-8.561
		L32.254,10.085z M24.151,11.363c0.526-0.718,1.26-1.078,2.208-1.079c0.954-0.001,1.579,0.358,2.107,1.075
		c0.399,0.531,0.477,1.352,0.478,2.475l0.003,3.681c0.001,1.116-0.079,1.944-0.478,2.472c-0.527,0.717-1.211,1.077-2.165,1.078
		c-0.948,0.001-1.648-0.358-2.175-1.074c-0.405-0.527-0.554-1.355-0.555-2.471l-0.003-3.681
		C23.571,12.716,23.747,11.895,24.151,11.363z M18.445,6.825l1.504,5.536l1.435-5.538l2.135-0.002l-2.631,8.393l0.005,5.714
		l-2.015,0.002l-0.005-5.714c-0.001-1.013-0.614-2.495-1.293-4.46c-0.446-1.307-0.91-2.622-1.356-3.928L18.445,6.825z
		 M41.854,41.029c-0.379,1.658-1.735,2.882-3.367,3.066c-3.866,0.435-7.779,0.441-11.675,0.442
		c-3.896,0.006-7.809,0.007-11.675-0.422c-1.633-0.181-2.989-1.402-3.371-3.06c-0.545-2.361-0.547-4.938-0.549-7.369
		c-0.002-2.432,0.002-5.008,0.543-7.372c0.379-1.657,1.734-2.881,3.366-3.065c3.865-0.436,7.778-0.441,11.675-0.443
		c3.895-0.005,7.808-0.007,11.675,0.423c1.632,0.181,2.989,1.402,3.372,3.059c0.545,2.362,0.545,4.938,0.547,7.371
		C42.397,36.089,42.396,38.667,41.854,41.029z"/>
	<path fill-rule="evenodd" clip-rule="evenodd" fill="#00A1E8" d="M32.768,31.06c-0.253-0.779-0.757-1.174-1.508-1.173
		c-0.693,0.001-1.338,0.38-1.945,1.13l-0.004-4.558l-1.884,0.002l0.012,13.956l1.884-0.002l-0.001-1.009
		c0.63,0.779,1.277,1.151,1.947,1.15c0.751-0.001,1.254-0.396,1.506-1.17c0.125-0.441,0.189-1.134,0.188-2.095L32.96,33.15
		C32.959,32.166,32.894,31.479,32.768,31.06z M30.261,38.844c-0.31,0-0.624-0.148-0.939-0.462l-0.005-6.339
		c0.315-0.31,0.629-0.458,0.938-0.459c0.544,0,0.82,0.481,0.821,1.419l0.004,4.438C31.08,38.38,30.805,38.843,30.261,38.844z"/>
	<polygon fill-rule="evenodd" clip-rule="evenodd" fill="#00A1E8" points="20.104,26.467 13.535,26.472 13.537,28.437 
		15.753,28.435 15.763,40.427 17.859,40.425 17.849,28.434 20.106,28.432 	"/>
	<path fill-rule="evenodd" clip-rule="evenodd" fill="#00A1E8" d="M23.914,30.021l0.007,7.947c-0.417,0.591-0.813,0.882-1.19,0.883
		c-0.252,0-0.396-0.148-0.441-0.44c-0.018-0.06-0.018-0.291-0.018-0.732l-0.007-7.656l-1.883,0.002l0.007,8.222
		c0.001,0.735,0.063,1.23,0.167,1.545c0.189,0.527,0.607,0.773,1.215,0.773c0.693-0.001,1.404-0.42,2.152-1.279l0.001,1.135
		l1.886-0.002L25.8,30.019L23.914,30.021z"/>
	<path fill-rule="evenodd" clip-rule="evenodd" fill="#00A1E8" d="M38.151,36.805c0.001,0.756-0.023,1.174-0.04,1.276
		c-0.107,0.504-0.378,0.756-0.842,0.756c-0.647,0.001-0.962-0.479-0.963-1.442l-0.002-1.843l3.767-0.003l-0.002-2.154
		c-0.001-1.111-0.191-1.923-0.585-2.449c-0.528-0.712-1.279-1.065-2.224-1.065c-0.962,0.001-1.712,0.356-2.255,1.068
		c-0.4,0.526-0.581,1.339-0.58,2.45l0.003,3.643c0.001,1.105,0.207,1.926,0.607,2.445c0.545,0.709,1.295,1.064,2.281,1.063
		c0.984-0.001,1.756-0.374,2.278-1.129c0.228-0.335,0.376-0.713,0.439-1.13c0.017-0.189,0.04-0.607,0.039-1.213l0-0.276
		L38.151,36.805z M36.303,33.022c-0.001-0.962,0.314-1.443,0.943-1.444c0.624-0.001,0.94,0.481,0.94,1.442l0.001,0.962l-1.884,0.002
		L36.303,33.022z"/>
</g>
</svg>
