<?xml version="1.0" encoding="utf-8"?>
<!-- Generator: Adobe Illustrator 17.0.0, SVG Export Plug-In . SVG Version: 6.00 Build 0)  -->
<!DOCTYPE svg PUBLIC "-//W3C//DTD SVG 1.1//EN" "http://www.w3.org/Graphics/SVG/1.1/DTD/svg11.dtd">
<svg version="1.1" id="Layer_1" xmlns="http://www.w3.org/2000/svg" xmlns:xlink="http://www.w3.org/1999/xlink" x="0px" y="0px"
	 width="54px" height="55px" viewBox="0 0 54 55" enable-background="new 0 0 54 55" xml:space="preserve">
<g>
	<g>
		<path fill="#2A9FD9" d="M27.323,22.413c0-3.402-2.061-8.693-6.039-8.693c-1.25,0-2.59,0.495-3.358,1.441
			c-0.817,0.992-1.055,2.385-1.055,3.614c0,3.165,1.869,8.41,5.995,8.41c1.198,0,2.49-0.685,3.26-1.441
			C27.228,24.655,27.323,23.264,27.323,22.413z"/>
		<path fill="#2A9FD9" d="M24.727,34.722c-0.381-0.048-0.621-0.048-1.099-0.048c-0.432,0-3.022,0.095-5.037,0.758
			c-1.055,0.378-4.124,1.51-4.124,4.865c0,3.355,3.31,5.766,8.44,5.766c4.605,0,7.051-2.177,7.051-5.103
			C29.957,38.546,28.375,37.274,24.727,34.722z"/>
		<path fill="#2A9FD9" d="M26.845,0.867c-14.611,0-26.456,11.844-26.456,26.455c0,14.611,11.845,26.456,26.456,26.456
			c14.61,0,26.456-11.845,26.456-26.456C53.301,12.712,41.454,0.867,26.845,0.867z M20.425,48.079
			c-6.953,0-10.172-3.294-10.172-6.791c0-1.702,0.862-4.109,3.693-5.765c2.971-1.795,7.002-2.03,9.16-2.174
			c-0.674-0.851-1.44-1.748-1.44-3.211c0-0.803,0.241-1.277,0.479-1.843c-0.53,0.046-1.055,0.093-1.537,0.093
			c-5.079,0-7.958-3.734-7.958-7.416c0-2.173,0.677-4.74,2.737-6.488c2.733-2.22,6.227-2.488,8.818-2.488l9.998-0.19l-3.105,1.705
			h-2.841c1.1,2,3.287,2.825,3.287,6.418c0,3.495-2.015,5.248-4.029,6.805c-0.623,0.614-1.343,1.325-1.343,2.365
			c0,1.038,0.72,1.629,1.246,2.056l1.728,1.331c2.111,1.75,4.028,3.363,4.028,6.624C33.175,43.551,28.673,48.079,20.425,48.079z
			 M41.529,31.51v4h-3v-4h-4v-3h4v-4h3v4h4v3H41.529z"/>
	</g>
</g>
</svg>
