<?xml version="1.0" encoding="utf-8"?>
<!-- Generator: Adobe Illustrator 17.0.0, SVG Export Plug-In . SVG Version: 6.00 Build 0)  -->
<!DOCTYPE svg PUBLIC "-//W3C//DTD SVG 1.1//EN" "http://www.w3.org/Graphics/SVG/1.1/DTD/svg11.dtd">
<svg version="1.1" id="Layer_1" xmlns="http://www.w3.org/2000/svg" xmlns:xlink="http://www.w3.org/1999/xlink" x="0px" y="0px"
	 width="54px" height="55px" viewBox="0 0 54 55" enable-background="new 0 0 54 55" xml:space="preserve">
<path fill="#279ED9" d="M26.78,1.5C12.183,1.5,0.35,13.333,0.35,27.93s11.833,26.43,26.43,26.43s26.43-11.833,26.43-26.43
	S41.377,1.5,26.78,1.5z M39.876,21.763c0.015,0.311,0,0.567,0,0.881c0,9.557-6.96,21.144-20.263,21.144
	c-4.083,0-8.253-2.351-11.453-4.405c0.565,0.068,7.929,0,10.572-2.643c-3.162-0.058-5.471-1.999-6.392-4.873
	c0,0,2.231,0.468,3.112-0.413c-3.307-0.665-5.923-3.299-5.923-6.802c0-0.031,0-0.061,0-0.091c0,0.54,2.093,0.689,3.28,0.727
	c-1.939-1.297-2.765-3.661-2.765-6.167c0-1.327,0.2-2.457,0.82-3.524c3.57,4.376,8.938,7.628,14.946,7.929
	c-0.121-0.529-0.259-1.24-0.259-1.808c0-3.994,3.244-7.231,7.237-7.231c2.079,0,3.962,0.878,5.281,2.284
	c1.65-0.321,2.689-0.293,4.451-2.055c0,1.762-1.547,3.406-3.037,4.3c0,0,2.618-0.198,3.917-0.776
	C42.428,19.691,41.291,20.745,39.876,21.763z"/>
</svg>
