<?xml version="1.0" encoding="utf-8"?>
<!-- Generator: Adobe Illustrator 17.0.0, SVG Export Plug-In . SVG Version: 6.00 Build 0)  -->
<!DOCTYPE svg PUBLIC "-//W3C//DTD SVG 1.1//EN" "http://www.w3.org/Graphics/SVG/1.1/DTD/svg11.dtd">
<svg version="1.1" id="Layer_1" xmlns="http://www.w3.org/2000/svg" xmlns:xlink="http://www.w3.org/1999/xlink" x="0px" y="0px"
	 width="54px" height="54px" viewBox="0 0 54 54" enable-background="new 0 0 54 54" xml:space="preserve">
<path fill="#279ED9" d="M26.971,1.01c-14.597,0-26.508,11.833-26.508,26.43c0,12.787,10.066,23.1,21.066,25.549V36.01h-3v-8h3
	c0,0,0-4.383,0-7.72c0-5.184,4.091-9.649,11.485-9.649c2.987,0,5.515,0.06,5.515,0.06v6.309c0,0-1.17,0-3.629,0
	c-2.665,0-2.371,2.142-2.371,4.213c0,0.204,0,6.787,0,6.787h6.776l-0.881,8h-5.895V52.99c12-2.449,21.008-12.762,21.008-25.549
	C53.537,12.844,41.568,1.01,26.971,1.01z"/>
</svg>
