<?xml version="1.0" encoding="utf-8"?>
<!-- Generator: Adobe Illustrator 17.0.0, SVG Export Plug-In . SVG Version: 6.00 Build 0)  -->
<!DOCTYPE svg PUBLIC "-//W3C//DTD SVG 1.1//EN" "http://www.w3.org/Graphics/SVG/1.1/DTD/svg11.dtd">
<svg version="1.1" id="Layer_1" xmlns="http://www.w3.org/2000/svg" xmlns:xlink="http://www.w3.org/1999/xlink" x="0px" y="0px"
	 width="54px" height="55px" viewBox="0 0 54 55" enable-background="new 0 0 54 55" xml:space="preserve">
<g>
	<path fill="#279ED9" d="M27.078,1C12.482,1,0.648,12.833,0.648,27.43c0,14.597,11.833,26.43,26.43,26.43
		c14.597,0,26.43-11.833,26.43-26.43C53.508,12.833,41.675,1,27.078,1z M39.529,41.019c0,1.65-1.072,3.492-2.722,3.492h-20
		c-1.65,0-3.278-1.842-3.278-3.492v-25c0-1.65,1.628-2.508,3.278-2.508h6.722v-2.545c-1-0.168-2.111-0.506-2.111-1.2
		c0-0.825,1.489-1.254,3.139-1.254h4.5c1.65,0,2.861,0.429,2.861,1.254c0,0.695-0.389,1.032-2.389,1.2v2.545h7.278
		c1.65,0,2.722,0.858,2.722,2.508V41.019z"/>
	<g>
		<polygon fill="#279ED9" points="29.428,22.69 27.307,24.812 25.185,22.69 24.478,23.398 26.599,25.519 24.478,27.64 
			25.185,28.347 27.307,26.226 29.428,28.347 30.135,27.64 28.014,25.519 30.135,23.398 		"/>
		<polygon fill="#279ED9" points="22.428,22.69 20.307,24.812 18.185,22.69 17.478,23.398 19.599,25.519 17.478,27.64 
			18.185,28.347 20.307,26.226 22.428,28.347 23.135,27.64 21.014,25.519 23.135,23.398 		"/>
		<polygon fill="#279ED9" points="37.135,23.398 36.428,22.69 34.307,24.812 32.185,22.69 31.478,23.398 33.599,25.519 
			31.478,27.64 32.185,28.347 34.307,26.226 36.428,28.347 37.135,27.64 35.014,25.519 		"/>
	</g>
</g>
</svg>
