<?xml version="1.0" encoding="utf-8"?>
<!-- Generator: Adobe Illustrator 17.0.0, SVG Export Plug-In . SVG Version: 6.00 Build 0)  -->
<!DOCTYPE svg PUBLIC "-//W3C//DTD SVG 1.1//EN" "http://www.w3.org/Graphics/SVG/1.1/DTD/svg11.dtd">
<svg version="1.1" id="Layer_1" xmlns="http://www.w3.org/2000/svg" xmlns:xlink="http://www.w3.org/1999/xlink" x="0px" y="0px"
	 width="32.112px" height="32.112px" viewBox="0 0 32.112 32.112" enable-background="new 0 0 32.112 32.112" xml:space="preserve">
<path fill="#6BB6EA" d="M16.056,0C7.189,0,0,7.189,0,16.056s7.189,16.056,16.056,16.056s16.056-7.189,16.056-16.056
	S24.923,0,16.056,0z M24.619,12.31c0.009,0.189,0,0.344,0,0.535c0,5.806-4.228,12.845-12.31,12.845c-2.48,0-5.014-1.428-6.958-2.676
	c0.343,0.041,4.817,0,6.422-1.606c-1.921-0.035-3.323-1.215-3.883-2.96c0,0,0.913,0.284,1.449-0.251
	c-2.009-0.404-4.04-2.004-4.04-4.132c0-0.019,0-0.037,0-0.055c0,0.328,1.713,0.418,2.434,0.441
	c-1.178-0.788-1.459-2.224-1.459-3.746c0-0.806,0.232-1.492,0.609-2.141c2.169,2.658,5.485,4.634,9.135,4.817
	c-0.074-0.321-0.13-0.753-0.13-1.098c0-2.426,1.985-4.393,4.41-4.393c1.263,0,2.414,0.533,3.215,1.387
	c1.002-0.195,1.637-0.178,2.708-1.249c0,1.07-0.938,2.069-1.843,2.612c0,0,1.592-0.12,2.38-0.472
	C26.169,11.051,25.479,11.691,24.619,12.31z"/>
</svg>
