<?xml version="1.0" encoding="utf-8"?>
<!-- Generator: Adobe Illustrator 17.0.0, SVG Export Plug-In . SVG Version: 6.00 Build 0)  -->
<!DOCTYPE svg PUBLIC "-//W3C//DTD SVG 1.1//EN" "http://www.w3.org/Graphics/SVG/1.1/DTD/svg11.dtd">
<svg version="1.1" id="Layer_1" xmlns="http://www.w3.org/2000/svg" xmlns:xlink="http://www.w3.org/1999/xlink" x="0px" y="0px"
	 width="30px" height="25px" viewBox="0 0 30 25" enable-background="new 0 0 30 25" xml:space="preserve">
<path fill="#279ED9" enable-background="new    " d="M26.675,6.392c0.012,0.258,0,0.47,0,0.73c0,7.916-5.765,17.513-16.783,17.513
	c-3.382,0-6.836-1.947-9.486-3.649c0.468,0.056,6.567,0,8.757-2.189c-2.619-0.048-4.531-1.656-5.294-4.036
	c0,0,1.977,0.387,2.706-0.342c-2.739-0.551-4.777-2.733-4.777-5.634c0-0.026,0-0.05,0-0.076c0,0.447,1.604,0.57,2.588,0.602
	C2.779,8.237,2.03,6.278,2.03,4.203c0-1.1,0.133-2.035,0.647-2.919c2.957,3.624,7.387,6.318,12.364,6.567
	c-0.1-0.438-0.222-1.027-0.222-1.497c0-3.308,2.683-5.989,5.99-5.989c1.722,0,3.28,0.727,4.372,1.892
	c1.367-0.266,2.226-0.243,3.686-1.702c0,1.459-1.282,2.821-2.516,3.562c0,0,2.169-0.164,3.244-0.643
	C28.789,4.676,27.848,5.549,26.675,6.392z"/>
</svg>
