<?xml version="1.0" encoding="utf-8"?>
<!-- Generator: Adobe Illustrator 17.0.0, SVG Export Plug-In . SVG Version: 6.00 Build 0)  -->
<!DOCTYPE svg PUBLIC "-//W3C//DTD SVG 1.1//EN" "http://www.w3.org/Graphics/SVG/1.1/DTD/svg11.dtd">
<svg version="1.1" id="Layer_1" xmlns="http://www.w3.org/2000/svg" xmlns:xlink="http://www.w3.org/1999/xlink" x="0px" y="0px"
	 width="114px" height="114px" viewBox="0 0 114 114" enable-background="new 0 0 114 114" xml:space="preserve">
<g>
	<path fill="#BC2026" d="M57,0.369C25.724,0.369,0.369,25.724,0.369,57S25.724,113.631,57,113.631S113.631,88.276,113.631,57
		S88.276,0.369,57,0.369z"/>
	<g>
		<g>
			<path fill="#FFFFFF" d="M80.877,86.995c0,1.657-1.343,3-3,3h-43c-1.657,0-3-1.343-3-3v-55c0-1.657,1.343-3,3-3h43
				c1.657,0,3,1.343,3,3V86.995z"/>
		</g>
		<g>
			<path fill="#FFFFFF" d="M65.877,23.995c0,1.657-1.343,3-3,3h-12c-1.657,0-3-1.343-3-3l0,0c0-1.657,1.343-3,3-3h12
				C64.534,20.995,65.877,22.338,65.877,23.995L65.877,23.995z"/>
		</g>
		<g>
			<path fill="#FFFFFF" d="M61.877,29.995c0,1.657-1.343,3-3,3h-4c-1.657,0-3-1.343-3-3v-2c0-1.657,1.343-3,3-3h4
				c1.657,0,3,1.343,3,3V29.995z"/>
		</g>
		<g>
			<polygon fill="#BC2227" points="49.085,52.398 44.561,56.922 40.037,52.398 39.032,53.403 43.555,57.927 39.032,62.451 
				40.037,63.456 44.561,58.932 49.085,63.456 50.09,62.451 45.566,57.927 50.09,53.403 			"/>
			<polygon fill="#BC2227" points="62.256,52.398 57.732,56.922 53.208,52.398 52.203,53.403 56.726,57.927 52.203,62.451 
				53.208,63.456 57.732,58.932 62.256,63.456 63.261,62.451 58.737,57.927 63.261,53.403 			"/>
			<polygon fill="#BC2227" points="76.432,53.403 75.427,52.398 70.903,56.922 66.379,52.398 65.374,53.403 69.897,57.927 
				65.374,62.451 66.379,63.456 70.903,58.932 75.427,63.456 76.432,62.451 71.908,57.927 			"/>
		</g>
	</g>
</g>
</svg>
