<?xml version="1.0" encoding="utf-8"?>
<!-- Generator: Adobe Illustrator 17.0.0, SVG Export Plug-In . SVG Version: 6.00 Build 0)  -->
<!DOCTYPE svg PUBLIC "-//W3C//DTD SVG 1.1//EN" "http://www.w3.org/Graphics/SVG/1.1/DTD/svg11.dtd">
<svg version="1.1" id="Layer_1" xmlns="http://www.w3.org/2000/svg" xmlns:xlink="http://www.w3.org/1999/xlink" x="0px" y="0px"
	 width="792px" height="664px" viewBox="0 0 792 664" enable-background="new 0 0 792 664" xml:space="preserve">
<g>
	<defs>
		<rect id="SVGID_1_" width="792" height="664"/>
	</defs>
	<clipPath id="SVGID_2_">
		<use xlink:href="#SVGID_1_"  overflow="visible"/>
	</clipPath>
	<g clip-path="url(#SVGID_2_)">
		<g>
			<path fill="#D4762E" d="M293.674,125.79c-8.522,3.188,0.069,6.057-0.344,17.93c-0.176,5.068-0.388,11.152-0.694,18.186
				c-0.239,5.488-1.187,11.525-1.523,18.146c-0.287,5.66,0.073,11.76-0.296,18.209c-0.329,5.752-0.571,11.82-0.972,18.173
				c-0.367,5.81-1.244,11.836-1.677,18.13c-0.402,5.85-0.818,11.905-1.281,18.156c-0.436,5.877-0.437,11.964-0.93,18.182
				c-0.468,5.898-1.241,11.926-1.764,18.121c-0.499,5.915-1.465,11.924-2.017,18.1c-0.533,5.957-1.586,11.671-2.835,17.3
				c-1.282,5.783-2.31,11.565-4.265,17.047c-1.972,5.533-4.365,10.899-6.935,16.17c-2.559,5.248-5.256,10.472-8.322,15.506
				c-3.027,4.971-6.726,9.553-10.164,14.359c-3.382,4.728-6.511,9.713-10.211,14.323c-3.64,4.535-7.612,8.865-11.484,13.327
				c-3.816,4.398-7.47,9.003-11.439,13.367c-3.924,4.314-8.382,8.183-12.386,12.501c-3.973,4.284-7.907,8.636-11.89,12.959
				c-3.965,4.304-7.619,8.909-11.529,13.288c-3.903,4.372-7.609,8.911-11.389,13.392c-3.782,4.483-8.045,8.576-11.638,13.204
				c-3.597,4.634-7.109,9.352-10.45,14.166c-3.342,4.815-6.422,9.826-9.44,14.857c-3.009,5.016-5.312,10.428-7.933,15.693
				c-2.598,5.218-5.288,10.412-7.44,15.91c-2.116,5.404-3.736,11.018-5.36,16.724c-1.58,5.552-3.618,11.094-4.674,16.963
				c-1.018,5.654-1.276,11.539-1.757,17.513c-0.459,5.702-0.718,11.545-0.642,17.563c0.06,4.821-0.125,10.793,0.26,17.721
				c0.296,5.336,0.847,11.246,1.318,17.67c0.405,5.524,1.251,11.395,1.775,17.627c0.472,5.624,0.544,11.556,1.105,17.686
				c0.52,5.685,1.396,11.544,1.986,17.609c0.557,5.726,1.373,11.587,1.988,17.607c0.588,5.756,0.612,11.698,1.249,17.684
				c0.615,5.779,1.317,11.65,1.973,17.608c0.638,5.798,1.624,11.636,2.297,17.57c0.66,5.814,1.394,11.679,2.084,17.593
				c0.68,5.828,1.003,11.742,1.709,17.638c0.7,5.84,1.478,11.7,2.201,17.579c0.72,5.853,1.411,11.724,2.151,17.588
				c0.74,5.865,1.292,11.755,2.048,17.603c0.76,5.877,1.576,11.733,2.349,17.565c0.781,5.89,2.182,11.668,2.974,17.483
				c0.804,5.902,1.36,11.792,2.172,17.586c0.829,5.917,1.647,11.772,2.481,17.545c0.856,5.934,1.811,11.769,2.669,17.516
				c0.888,5.955,1.519,11.84,2.405,17.557c0.926,5.982,1.934,11.811,2.852,17.488c0.973,6.02,1.98,11.849,2.938,17.474
				c1.035,6.075,1.946,11.924,2.956,17.474c1.122,6.162,2.134,12,3.216,17.428c1.262,6.331,2.622,12.108,3.814,17.304
				c1.561,6.802,3.181,12.537,4.591,17.105c1.758,5.694,3.728,11.221,6.159,16.485c2.473,5.354,5.239,10.543,8.473,15.438
				c3.206,4.852,6.964,9.366,10.984,13.753c3.876,4.23,7.907,8.531,12.598,12.315c4.421,3.566,9.65,6.308,14.844,9.467
				c4.827,2.936,9.77,6.079,15.305,8.655c5.113,2.38,10.419,4.944,16.169,7.009c5.312,1.908,11.039,3.298,16.919,4.932
				c5.448,1.514,11.092,3.158,17.047,4.432c5.54,1.185,11.303,2.356,17.298,3.33c5.607,0.911,11.514,1.037,17.532,1.761
				c5.653,0.68,11.438,1.741,17.464,2.253c5.684,0.483,11.545,0.782,17.57,1.114c5.708,0.314,11.581,0.198,17.603,0.375
				c5.725,0.168,11.582,0.634,17.597,0.676c5.737,0.041,11.611,0.276,17.618,0.201c5.91-0.074,11.684-0.452,17.332-0.604
				c5.917-0.16,11.701-0.134,17.336-0.379c5.923-0.258,11.673-0.931,17.293-1.284c5.928-0.372,11.734-0.239,17.334-0.717
				c5.931-0.506,11.672-1.238,17.245-1.863c5.928-0.665,11.61-1.776,17.146-2.574c5.92-0.854,11.581-1.964,17.068-2.97
				c5.9-1.083,11.691-1.599,17.109-2.859c5.861-1.362,11.388-3.098,16.71-4.668c5.786-1.706,11.336-3.351,16.516-5.301
				c5.654-2.129,10.807-4.768,15.779-7.187c5.427-2.641,10.525-5.326,15.193-8.312c5.055-3.235,9.654-6.707,13.884-10.347
				c4.496-3.869,8.88-7.679,12.525-12.006c3.758-4.461,6.847-9.384,9.79-14.33c2.933-4.929,5.414-10.142,7.628-15.552
				c2.147-5.245,3.827-10.758,5.382-16.455c1.234-4.52,2.701-10.142,3.933-16.817c0.945-5.119,1.804-10.841,2.742-17.061
				c0.805-5.339,1.314-11.095,2.111-17.146c0.718-5.455,1.752-11.14,2.461-17.104c0.657-5.527,0.867-11.307,1.514-17.215
				c0.61-5.577,1.46-11.284,2.06-17.155c0.574-5.614,1.385-11.328,1.948-17.17c0.543-5.643,0.809-11.409,1.341-17.229
				c0.518-5.667,0.809-11.428,1.315-17.23c0.495-5.688,1.821-11.361,2.303-17.148c0.476-5.705,0.418-11.495,0.88-17.267
				c0.458-5.721,1.1-11.452,1.543-17.21c0.442-5.738,1.223-11.461,1.649-17.207c0.427-5.754,0.841-11.506,1.252-17.24
				c0.414-5.769,0.7-11.53,1.096-17.25c0.401-5.785,0.924-11.529,1.306-17.234c0.388-5.803-0.067-11.612,0.301-17.301
				c0.376-5.823,1.133-11.552,1.487-17.222c0.364-5.847,1.084-11.582,1.422-17.229c0.352-5.876,0.039-11.672,0.362-17.291
				c0.34-5.914,0.655-11.673,0.961-17.254c0.327-5.965,0.715-11.722,1.001-17.251c0.312-6.045,0.968-11.792,1.229-17.24
				c0.296-6.183,0.653-11.954,0.878-17.262c0.276-6.485,0.542-12.276,0.706-17.267c0.259-7.884,0.317-13.781,0.274-17.271
				c0.25-6.006,0.435-11.784,0.326-17.325c-0.118-6.02-0.564-11.79-1.078-17.301c-0.559-6-1.581-11.688-2.574-17.134
				c-1.079-5.918-2.747-11.424-4.293-16.752c-1.668-5.751-3.346-11.236-5.501-16.381c-2.295-5.481-5.015-10.532-7.793-15.424
				c-2.905-5.117-5.992-9.941-9.345-14.528c-3.439-4.704-6.632-9.539-10.455-13.81c-3.858-4.31-8.265-8.078-12.424-12.075
				c-4.152-3.991-8.123-8.198-12.484-12.005c-4.328-3.779-8.792-7.442-13.238-11.166c-4.398-3.686-9.207-6.932-13.634-10.686
				c-4.372-3.708-8.31-7.969-12.626-11.862c-4.248-3.832-8.787-7.426-12.903-11.551c-4.028-4.037-7.788-8.42-11.614-12.844
				c-3.713-4.293-7.292-8.805-10.747-13.56c-3.319-4.568-6.403-9.424-9.422-14.504c-2.87-4.829-5.674-9.85-8.22-15.217
				c-2.398-5.054-4.32-10.474-6.386-16.068c-1.933-5.232-3.984-10.602-5.591-16.359c-1.498-5.367-3.033-10.926-4.218-16.79
				c-1.104-5.462-2.299-11.134-3.107-17.062c-0.324-5.754,0.058-11.508-0.253-17.148c-0.318-5.769-1.227-11.439-1.532-17.062
				c-0.314-5.789-0.389-11.505-0.687-17.11c-0.309-5.811-0.385-11.528-0.676-17.11c-0.305-5.841-0.801-11.536-1.086-17.089
				c-0.302-5.879-1.021-11.564-1.299-17.077c-0.299-5.934-0.134-11.666-0.404-17.122c-0.298-6.02-0.236-11.748-0.497-17.115
				c-0.3-6.175-0.639-11.89-0.887-17.095c-0.312-6.552-1.225-12.26-1.449-17.07c-0.51-10.948,7.737-14.777-0.459-17.229
				c-8.78-2.627-9.191,0.623-18.351,0.913c-9.161,0.29-9.166,0.157-18.327,0.447c-9.163,0.29-9.165,0.218-18.328,0.507
				c-9.161,0.29-9.159,0.354-18.32,0.644c-9.162,0.29-9.176-0.16-18.339,0.13c-9.162,0.29-9.143,0.914-18.305,1.203
				c-9.163,0.29-9.159,0.42-18.323,0.71c-9.161,0.29-9.166,0.131-18.327,0.42c-9.164,0.29-9.168,0.172-18.332,0.462
				c-9.165,0.29-9.172,0.057-18.337,0.347c-9.166,0.29-9.168,1.183-18.32,0.599C302.686,124.238,302.263,122.577,293.674,125.79z"/>
			<path fill="none" stroke="#2A2B2A" stroke-width="11" stroke-miterlimit="10" d="M293.674,125.79
				c-8.522,3.188,0.069,6.057-0.344,17.93c-0.176,5.068-0.388,11.152-0.694,18.186c-0.239,5.488-1.187,11.525-1.523,18.146
				c-0.287,5.66,0.073,11.76-0.296,18.209c-0.329,5.752-0.571,11.82-0.972,18.173c-0.367,5.81-1.244,11.836-1.677,18.13
				c-0.402,5.85-0.818,11.905-1.281,18.156c-0.436,5.877-0.437,11.964-0.93,18.182c-0.468,5.898-1.241,11.926-1.764,18.121
				c-0.499,5.915-1.465,11.924-2.017,18.1c-0.533,5.957-1.586,11.671-2.835,17.3c-1.282,5.783-2.31,11.565-4.265,17.047
				c-1.972,5.533-4.365,10.899-6.935,16.17c-2.559,5.248-5.256,10.472-8.322,15.506c-3.027,4.971-6.726,9.553-10.164,14.359
				c-3.382,4.728-6.511,9.713-10.211,14.323c-3.64,4.535-7.612,8.865-11.484,13.327c-3.816,4.398-7.47,9.003-11.439,13.367
				c-3.924,4.314-8.382,8.183-12.386,12.501c-3.973,4.284-7.907,8.636-11.89,12.959c-3.965,4.304-7.619,8.909-11.529,13.288
				c-3.903,4.372-7.609,8.911-11.389,13.392c-3.782,4.483-8.045,8.576-11.638,13.204c-3.597,4.634-7.109,9.352-10.45,14.166
				c-3.342,4.815-6.422,9.826-9.44,14.857c-3.009,5.016-5.312,10.428-7.933,15.693c-2.598,5.218-5.288,10.412-7.44,15.91
				c-2.116,5.404-3.736,11.018-5.36,16.724c-1.58,5.552-3.618,11.094-4.674,16.963c-1.018,5.654-1.276,11.539-1.757,17.513
				c-0.459,5.702-0.718,11.545-0.642,17.563c0.06,4.821-0.125,10.793,0.26,17.721c0.296,5.336,0.847,11.246,1.318,17.67
				c0.405,5.524,1.251,11.395,1.775,17.627c0.472,5.624,0.544,11.556,1.105,17.686c0.52,5.685,1.396,11.544,1.986,17.609
				c0.557,5.726,1.373,11.587,1.988,17.607c0.588,5.756,0.612,11.698,1.249,17.684c0.615,5.779,1.317,11.65,1.973,17.608
				c0.638,5.798,1.624,11.636,2.297,17.57c0.66,5.814,1.394,11.679,2.084,17.593c0.68,5.828,1.003,11.742,1.709,17.638
				c0.7,5.84,1.478,11.7,2.201,17.579c0.72,5.853,1.411,11.724,2.151,17.588c0.74,5.865,1.292,11.755,2.048,17.603
				c0.76,5.877,1.576,11.733,2.349,17.565c0.781,5.89,2.182,11.668,2.974,17.483c0.804,5.902,1.36,11.792,2.172,17.586
				c0.829,5.917,1.647,11.772,2.481,17.545c0.856,5.934,1.811,11.769,2.669,17.516c0.888,5.955,1.519,11.84,2.405,17.557
				c0.926,5.982,1.934,11.811,2.852,17.488c0.973,6.02,1.98,11.849,2.938,17.474c1.035,6.075,1.946,11.924,2.956,17.474
				c1.122,6.162,2.134,12,3.216,17.428c1.262,6.331,2.622,12.108,3.814,17.304c1.561,6.802,3.181,12.537,4.591,17.105
				c1.758,5.694,3.728,11.221,6.159,16.485c2.473,5.354,5.239,10.543,8.473,15.438c3.206,4.852,6.964,9.366,10.984,13.753
				c3.876,4.23,7.907,8.531,12.598,12.315c4.421,3.566,9.65,6.308,14.844,9.467c4.827,2.936,9.77,6.079,15.305,8.655
				c5.113,2.38,10.419,4.944,16.169,7.009c5.312,1.908,11.039,3.298,16.919,4.932c5.448,1.514,11.092,3.158,17.047,4.432
				c5.54,1.185,11.303,2.356,17.298,3.33c5.607,0.911,11.514,1.037,17.532,1.761c5.653,0.68,11.438,1.741,17.464,2.253
				c5.684,0.483,11.545,0.782,17.57,1.114c5.708,0.314,11.581,0.198,17.603,0.375c5.725,0.168,11.582,0.634,17.597,0.676
				c5.737,0.041,11.611,0.276,17.618,0.201c5.91-0.074,11.684-0.452,17.332-0.604c5.917-0.16,11.701-0.134,17.336-0.379
				c5.923-0.258,11.673-0.931,17.293-1.284c5.928-0.372,11.734-0.239,17.334-0.717c5.931-0.506,11.672-1.238,17.245-1.863
				c5.928-0.665,11.61-1.776,17.146-2.574c5.92-0.854,11.581-1.964,17.068-2.97c5.9-1.083,11.691-1.599,17.109-2.859
				c5.861-1.362,11.388-3.098,16.71-4.668c5.786-1.706,11.336-3.351,16.516-5.301c5.654-2.129,10.807-4.768,15.779-7.187
				c5.427-2.641,10.525-5.326,15.193-8.312c5.055-3.235,9.654-6.707,13.884-10.347c4.496-3.869,8.88-7.679,12.525-12.006
				c3.758-4.461,6.847-9.384,9.79-14.33c2.933-4.929,5.414-10.142,7.628-15.552c2.147-5.245,3.827-10.758,5.382-16.455
				c1.234-4.52,2.701-10.142,3.933-16.817c0.945-5.119,1.804-10.841,2.742-17.061c0.805-5.339,1.314-11.095,2.111-17.146
				c0.718-5.455,1.752-11.14,2.461-17.104c0.657-5.527,0.867-11.307,1.514-17.215c0.61-5.577,1.46-11.284,2.06-17.155
				c0.574-5.614,1.385-11.328,1.948-17.17c0.543-5.643,0.809-11.409,1.341-17.229c0.518-5.667,0.809-11.428,1.315-17.23
				c0.495-5.688,1.821-11.361,2.303-17.148c0.476-5.705,0.418-11.495,0.88-17.267c0.458-5.721,1.1-11.452,1.543-17.21
				c0.442-5.738,1.223-11.461,1.649-17.207c0.427-5.754,0.841-11.506,1.252-17.24c0.414-5.769,0.7-11.53,1.096-17.25
				c0.401-5.785,0.924-11.529,1.306-17.234c0.388-5.803-0.067-11.612,0.301-17.301c0.376-5.823,1.133-11.552,1.487-17.222
				c0.364-5.847,1.084-11.582,1.422-17.229c0.352-5.876,0.039-11.672,0.362-17.291c0.34-5.914,0.655-11.673,0.961-17.254
				c0.327-5.965,0.715-11.722,1.001-17.251c0.312-6.045,0.968-11.792,1.229-17.24c0.296-6.183,0.653-11.954,0.878-17.262
				c0.276-6.485,0.542-12.276,0.706-17.267c0.259-7.884,0.317-13.781,0.274-17.271c0.25-6.006,0.435-11.784,0.326-17.325
				c-0.118-6.02-0.564-11.79-1.078-17.301c-0.559-6-1.581-11.688-2.574-17.134c-1.079-5.918-2.747-11.424-4.293-16.752
				c-1.668-5.751-3.346-11.236-5.501-16.381c-2.295-5.481-5.015-10.532-7.793-15.424c-2.905-5.117-5.992-9.941-9.345-14.528
				c-3.439-4.704-6.632-9.539-10.455-13.81c-3.858-4.31-8.265-8.078-12.424-12.075c-4.152-3.991-8.123-8.198-12.484-12.005
				c-4.328-3.779-8.792-7.442-13.238-11.166c-4.398-3.686-9.207-6.932-13.634-10.686c-4.372-3.708-8.31-7.969-12.626-11.862
				c-4.248-3.832-8.787-7.426-12.903-11.551c-4.028-4.037-7.788-8.42-11.614-12.844c-3.713-4.293-7.292-8.805-10.747-13.56
				c-3.319-4.568-6.403-9.424-9.422-14.504c-2.87-4.829-5.674-9.85-8.22-15.217c-2.398-5.054-4.32-10.474-6.386-16.068
				c-1.933-5.232-3.984-10.602-5.591-16.359c-1.498-5.367-3.033-10.926-4.218-16.79c-1.104-5.462-2.299-11.134-3.107-17.062
				c-0.324-5.754,0.058-11.508-0.253-17.148c-0.318-5.769-1.227-11.439-1.532-17.062c-0.314-5.789-0.389-11.505-0.687-17.11
				c-0.309-5.811-0.385-11.528-0.676-17.11c-0.305-5.841-0.801-11.536-1.086-17.089c-0.302-5.879-1.021-11.564-1.299-17.077
				c-0.299-5.934-0.134-11.666-0.404-17.122c-0.298-6.02-0.236-11.748-0.497-17.115c-0.3-6.175-0.639-11.89-0.887-17.095
				c-0.312-6.552-1.225-12.26-1.449-17.07c-0.51-10.948,7.737-14.777-0.459-17.229c-8.78-2.627-9.191,0.623-18.351,0.913
				c-9.161,0.29-9.166,0.157-18.327,0.447c-9.163,0.29-9.165,0.218-18.328,0.507c-9.161,0.29-9.159,0.354-18.32,0.644
				c-9.162,0.29-9.176-0.16-18.339,0.13c-9.162,0.29-9.143,0.914-18.305,1.203c-9.163,0.29-9.159,0.42-18.323,0.71
				c-9.161,0.29-9.166,0.131-18.327,0.42c-9.164,0.29-9.168,0.172-18.332,0.462c-9.165,0.29-9.172,0.057-18.337,0.347
				c-9.166,0.29-9.168,1.183-18.32,0.599C302.686,124.238,302.263,122.577,293.674,125.79z"/>
		</g>
		<path opacity="0.2" fill="none" stroke="#2A2B2A" stroke-width="8" stroke-miterlimit="10" d="M194,1098c66-50,352-52,446,0"/>
		<g>
			<path fill="#F0F3CC" d="M507.855,300.281c-14.781-175.994-13.162-190.722-13.162-190.722l-183.337,3.773
				c0,0-10.89,174.709-12.969,188.796c0,0,25.119-15.489,105.792-16.496S507.855,300.281,507.855,300.281z"/>
		</g>
		<g>
			<path fill="#2A2B2A" d="M490.601,136.604c0,0,12.35,97.985,15.027,163.455l-38.897-12.396c0,0-0.51-76.749-7.669-142.32
				C468.304,140.862,490.601,136.604,490.601,136.604z"/>
		</g>
		<g>
			<path fill="#D4762E" d="M497.84,136.592c0,0,11.69,109.747,14.329,183.064l-36.105-13.974c0,0-0.657-85.94-7.454-159.38
				C477.171,141.306,497.84,136.592,497.84,136.592z"/>
		</g>
		<g>
			<path fill="#F0F3CC" d="M298.053,1158.665c0,0-0.349-0.085-1.025-0.249c-0.676-0.166-1.674-0.395-3.013-0.772
				c-2.658-0.74-6.535-1.81-11.378-3.668c-4.835-1.849-10.689-4.412-16.928-8.452c-3.107-2.026-6.339-4.375-9.485-7.196
				c-3.136-2.827-6.198-6.09-9.064-9.745c-2.861-3.657-5.536-7.695-7.921-12.038c-2.375-4.349-4.504-8.975-6.396-13.795
				c-1.883-4.826-3.544-9.835-5.052-14.975c-1.468-5.146-2.807-10.418-4.013-15.781c-2.383-10.735-4.322-21.828-6.025-33.082
				c-0.876-5.624-1.633-11.297-2.397-16.981c-0.373-2.865-0.748-5.735-1.122-8.608c-0.333-2.84-0.667-5.683-1.001-8.527
				c-0.662-5.687-1.324-11.374-1.984-17.038c-0.318-2.834-0.635-5.662-0.952-8.481c-0.283-2.838-0.565-5.667-0.846-8.485
				c-0.532-5.641-1.059-11.238-1.58-16.768c-0.54-5.53-0.997-10.997-1.404-16.359c-0.436-5.365-0.81-10.644-1.173-15.812
				c-0.367-5.167-0.74-10.222-1.031-15.146c-0.648-9.843-1.107-19.161-1.529-27.759c-0.424-8.599-0.684-16.487-0.923-23.479
				c-0.24-6.993-0.331-13.093-0.442-18.117c-0.098-5.027-0.088-8.978-0.12-11.674c0.005-2.704,0.008-4.147,0.008-4.147
				c0.007-3.823,3.112-6.917,6.936-6.91c3.554,0.007,6.478,2.691,6.866,6.14l0.008,0.075c0,0,0.154,1.416,0.442,4.071
				c0.267,2.664,0.727,6.571,1.195,11.547c0.483,4.977,1.158,11.018,1.771,17.954c0.643,6.935,1.485,14.751,2.204,23.289
				c0.745,8.537,1.745,17.769,2.534,27.552c0.896,9.772,1.84,20.078,2.817,30.739c0.237,2.664,0.476,5.351,0.717,8.057
				c0.257,2.698,0.515,5.416,0.776,8.15c0.506,5.47,1.017,11.007,1.533,16.587c0.247,2.792,0.495,5.596,0.743,8.408
				c0.285,2.823,0.571,5.654,0.858,8.491c0.55,5.676,1.101,11.375,1.653,17.074c0.273,2.85,0.546,5.699,0.819,8.546
				c0.287,2.808,0.574,5.613,0.86,8.412c0.617,5.626,1.231,11.23,1.84,16.79c1.281,11.087,2.643,21.943,4.373,32.281
				c1.703,10.339,3.76,20.175,6.501,29.1c2.722,8.931,6.174,16.924,10.407,23.603c2.121,3.336,4.43,6.347,6.863,9.02
				c2.39,2.716,4.927,5.078,7.439,7.182c2.517,2.102,5.057,3.884,7.462,5.48c2.408,1.595,4.708,2.969,6.839,4.137
				c4.264,2.322,7.775,3.997,10.164,5.076c2.439,1.085,3.741,1.664,3.741,1.664l0.008,0.004c1.236,0.55,1.791,1.997,1.242,3.232
				C300.38,1158.38,299.181,1158.941,298.053,1158.665z"/>
		</g>
		<g>
			<path fill="#FFFFFF" d="M571.412,1136.631c0,0,0.568-0.339,1.634-0.975c0.266-0.159,0.564-0.336,0.891-0.532
				c0.309-0.208,0.645-0.435,1.009-0.68c0.725-0.489,1.572-1.02,2.479-1.711c1.853-1.303,3.97-3.071,6.258-5.226
				c2.275-2.171,4.716-4.75,7.124-7.779c2.402-3.031,4.851-6.44,7.153-10.238c2.309-3.792,4.556-7.914,6.618-12.315
				c2.058-4.401,4.051-9.023,5.83-13.824c1.779-4.799,3.445-9.738,4.934-14.736c2.966-10.001,5.372-20.19,7.23-29.828
				c0.96-4.814,1.772-9.493,2.476-13.942c0.715-4.448,1.34-8.664,1.844-12.566c0.509-3.901,0.974-7.48,1.322-10.66
				c0.354-3.179,0.621-5.954,0.822-8.24c0.198-2.283,0.354-4.078,0.461-5.301c0.088-1.21,0.134-1.856,0.134-1.856l0.004-0.055
				c0.089-1.225,1.154-2.146,2.379-2.058c1.173,0.085,2.068,1.073,2.063,2.232c0,0-0.004,0.675-0.012,1.939
				c-0.02,1.253-0.037,3.087-0.135,5.415c-0.1,2.328-0.244,5.152-0.458,8.388c-0.223,3.235-0.482,6.886-0.889,10.857
				c-0.794,7.944-2.03,17.187-3.838,27.021c-0.922,4.913-1.998,9.97-3.217,15.084c-1.203,5.118-2.654,10.267-4.231,15.381
				c-1.594,5.109-3.312,10.19-5.308,15.084c-1.984,4.896-4.095,9.665-6.45,14.134c-2.352,4.467-4.818,8.7-7.477,12.512
				c-2.653,3.812-5.377,7.28-8.155,10.247c-2.765,2.976-5.502,5.524-8.124,7.534c-2.61,2.02-4.988,3.64-7.044,4.807
				c-1.004,0.612-1.946,1.112-2.776,1.522c-0.411,0.207-0.792,0.399-1.141,0.575c-0.349,0.153-0.666,0.292-0.95,0.417
				c-1.136,0.499-1.742,0.765-1.742,0.765c-0.398,0.174-0.861-0.006-1.036-0.404
				C570.933,1137.255,571.076,1136.831,571.412,1136.631z"/>
		</g>
		<g>
			<path fill="#F0F3CC" d="M309.563,1156.35c0,0-0.548-0.192-1.576-0.551c-0.513-0.164-1.148-0.417-1.904-0.745
				c-0.377-0.162-0.782-0.336-1.214-0.521c-0.415-0.209-0.856-0.431-1.322-0.665c-0.947-0.449-1.934-1.048-3.027-1.683
				c-1.052-0.69-2.214-1.419-3.368-2.312c-2.352-1.732-4.818-3.94-7.27-6.564c-2.465-2.615-4.839-5.705-7.125-9.105
				c-2.287-3.402-4.383-7.179-6.358-11.162c-1.986-3.982-3.696-8.241-5.31-12.597c-1.615-4.359-2.996-8.868-4.247-13.401
				c-1.236-4.537-2.355-9.101-3.267-13.628c-0.928-4.524-1.726-8.993-2.391-13.332c-0.646-4.342-1.18-8.548-1.621-12.542
				c-0.426-3.996-0.733-7.781-0.986-11.276c-0.48-6.992-0.631-12.83-0.658-16.921c-0.017-2.045,0.015-3.655,0.032-4.756
				c0.027-1.111,0.041-1.704,0.041-1.704c0.029-1.228,1.049-2.2,2.277-2.17c1.169,0.028,2.106,0.953,2.168,2.101l0.003,0.061
				c0,0,0.029,0.566,0.084,1.627c0.07,1.074,0.173,2.65,0.304,4.655c0.283,4.013,0.73,9.751,1.459,16.611
				c0.725,6.859,1.704,14.847,3.106,23.334c0.684,4.246,1.462,8.62,2.385,13.031c0.933,4.409,1.92,8.876,3.079,13.293
				c1.15,4.42,2.482,8.781,3.883,13.034c1.41,4.251,3.006,8.354,4.691,12.249c1.683,3.898,3.555,7.543,5.482,10.901
				c1.924,3.362,4.009,6.368,6.078,9.023c4.169,5.293,8.496,8.964,11.786,11.136c0.411,0.274,0.801,0.533,1.167,0.777
				c0.374,0.221,0.724,0.429,1.05,0.622c0.642,0.398,1.213,0.728,1.71,0.969c0.967,0.501,1.483,0.768,1.483,0.768
				c0.386,0.2,0.536,0.674,0.337,1.06C310.338,1156.321,309.926,1156.477,309.563,1156.35z"/>
		</g>
		<g>
			<path fill="none" stroke="#2A2B2A" stroke-width="8" stroke-miterlimit="10" d="M298.387,302.128
				c0,0,25.119-15.489,105.792-16.496s103.676,14.649,103.676,14.649"/>
		</g>
		<path fill="none" stroke="#FFEDC0" stroke-width="7.8891" stroke-miterlimit="10" d="M508.545,304.475
			c0.239,19.136-43.598,30.725-100.533,31.436c-56.935,0.711-106.42-11.86-106.694-33.82"/>
		
			<line fill="none" stroke="#2A2B2A" stroke-width="12.224" stroke-linecap="round" stroke-miterlimit="10" x1="317.936" y1="275.303" x2="323.26" y2="145.699"/>
		
			<line fill="none" stroke="#D4762E" stroke-width="9" stroke-linecap="round" stroke-miterlimit="10" x1="335.768" y1="243.356" x2="340.372" y2="145.699"/>
		
			<line fill="none" stroke="#F0F3CC" stroke-width="9" stroke-linecap="round" stroke-miterlimit="10" x1="492.581" y1="362.21" x2="480.207" y2="146.074"/>
		
			<line fill="none" stroke="#F0F3CC" stroke-width="9" stroke-linecap="round" stroke-miterlimit="10" x1="334.821" y1="374" x2="335.59" y2="266"/>
		<path fill="none" stroke="#F0F3CC" stroke-width="10" stroke-miterlimit="10" d="M300.675,301.156
			C288.293,450.198,128.976,477.527,126.94,615.808c-0.582,39.517,11.047,108.996,29.745,268.183
			c17.699,150.687,25.881,173.67,33.986,205.969c8.104,32.299,71.109,75.15,218.41,73.312
			c96.395-1.203,158.465-17.62,189.259-32.279c28.442-12.766,43.825-35.227,54.053-76.068
			c12.111-48.361,30.274-430.499,30.24-434.444c-1.333-156.045-162.672-139.154-174.778-320.2
			c-7.698-115.125-11.06-192.966-11.06-192.966l-185.44,6.017C311.356,113.332,309.533,194.534,300.675,301.156z"/>
		<g>
			<g>
				<g>
					<g>
						<path fill="#F0F3CC" d="M399.99,33.41c-3.494,0.035-6.961,0.04-10.384,0.123c-3.5,0.086-6.959,0.361-10.375,0.496
							c-3.506,0.138-6.957,0.496-10.362,0.683c-3.511,0.193-6.974,0.305-10.365,0.547c-3.52,0.252-6.97,0.568-10.346,0.87
							c-3.528,0.316-7.001,0.419-10.355,0.787c-3.539,0.389-6.981,0.835-10.308,1.278c-3.554,0.474-6.983,1.019-10.27,1.55
							c-3.574,0.578-6.887,1.725-10.117,2.365c-3.608,0.715-6.982,1.455-10.12,2.241c-3.669,0.918-6.939,2.005-9.903,3.007
							c-3.817,1.291-7.014,2.51-9.53,3.915c-4.251,2.373-6.301,4.651-6.275,7.242c0.011,5.087,0.02,5.087,0.02,10.174
							c0,5.088-0.48,5.088-0.48,10.177c0,5.087-0.322,5.087-0.321,10.174c0,5.09,0.779,5.09,0.78,10.181
							c0,5.09-0.502,5.091-0.488,10.181c0.037,3.684,0.635,7.199,2.037,10.317c1.394,3.1,3.574,5.94,6.196,8.518
							c2.338,2.298,5.32,4.181,8.544,6.092c2.828,1.675,5.858,3.471,9.306,4.867c3.079,1.246,6.557,1.896,10.088,2.932
							c3.217,0.943,6.441,2.489,10,3.268c3.301,0.722,6.798,1.17,10.368,1.758c3.355,0.553,6.894,0.537,10.466,0.978
							c3.391,0.418,6.867,0.762,10.435,1.084c3.415,0.309,6.86,1.172,10.422,1.398c3.434,0.218,6.948,0.156,10.505,0.302
							c3.447,0.141,6.94,0.622,10.489,0.698c3.458,0.074,6.972-0.665,10.516-0.648c3.466,0.016,6.967,0.216,10.504,0.181
							c3.499-0.035,6.971,0.224,10.4,0.139c3.506-0.086,6.95-0.776,10.37-0.916c3.511-0.144,7.009,0.404,10.419,0.201
							c3.516-0.21,6.951-0.806,10.346-1.082c3.522-0.286,7.001-0.342,10.378-0.703c3.525-0.377,6.967-0.832,10.318-1.294
							c3.528-0.486,6.874-1.508,10.19-2.093c3.527-0.622,6.997-0.924,10.261-1.663c3.518-0.797,6.949-1.426,10.133-2.365
							c3.494-1.031,6.53-2.843,9.584-4.053c3.43-1.359,6.88-2.161,9.704-3.759c3.25-1.839,6.115-3.897,8.483-6.071
							c2.725-2.502,4.386-5.555,5.823-8.527c1.492-3.085,2.595-6.296,2.558-9.92c-0.016-5.311,0.164-5.311,0.162-10.622
							c-0.003-5.313-0.206-5.313-0.208-10.626c-0.003-5.311,0.352-5.312,0.35-10.623c-0.003-5.315-0.502-5.315-0.504-10.63
							s-0.299-5.314-0.312-10.629c-0.026-2.591-2.059-4.837-6.359-7.124c-2.544-1.353-5.637-2.921-9.479-4.134
							c-2.983-0.942-6.271-2.136-9.957-2.979c-3.153-0.722-6.558-1.466-10.179-2.108c-3.241-0.575-6.761-0.517-10.345-1.022
							c-3.297-0.465-6.666-1.442-10.228-1.844c-3.335-0.376-6.86,0.074-10.406-0.243c-3.361-0.301-6.755-1.268-10.289-1.513
							c-3.38-0.234-6.837-0.505-10.359-0.685c-3.396-0.174-6.88,0.224-10.395,0.102c-3.407-0.118-6.852-0.87-10.359-0.937
							c-3.418-0.066-6.89,0.44-10.392,0.425C406.952,33.827,403.485,33.375,399.99,33.41z"/>
						<path fill="none" stroke="#2A2B2A" stroke-width="10.4501" stroke-miterlimit="10" d="M399.99,33.41
							c-3.494,0.035-6.961,0.04-10.384,0.123c-3.5,0.086-6.959,0.361-10.375,0.496c-3.506,0.138-6.957,0.496-10.362,0.683
							c-3.511,0.193-6.974,0.305-10.365,0.547c-3.52,0.252-6.97,0.568-10.346,0.87c-3.528,0.316-7.001,0.419-10.355,0.787
							c-3.539,0.389-6.981,0.835-10.308,1.278c-3.554,0.474-6.983,1.019-10.27,1.55c-3.574,0.578-6.887,1.725-10.117,2.365
							c-3.608,0.715-6.982,1.455-10.12,2.241c-3.669,0.918-6.939,2.005-9.903,3.007c-3.817,1.291-7.014,2.51-9.53,3.915
							c-4.251,2.373-6.301,4.651-6.275,7.242c0.011,5.087,0.02,5.087,0.02,10.174c0,5.088-0.48,5.088-0.48,10.177
							c0,5.087-0.322,5.087-0.321,10.174c0,5.09,0.779,5.09,0.78,10.181c0,5.09-0.502,5.091-0.488,10.181
							c0.037,3.684,0.635,7.199,2.037,10.317c1.394,3.1,3.574,5.94,6.196,8.518c2.338,2.298,5.32,4.181,8.544,6.092
							c2.828,1.675,5.858,3.471,9.306,4.867c3.079,1.246,6.557,1.896,10.088,2.932c3.217,0.943,6.441,2.489,10,3.268
							c3.301,0.722,6.798,1.17,10.368,1.758c3.355,0.553,6.894,0.537,10.466,0.978c3.391,0.418,6.867,0.762,10.435,1.084
							c3.415,0.309,6.86,1.172,10.422,1.398c3.434,0.218,6.948,0.156,10.505,0.302c3.447,0.141,6.94,0.622,10.489,0.698
							c3.458,0.074,6.972-0.665,10.516-0.648c3.466,0.016,6.967,0.216,10.504,0.181c3.499-0.035,6.971,0.224,10.4,0.139
							c3.506-0.086,6.95-0.776,10.37-0.916c3.511-0.144,7.009,0.404,10.419,0.201c3.516-0.21,6.951-0.806,10.346-1.082
							c3.522-0.286,7.001-0.342,10.378-0.703c3.525-0.377,6.967-0.832,10.318-1.294c3.528-0.486,6.874-1.508,10.19-2.093
							c3.527-0.622,6.997-0.924,10.261-1.663c3.518-0.797,6.949-1.426,10.133-2.365c3.494-1.031,6.53-2.843,9.584-4.053
							c3.43-1.359,6.88-2.161,9.704-3.759c3.25-1.839,6.115-3.897,8.483-6.071c2.725-2.502,4.386-5.555,5.823-8.527
							c1.492-3.085,2.595-6.296,2.558-9.92c-0.016-5.311,0.164-5.311,0.162-10.622c-0.003-5.313-0.206-5.313-0.208-10.626
							c-0.003-5.311,0.352-5.312,0.35-10.623c-0.003-5.315-0.502-5.315-0.504-10.63s-0.299-5.314-0.312-10.629
							c-0.026-2.591-2.059-4.837-6.359-7.124c-2.544-1.353-5.637-2.921-9.479-4.134c-2.983-0.942-6.271-2.136-9.957-2.979
							c-3.153-0.722-6.558-1.466-10.179-2.108c-3.241-0.575-6.761-0.517-10.345-1.022c-3.297-0.465-6.666-1.442-10.228-1.844
							c-3.335-0.376-6.86,0.074-10.406-0.243c-3.361-0.301-6.755-1.268-10.289-1.513c-3.38-0.234-6.837-0.505-10.359-0.685
							c-3.396-0.174-6.88,0.224-10.395,0.102c-3.407-0.118-6.852-0.87-10.359-0.937c-3.418-0.066-6.89,0.44-10.392,0.425
							C406.952,33.827,403.485,33.375,399.99,33.41z"/>
					</g>
					<g>
						<path fill="none" stroke="#D4762E" stroke-width="18" stroke-miterlimit="10" d="M409.455,82.956
							c0.005,1.853,0.493,1.852,0.498,3.706c0.005,1.854,0.439,1.853,0.443,3.707c0.005,1.853,0.366,1.853,0.37,3.706
							c0.005,1.853-0.445,1.855-0.441,3.708c0.005,1.851-0.431,1.852-0.427,3.704c0.005,1.854,0.389,1.853,0.393,3.706
							c0.005,1.852-0.851,1.855-0.847,3.707c0.005,1.854,0.142,1.854,0.147,3.708c0.005,1.853-0.409,1.854-0.404,3.707
							c0.005,1.854,1.512,1.85,1.516,3.704c0.005,1.855-1.015,1.857-1.011,3.712s0.139,1.855,0.143,3.709
							c0.005,1.855-0.589,1.856-0.585,3.711c0.005,1.854,1.198,1.851,1.203,3.706c0.005,1.855-0.05,1.855-0.045,3.709
							c0.005,1.855-0.131,1.855-0.126,3.71c0.005,1.858,0.277,1.857,0.281,3.715c0.005,1.858,0,1.858,0.004,3.716"/>
					</g>
					<g>
						<path fill="none" stroke="#D4762E" stroke-width="18" stroke-miterlimit="10" d="M382.489,83.331
							c0.005,1.853-0.1,1.854-0.096,3.707c0.005,1.854,0.511,1.853,0.515,3.707c0.005,1.853,0.657,1.852,0.662,3.705
							c0.005,1.853-1.394,1.857-1.389,3.71c0.005,1.851,1.095,1.849,1.099,3.7c0.005,1.854-0.762,1.855-0.758,3.709
							c0.005,1.853,0.288,1.852,0.292,3.704c0.005,1.854-0.742,1.856-0.737,3.71c0.005,1.853,1.303,1.85,1.308,3.703
							c0.005,1.854-0.663,1.856-0.658,3.71c0.005,1.855,0.878,1.853,0.883,3.708c0.005,1.855-0.743,1.857-0.738,3.712
							c0.005,1.855-0.25,1.855-0.246,3.71c0.005,1.854,0.915,1.852,0.92,3.706c0.005,1.855-1.008,1.857-1.003,3.712
							c0.005,1.855,1.101,1.852,1.106,3.707c0.005,1.858-0.464,1.859-0.459,3.717c0.005,1.858-0.117,1.858-0.113,3.716"/>
					</g>
					<g>
						<path fill="none" stroke="#D4762E" stroke-width="20" stroke-miterlimit="10" d="M316.489,77.681
							c0.005,1.812,0.052,1.812,0.057,3.624c0.005,1.812,1.304,1.808,1.309,3.62c0.005,1.812-0.776,1.815-0.771,3.627
							c0.005,1.812,0,1.812,0.005,3.624c0.005,1.812-0.017,1.812-0.012,3.624c0.005,1.81-0.374,1.811-0.369,3.621
							c0.005,1.812-0.063,1.812-0.058,3.624c0.005,1.811,0.267,1.81,0.272,3.621c0.005,1.813,0.096,1.813,0.101,3.625
							c0.005,1.812,0.657,1.81,0.662,3.622c0.005,1.813,0.046,1.812,0.051,3.625c0.005,1.813-1.189,1.817-1.184,3.63
							c0.005,1.813,0.989,1.811,0.994,3.624c0.005,1.813-0.502,1.815-0.497,3.628c0.005,1.813,0.386,1.812,0.391,3.625
							c0.005,1.813,0.314,1.812,0.319,3.625c0.005,1.814-1.001,1.816-0.996,3.63c0.005,1.816,0.716,1.815,0.721,3.631
							c0.005,1.816-0.557,1.818-0.552,3.635"/>
					</g>
					<g>
						<path fill="none" stroke="#D4762E" stroke-width="11" stroke-miterlimit="10" d="M431.592,46.225
							c0.061,5.995,0.799,5.988,0.859,11.983s-0.682,6.003-0.622,11.998"/>
					</g>
					<g>
						<path fill="none" stroke="#D4762E" stroke-width="11" stroke-miterlimit="10" d="M414.144,47.151
							c0.061,5.995,0.554,5.99,0.615,11.986s-0.324,5.999-0.263,11.995"/>
					</g>
					<g>
						<path fill="none" stroke="#2A2B2A" stroke-width="7" stroke-miterlimit="10" d="M364.398,46.388
							c0.061,5.995,0.415,5.992,0.476,11.987s-0.208,5.998-0.148,11.993"/>
					</g>
					<g>
						<path fill="none" stroke="#2A2B2A" stroke-width="7" stroke-miterlimit="10" d="M479.231,58.104
							c0.021,2.087-2.847,3.819-7.941,5.435c-2.709,0.859-6.026,1.68-9.903,2.391c-3.049,0.559-6.453,0.83-10.115,1.293
							c-3.18,0.401-6.56,0.792-10.137,1.116c-3.25,0.295-6.639,0.598-10.167,0.827c-3.294,0.214-6.67,0.943-10.168,1.097
							c-3.325,0.147-6.738,0.257-10.214,0.348c-3.347,0.088-6.76,0.286-10.218,0.321c-3.538,0.036-7.042-0.083-10.484-0.113
							c-3.557-0.031-7.062,0.003-10.479-0.097c-3.584-0.105-7.091-0.228-10.479-0.407c-3.616-0.191-7.08-0.904-10.42-1.179
							c-3.667-0.301-7.109-0.971-10.376-1.371c-3.755-0.459-7.34-0.213-10.466-0.798c-3.97-0.743-7.284-2.064-10.046-3.005
							c-5.006-1.706-7.585-3.618-7.609-5.941c-0.024-2.342,2.581-4.119,7.63-5.738c2.761-0.885,6.107-1.94,10.075-2.628
							c3.119-0.541,6.616-0.732,10.361-1.159c3.255-0.371,6.68-1.211,10.333-1.5c3.326-0.263,6.849,0.214,10.449,0.015
							c3.371-0.186,6.836-0.556,10.404-0.688c3.403-0.126,6.871-0.744,10.413-0.823c3.426-0.077,6.913-0.158,10.436-0.193
							c3.472-0.035,6.897,0.567,10.26,0.606c3.49,0.041,6.915-0.121,10.254-0.005c3.512,0.123,6.91,0.659,10.218,0.861
							c3.543,0.216,7.018-0.307,10.282-0.008c3.59,0.329,6.986,0.917,10.178,1.338c3.674,0.485,7.015,1.343,10.072,1.937
							c3.88,0.754,7.392,1.039,10.104,1.944C476.535,53.668,479.21,56.032,479.231,58.104z"/>
					</g>
					<g>
						<path fill="none" stroke="#2A2B2A" stroke-width="9" stroke-miterlimit="10" d="M528.122,55.921
							c0.026,2.548-2.273,5.387-6.336,7.947c-2.435,1.534-5.62,2.992-9.332,4.462c-2.897,1.147-6.093,2.542-9.69,3.622
							c-3.083,0.926-6.457,1.739-10.009,2.599c-3.183,0.771-6.686,0.891-10.213,1.598c-3.248,0.651-6.543,1.768-10.058,2.355
							c-3.293,0.55-6.718,0.962-10.224,1.449c-3.325,0.462-6.705,1.237-10.204,1.636c-3.348,0.382-6.831,0.204-10.324,0.523
							c-3.368,0.307-6.798,0.601-10.287,0.845c-3.382,0.236-6.8,0.801-10.284,0.973c-3.396,0.168-6.864-0.418-10.345-0.314
							c-3.405,0.101-6.84,0.213-10.316,0.248c-3.474,0.035-6.909,0.005-10.314-0.027c-3.481-0.033-6.934,0.541-10.332,0.442
							c-3.487-0.102-6.909-0.709-10.296-0.877c-3.492-0.173-6.915-0.508-10.287-0.748c-3.5-0.248-6.922-0.55-10.278-0.864
							c-3.506-0.328-6.981-0.173-10.314-0.567c-3.515-0.416-6.924-0.93-10.227-1.413c-3.526-0.516-6.92-1.119-10.181-1.704
							c-3.542-0.636-6.92-1.32-10.119-2.027c-3.569-0.789-6.941-1.534-10.043-2.398c-3.619-1.008-6.757-2.486-9.677-3.574
							c-3.742-1.395-6.796-2.868-9.261-4.353c-4.111-2.477-6.319-4.708-6.345-7.256"/>
					</g>
				</g>
			</g>
			<path fill="#2A2B2A" d="M346.297,50.885c-10.83,7.67,0.569,15.439,0.569,15.439s-30.947-2.692-27.216-8.107
				C323.383,52.802,340.04,51.763,346.297,50.885z"/>
			<path fill="#2A2B2A" d="M440.327,46.844c6.259,9.997,3.107,21.722,3.107,21.722s35.355-1.848,35.752-12.088
				C479.371,50.48,442.798,47.069,440.327,46.844z"/>
			<g>
				<path fill="none" stroke="#2A2B2A" stroke-width="10.4501" stroke-linecap="round" stroke-miterlimit="10" d="M515.566,70.595
					c0.015,1.785-0.096,1.786-0.081,3.571c0.015,1.787-0.633,1.792-0.619,3.579c0.015,1.785,0.199,1.783,0.214,3.568
					c0.015,1.787-0.001,1.787,0.014,3.574c0.015,1.786,0.56,1.782,0.574,3.568c0.015,1.788,0.031,1.788,0.045,3.575
					c0.015,1.787,0.098,1.786,0.112,3.573c0.015,1.788-0.438,1.791-0.423,3.579c0.015,1.788,0.039,1.788,0.054,3.576
					c0.015,1.788-0.118,1.789-0.103,3.578c0.015,1.788,0.109,1.788,0.124,3.576c0.015,1.788-0.368,1.791-0.354,3.579
					c0.015,1.788,0.88,1.781,0.895,3.569c0.015,1.789-0.534,1.793-0.519,3.582c0.015,1.791,0.277,1.789,0.292,3.581
					c0.015,1.791-0.559,1.796-0.544,3.588"/>
			</g>
			<g>
				<path fill="none" stroke="#2A2B2A" stroke-width="5.2251" stroke-linecap="round" stroke-miterlimit="10" d="M503.904,74.711
					c0.016,1.817-0.53,1.822-0.514,3.639c0.016,1.817-0.195,1.819-0.179,3.636c0.016,1.815-0.043,1.815-0.027,3.63
					c0.016,1.817,0.751,1.81,0.767,3.627c0.016,1.816-0.683,1.822-0.667,3.638c0.016,1.818,0.711,1.812,0.727,3.629
					c0.016,1.817-0.401,1.82-0.384,3.637c0.016,1.817-0.012,1.818,0.004,3.635c0.016,1.818-0.363,1.822-0.347,3.64
					c0.016,1.818,0.646,1.813,0.662,3.631c0.016,1.818-0.562,1.823-0.546,3.642c0.016,1.818,0.758,1.811,0.774,3.629
					c0.016,1.818-0.075,1.819-0.059,3.637c0.016,1.818-0.521,1.823-0.505,3.642c0.016,1.821,0.718,1.815,0.734,3.637
					c0.016,1.821-0.7,1.828-0.684,3.649"/>
			</g>
			<g>
				<path fill="none" stroke="#2A2B2A" stroke-width="5.2251" stroke-linecap="round" stroke-miterlimit="10" d="M483.872,75.761
					c0.047,1.8,0.153,1.797,0.2,3.597c0.047,1.797,0.611,1.783,0.658,3.58c0.047,1.799-0.035,1.802,0.012,3.601
					c0.047,1.797-0.653,1.816-0.606,3.613c0.047,1.8,0.442,1.789,0.489,3.589c0.047,1.799-0.304,1.808-0.257,3.606
					c0.047,1.8,0.358,1.792,0.405,3.592c0.047,1.799-0.32,1.809-0.273,3.608c0.047,1.8,0.716,1.783,0.763,3.583
					c0.047,1.801-0.042,1.803,0.004,3.604c0.047,1.801,0.179,1.797,0.226,3.598c0.047,1.801-0.61,1.818-0.563,3.619
					c0.047,1.8,0.329,1.793,0.375,3.593c0.047,1.801,0.256,1.795,0.302,3.596c0.047,1.801-0.249,1.809-0.203,3.61
					c0.047,1.804,0.466,1.793,0.513,3.597c0.047,1.804-0.311,1.813-0.264,3.617"/>
			</g>
			<g>
				<path fill="none" stroke="#2A2B2A" stroke-width="5.2251" stroke-linecap="round" stroke-miterlimit="10" d="M291.263,72.793
					c0.047,1.8,0.153,1.797,0.2,3.597c0.047,1.797,0.611,1.783,0.658,3.58c0.047,1.799-0.035,1.802,0.012,3.601
					c0.047,1.797-0.653,1.816-0.606,3.613c0.047,1.8,0.442,1.789,0.489,3.589c0.047,1.799-0.304,1.808-0.257,3.606
					c0.047,1.8,0.358,1.792,0.405,3.592c0.047,1.799-0.32,1.809-0.273,3.608c0.047,1.8,0.716,1.783,0.763,3.583
					c0.047,1.801-0.042,1.803,0.004,3.604c0.047,1.801,0.179,1.797,0.226,3.598c0.047,1.801-0.61,1.818-0.563,3.619
					c0.047,1.8,0.329,1.793,0.375,3.593c0.047,1.801,0.256,1.795,0.302,3.596c0.047,1.801-0.249,1.809-0.203,3.61
					c0.047,1.804,0.466,1.793,0.513,3.597c0.047,1.804-0.311,1.813-0.264,3.617"/>
			</g>
			<g>
				<path fill="none" stroke="#2A2B2A" stroke-width="5.2251" stroke-linecap="round" stroke-miterlimit="10" d="M282.311,69.655
					c0.047,1.8,0.153,1.797,0.2,3.597c0.047,1.797,0.611,1.783,0.658,3.58c0.047,1.799-0.035,1.802,0.012,3.601
					c0.047,1.797-0.653,1.816-0.606,3.613c0.047,1.8,0.442,1.789,0.489,3.589c0.047,1.799-0.304,1.808-0.257,3.606
					c0.047,1.8,0.358,1.792,0.405,3.592c0.047,1.799-0.32,1.809-0.273,3.608c0.047,1.8,0.716,1.783,0.763,3.583
					c0.047,1.801-0.042,1.803,0.004,3.604c0.047,1.801,0.179,1.797,0.226,3.598c0.047,1.801-0.61,1.818-0.563,3.619
					c0.047,1.8,0.329,1.793,0.375,3.593c0.047,1.801,0.256,1.795,0.302,3.596c0.047,1.801-0.249,1.809-0.203,3.61
					c0.047,1.804,0.466,1.793,0.513,3.597c0.047,1.804-0.311,1.813-0.264,3.617"/>
			</g>
			<g>
				<path fill="none" stroke="#2A2B2A" stroke-width="10.4501" stroke-linecap="round" stroke-miterlimit="10" d="M343.931,83.403
					c-0.006,1.789,0.1,1.79,0.095,3.579c-0.006,1.787,0.559,1.789,0.553,3.576c-0.006,1.789-0.088,1.789-0.093,3.578
					c-0.006,1.787-0.705,1.785-0.711,3.572c-0.006,1.789,0.389,1.79,0.384,3.579c-0.006,1.788-0.356,1.787-0.362,3.575
					c-0.006,1.79,0.306,1.791,0.3,3.581c-0.006,1.789-0.373,1.788-0.378,3.576c-0.006,1.79,0.664,1.792,0.658,3.581
					c-0.006,1.79-0.095,1.79-0.101,3.58s0.127,1.791,0.121,3.581c-0.006,1.79-0.663,1.788-0.668,3.579
					c-0.006,1.79,0.276,1.791,0.271,3.581c-0.006,1.79,0.203,1.791,0.198,3.581c-0.006,1.791-0.302,1.79-0.308,3.58
					c-0.006,1.793,0.413,1.795,0.408,3.588c-0.006,1.793-0.364,1.792-0.369,3.586"/>
			</g>
			<g>
				<path fill="none" stroke="#2A2B2A" stroke-width="10.4501" stroke-linecap="round" stroke-miterlimit="10" d="M447.736,214.007
					c0.05,1.799,0.156,1.796,0.206,3.595c0.05,1.799,0.614,1.784,0.664,3.583c0.05,1.799-0.032,1.801,0.018,3.601
					c0.05,1.8-0.649,1.819-0.599,3.619c0.05,1.797,0.445,1.786,0.495,3.584c0.05,1.799-0.3,1.809-0.25,3.608
					c0.05,1.797,0.361,1.789,0.411,3.586c0.05,1.799-0.317,1.81-0.267,3.609c0.05,1.798,0.719,1.78,0.769,3.578
					c0.05,1.8-0.039,1.803,0.011,3.603c0.05,1.799,0.182,1.795,0.232,3.594c0.05,1.8-0.607,1.818-0.557,3.618
					c0.05,1.801,0.332,1.793,0.382,3.594c0.05,1.801,0.259,1.795,0.309,3.596s-0.246,1.809-0.196,3.61
					c0.05,1.8,0.469,1.789,0.519,3.589c0.05,1.801-0.308,1.81-0.258,3.611c0.05,1.801,0.576,1.786,0.626,3.587
					c0.05,1.804-0.496,1.819-0.446,3.623c0.05,1.804-0.16,1.81-0.11,3.614"/>
			</g>
			<path fill="none" stroke="#2A2B2A" stroke-width="11" stroke-miterlimit="10" d="M399.993,33.75
				c-71.422,0.721-129.215,11.809-129.084,24.767l0.004,50.885c0.334,33.131,58.335,42.667,129.757,41.947
				c71.422-0.721,129.219-11.426,128.908-42.311l-0.026-53.131C529.421,42.949,471.415,33.029,399.993,33.75z"/>
		</g>
		<path fill="none" stroke="#F0F3CC" stroke-width="51" stroke-miterlimit="10" d="M231.03,518.924
			c-25.552,18.583-36.812,46.458-39.135,69.686"/>
		<path fill="none" stroke="#D4762E" stroke-width="7" stroke-miterlimit="10" d="M232.355,517.164
			c-25.552,18.583-38.674,49.433-40.997,72.662"/>
		<path fill="none" stroke="#D4762E" stroke-width="16" stroke-miterlimit="10" d="M173.313,535.184
			c0,0,25.552,23.229,62.718,34.843"/>
		<g>
			<path fill="#F0F3CC" d="M249.49,1144.251c0,0-0.577-0.183-1.658-0.527c-0.538-0.152-1.211-0.42-2.008-0.736
				c-0.814-0.292-1.682-0.725-2.659-1.204c-1.94-0.983-4.257-2.303-6.685-4.141c-2.453-1.806-4.998-4.135-7.523-6.892
				c-2.538-2.749-4.976-5.988-7.324-9.544c-2.354-3.557-4.497-7.502-6.525-11.656c-2.034-4.154-3.827-8.576-5.512-13.104
				c-1.695-4.528-3.135-9.215-4.474-13.919c-1.323-4.71-2.537-9.445-3.542-14.143c-1.015-4.696-1.912-9.334-2.679-13.836
				c-1.508-9.011-2.526-17.469-3.187-24.733c-0.341-3.631-0.545-6.969-0.729-9.926c-0.176-2.958-0.297-5.538-0.38-7.666
				c-0.081-2.127-0.09-3.803-0.106-4.948c-0.006-1.155-0.009-1.771-0.009-1.771c-0.006-1.229,0.985-2.229,2.214-2.235
				c1.172-0.006,2.136,0.896,2.228,2.045l0.004,0.056c0,0,0.046,0.59,0.131,1.697c0.1,1.118,0.246,2.758,0.433,4.846
				c0.185,2.09,0.429,4.627,0.746,7.534c0.309,2.907,0.721,6.181,1.166,9.75c0.44,3.57,0.978,7.428,1.586,11.501
				c0.594,4.075,1.29,8.36,2.096,12.773c0.785,4.417,1.663,8.967,2.673,13.56c1.026,4.589,2.109,9.237,3.358,13.837
				c1.24,4.601,2.634,9.154,4.118,13.586c1.486,4.433,3.167,8.708,4.905,12.785c1.741,4.077,3.666,7.899,5.662,11.412
				c1.989,3.52,4.139,6.673,6.278,9.454c2.146,2.78,4.364,5.11,6.442,7.059c2.078,1.954,4.104,3.411,5.824,4.527
				c0.866,0.554,1.651,1.029,2.342,1.396c0.685,0.389,1.271,0.726,1.8,0.956c1.025,0.487,1.571,0.747,1.571,0.747
				c0.392,0.186,0.559,0.655,0.373,1.048C250.268,1144.198,249.859,1144.368,249.49,1144.251z"/>
		</g>
		
			<line fill="none" stroke="#F0F3CC" stroke-width="9" stroke-linecap="round" stroke-miterlimit="10" x1="174" y1="708" x2="174.006" y2="626.864"/>
		
			<line fill="none" stroke="#F0F3CC" stroke-width="9" stroke-linecap="round" stroke-miterlimit="10" x1="318" y1="351.75" x2="318.006" y2="288.989"/>
	</g>
</g>
</svg>
